<svg style='display: none;'>

    <symbol
      id='menu-icon'
      width='30.000000'
      height='22.000000'
      viewBox='0 0 30 22'
      fill='none'
      xmlns='http://www.w3.org/2000/svg'
      xmlns:xlink='http://www.w3.org/1999/xlink'
    >
      <defs />
      <rect
        id='Rectangle 5775'
        rx='1.000000'
        width='30.000000'
        height='2.000000'
        fill='#FFFFFF'
        fill-opacity='1.000000'
      />
      <rect
        id='Rectangle 5776'
        y='10.000000'
        rx='1.000000'
        width='30.000000'
        height='2.000000'
        fill='#FFFFFF'
        fill-opacity='1.000000'
      />
      <rect
        id='Rectangle 5777'
        y='20.000000'
        rx='1.000000'
        width='30.000000'
        height='2.000000'
        fill='#FFFFFF'
        fill-opacity='1.000000'
      />
    </symbol>

    <symbol
      id='close-icon'
      width='16.000000'
      height='16.000000'
      viewBox='0 0 16 16'
      fill='none'
      xmlns='http://www.w3.org/2000/svg'
      xmlns:xlink='http://www.w3.org/1999/xlink'
    >
      <defs>
        <clipPath id='clip439_4762'>
          <rect
            id='mingcute:close-fill'
            width='16.000000'
            height='16.000000'
            fill='white'
            fill-opacity='0'
          />
        </clipPath>
      </defs>
      <rect
        id='mingcute:close-fill'
        width='16.000000'
        height='16.000000'
        fill='#FFFFFF'
        fill-opacity='0'
      />
      <g clip-path='url(#clip439_4762)'>
        <path
          id='Vector'
          d='M8 9.41L11.53 12.95C11.72 13.13 11.97 13.24 12.24 13.24C12.5 13.24 12.76 13.13 12.95 12.95C13.13 12.76 13.24 12.5 13.24 12.24C13.24 11.97 13.13 11.72 12.95 11.53L9.41 8L12.94 4.46C13.04 4.37 13.11 4.26 13.16 4.14C13.21 4.01 13.24 3.88 13.24 3.75C13.24 3.62 13.21 3.49 13.16 3.37C13.11 3.25 13.04 3.14 12.94 3.05C12.85 2.95 12.74 2.88 12.62 2.83C12.5 2.78 12.37 2.75 12.24 2.75C12.11 2.75 11.98 2.78 11.85 2.83C11.73 2.88 11.62 2.95 11.53 3.05L8 6.58L4.46 3.05C4.37 2.95 4.26 2.87 4.14 2.82C4.01 2.77 3.88 2.74 3.75 2.74C3.62 2.74 3.48 2.76 3.36 2.81C3.24 2.86 3.13 2.94 3.03 3.03C2.94 3.13 2.87 3.24 2.81 3.36C2.76 3.48 2.74 3.62 2.74 3.75C2.74 3.88 2.77 4.01 2.82 4.13C2.87 4.26 2.95 4.37 3.05 4.46L6.58 8L3.05 11.53C2.95 11.62 2.87 11.73 2.82 11.86C2.77 11.98 2.74 12.11 2.74 12.24C2.74 12.37 2.77 12.51 2.82 12.63C2.87 12.75 2.94 12.86 3.03 12.96C3.13 13.05 3.24 13.13 3.36 13.18C3.49 13.23 3.62 13.25 3.75 13.25C3.88 13.25 4.01 13.22 4.14 13.17C4.26 13.12 4.37 13.04 4.46 12.94L8 9.41L8 9.41Z'
          fill='#FFFFFF'
          fill-opacity='1.000000'
          fill-rule='evenodd'
        />
      </g>
    </symbol>

    <symbol
      id='logo-icon'
      viewBox='0 0 183 41'
      fill='none'
      xmlns='http://www.w3.org/2000/svg'
      xmlns:xlink='http://www.w3.org/1999/xlink'
      class='w-[151px] h-[34px] tablet:w-[183px] tablet:h-[41px]'
    >
      <path
        id='Logo'
        d='M135.28 31.87L130.21 31.87L130.21 20.2C130.21 19.54 130.09 18.95 129.86 18.43C129.63 17.9 129.33 17.44 128.94 17.07C128.55 16.69 128.09 16.4 127.55 16.21C127.03 16 126.46 15.9 125.85 15.9L116.97 15.9L116.97 31.87L111.89 31.87L111.89 13.35C111.89 13 111.96 12.67 112.09 12.38C112.22 12.07 112.4 11.8 112.63 11.58C112.87 11.35 113.14 11.16 113.45 11.03C113.77 10.9 114.1 10.84 114.45 10.84L125.89 10.84C126.53 10.84 127.2 10.91 127.9 11.05C128.62 11.2 129.32 11.43 130.01 11.75C130.71 12.07 131.38 12.47 132 12.96C132.64 13.44 133.2 14.03 133.68 14.73C134.18 15.42 134.57 16.22 134.85 17.12C135.14 18.03 135.28 19.06 135.28 20.2L135.28 31.87Z'
        fill='#FFFFFF'
        fill-opacity='1.000000'
        fill-rule='nonzero'
      />
      <path
        id='Logo'
        d='M105.41 6.52L100.33 6.52L100.33 1.95L105.41 1.95L105.41 6.52ZM105.41 31.87L100.33 31.87L100.33 10.84L105.41 10.84L105.41 31.87Z'
        fill='#FFFFFF'
        fill-opacity='1.000000'
        fill-rule='nonzero'
      />
      <path
        id='Logo'
        d='M92.86 20.47L76.81 20.47L76.81 15.37L92.86 15.37L92.86 20.47ZM95.12 9.03L74.78 9.03L74.78 31.87L69.7 31.87L69.7 6.52C69.7 6.17 69.76 5.84 69.89 5.53C70.02 5.22 70.2 4.94 70.42 4.71C70.66 4.48 70.93 4.3 71.24 4.17C71.55 4.04 71.89 3.97 72.26 3.97L95.12 3.97L95.12 9.03Z'
        fill='#B9F6B4'
        fill-opacity='1.000000'
        fill-rule='nonzero'
      />
      <path
        id='Logo'
        d='M62.69 33.89C62.69 34.76 62.58 35.54 62.36 36.23C62.14 36.93 61.84 37.54 61.48 38.06C61.12 38.59 60.69 39.04 60.21 39.4C59.73 39.78 59.22 40.08 58.69 40.31C58.17 40.55 57.64 40.72 57.11 40.82C56.57 40.94 56.07 41 55.58 41L46.43 41L46.43 35.94L55.58 35.94C56.26 35.94 56.77 35.76 57.11 35.41C57.45 35.06 57.61 34.56 57.61 33.89L57.61 10.84L62.69 10.84L62.69 33.89ZM55.58 31.87L46.43 31.87C45.7 31.87 44.92 31.75 44.08 31.5C43.26 31.25 42.49 30.85 41.78 30.29C41.06 29.72 40.47 28.99 40 28.1C39.53 27.19 39.3 26.08 39.3 24.77L39.3 10.84L44.38 10.84L44.38 24.77C44.38 25.43 44.55 25.94 44.9 26.29C45.25 26.64 45.78 26.81 46.47 26.81L55.58 26.81L55.58 31.87Z'
        fill='#FFFFFF'
        fill-opacity='1.000000'
        fill-rule='nonzero'
      />
      <path
        id='Logo'
        d='M32.58 31.87L27.47 31.87L27.47 15.26L18.47 31.03C18.25 31.44 17.93 31.74 17.53 31.95C17.14 32.16 16.72 32.26 16.26 32.26C15.82 32.26 15.4 32.16 15.01 31.95C14.63 31.74 14.33 31.44 14.11 31.03L5.07 15.26L5.07 31.87L0 31.87L0 6.13C0 5.55 0.16 5.03 0.5 4.57C0.85 4.12 1.31 3.82 1.87 3.66C2.14 3.6 2.42 3.58 2.69 3.6C2.96 3.62 3.22 3.67 3.47 3.78C3.73 3.87 3.97 4 4.17 4.19C4.38 4.35 4.56 4.56 4.7 4.81L16.26 24.83L27.82 4.81C28.12 4.32 28.53 3.97 29.05 3.76C29.58 3.55 30.14 3.52 30.71 3.66C31.26 3.82 31.71 4.12 32.06 4.57C32.41 5.03 32.58 5.55 32.58 6.13L32.58 31.87Z'
        fill='#B9F6B4'
        fill-opacity='1.000000'
        fill-rule='nonzero'
      />
      <path
        id='Logo'
        d='M164.5 32.24C172.16 32.24 178.37 26.06 178.37 18.42C178.37 10.79 172.16 4.6 164.5 4.6C156.84 4.6 150.63 10.79 150.63 18.42C150.63 26.06 156.84 32.24 164.5 32.24ZM164.5 36.85C174.71 36.85 183 28.6 183 18.42C183 8.25 174.71 0 164.5 0C154.29 0 146 8.25 146 18.42C146 28.6 154.29 36.85 164.5 36.85Z'
        fill='#B9F6B4'
        fill-opacity='1.000000'
        fill-rule='evenodd'
      />
      <path
        id='Logo'
        d='M169.12 18.42C169.12 20.97 167.05 23.03 164.5 23.03C161.95 23.03 159.88 20.97 159.88 18.42C159.88 15.88 161.95 13.82 164.5 13.82C167.05 13.82 169.12 15.88 169.12 18.42Z'
        fill='#B9F6B4'
        fill-opacity='1.000000'
        fill-rule='nonzero'
      />
    </symbol>

    <symbol id='eye-off-icon' width="24" height="24" viewBox="0 0 24 24" fill="none" xmlns="http://www.w3.org/2000/svg">
      <path d="M3 3L21 21M10.584 10.587C10.2087 10.962 9.99778 11.4707 9.99759 12.0013C9.9974 12.5318 10.208 13.0407 10.583 13.416C10.958 13.7913 11.4667 14.0022 11.9973 14.0024C12.5278 14.0026 13.0367 13.792 13.412 13.417M9.363 5.365C10.2204 5.11972 11.1082 4.99684 12 5C16 5 19.333 7.333 22 12C21.222 13.361 20.388 14.524 19.497 15.488M17.357 17.349C15.726 18.449 13.942 19 12 19C8 19 4.667 16.667 2 12C3.369 9.605 4.913 7.825 6.632 6.659" stroke="white" stroke-width="1.5" stroke-linecap="round" stroke-linejoin="round"/>
    </symbol>

    <symbol id='eye-icon' width="24" height="24" viewBox="0 0 24 24" fill="none" xmlns="http://www.w3.org/2000/svg">
      <path d="M12 14C13.1046 14 14 13.1046 14 12C14 10.8954 13.1046 10 12 10C10.8954 10 10 10.8954 10 12C10 13.1046 10.8954 14 12 14Z" stroke="white" stroke-width="1.5" stroke-linecap="round" stroke-linejoin="round"/>
      <path d="M22 12C19.333 16.667 16 19 12 19C8 19 4.667 16.667 2 12C4.667 7.333 8 5 12 5C16 5 19.333 7.333 22 12Z" stroke="white" stroke-width="1.5" stroke-linecap="round" stroke-linejoin="round"/>
    </symbol>

    <symbol id='form-ok-icon' width="24" height="24" viewBox="0 0 24 24" fill="none" xmlns="http://www.w3.org/2000/svg">
      <circle cx="12" cy="12" r="11.5" fill="url(#paint0_linear_698_6740)" stroke="white"/>
      <path d="M10.0002 14.7998L7.66687 12.4665C7.60585 12.4047 7.53318 12.3557 7.45308 12.3222C7.37297 12.2888 7.28702 12.2715 7.2002 12.2715C7.11338 12.2715 7.02743 12.2888 6.94732 12.3222C6.86722 12.3557 6.79455 12.4047 6.73353 12.4665C6.67177 12.5275 6.62274 12.6002 6.58927 12.6803C6.55581 12.7604 6.53857 12.8464 6.53857 12.9332C6.53857 13.02 6.55581 13.1059 6.58927 13.1861C6.62274 13.2662 6.67177 13.3388 6.73353 13.3998L9.52687 16.1932C9.78687 16.4532 10.2069 16.4532 10.4669 16.1932L17.5335 9.13318C17.5953 9.07216 17.6443 8.99949 17.6778 8.91939C17.7113 8.83928 17.7285 8.75333 17.7285 8.66651C17.7285 8.57969 17.7113 8.49374 17.6778 8.41363C17.6443 8.33353 17.5953 8.26086 17.5335 8.19984C17.4725 8.13808 17.3999 8.08905 17.3197 8.05558C17.2396 8.02212 17.1537 8.00488 17.0669 8.00488C16.9801 8.00488 16.8941 8.02212 16.814 8.05558C16.7339 8.08905 16.6612 8.13808 16.6002 8.19984L10.0002 14.7998Z" fill="white"/>
      <defs>
        <linearGradient id="paint0_linear_698_6740" x1="37.0962" y1="90.5" x2="-40.6967" y2="63.33" gradientUnits="userSpaceOnUse">
        <stop stop-color="#A3E99D"/>
        <stop offset="0.421875" stop-color="#093423" stop-opacity="0.484375"/>
        <stop offset="0.911458" stop-color="#05A67B"/>
        <stop offset="0.9999" stop-color="#9BFFB6" stop-opacity="0.8217"/>
        <stop offset="1" stop-color="#44FFDD" stop-opacity="0.7"/>
        </linearGradient>
      </defs>
    </symbol>

    <symbol id='google-icon' width="24" height="24" viewBox="0 0 24 24" fill="none" xmlns="http://www.w3.org/2000/svg">
      <path d="M12.2446 9.81836V14.4656H18.8347C18.5453 15.9602 17.6769 17.2257 16.3745 18.0766L20.3485 21.0984C22.664 19.0039 23.9998 15.9275 23.9998 12.273C23.9998 11.4221 23.9219 10.6039 23.7771 9.81849L12.2446 9.81836Z" fill="#4285F4"/>
      <path d="M5.3824 14.2842L4.4861 14.9566L1.31348 17.3783C3.32834 21.2946 7.45794 24.0001 12.2446 24.0001C15.5507 24.0001 18.3225 22.931 20.3485 21.0984L16.3745 18.0765C15.2835 18.7965 13.892 19.2329 12.2446 19.2329C9.06091 19.2329 6.35595 17.1275 5.38741 14.2911L5.3824 14.2842Z" fill="#34A853"/>
      <path d="M1.31346 6.62158C0.478619 8.23606 0 10.0579 0 11.9997C0 13.9415 0.478619 15.7633 1.31346 17.3778C1.31346 17.3886 5.38779 14.2796 5.38779 14.2796C5.14289 13.5596 4.99813 12.796 4.99813 11.9996C4.99813 11.2031 5.14289 10.4395 5.38779 9.71951L1.31346 6.62158Z" fill="#FBBC05"/>
      <path d="M12.2449 4.77817C14.0482 4.77817 15.6512 5.38906 16.9314 6.56726L20.4378 3.13094C18.3117 1.18916 15.5511 0 12.2449 0C7.4582 0 3.32834 2.69454 1.31348 6.62181L5.38768 9.71999C6.35609 6.88361 9.06116 4.77817 12.2449 4.77817Z" fill="#EA4335"/>
    </symbol>

    <symbol id='apple-icon' width="24" height="28" viewBox="0 0 24 28" fill="none" xmlns="http://www.w3.org/2000/svg">
      <g clip-path="url(#clip0_838_645)">
      <mask id="mask0_838_645" style="mask-type:luminance" maskUnits="userSpaceOnUse" x="0" y="0" width="24" height="28">
      <path d="M24 0H0V28H24V0Z" fill="white"/>
      </mask>
      <g mask="url(#mask0_838_645)">
      <path d="M12.3563 6.46152C13.6875 6.46152 15.3563 5.60707 16.3501 4.46791C17.2499 3.43545 17.9062 1.9936 17.9062 0.551746C17.9062 0.356041 17.8875 0.160189 17.8499 0C16.3688 0.0533474 14.5875 0.943451 13.5187 2.1361C12.675 3.04389 11.9062 4.46792 11.9062 5.9276C11.9062 6.14114 11.9437 6.35467 11.9626 6.426C12.0563 6.44368 12.2062 6.46152 12.3563 6.46152ZM7.6688 28C9.48752 28 10.2938 26.843 12.5626 26.843C14.8688 26.843 15.375 27.9643 17.4 27.9643C19.3875 27.9643 20.7187 26.2199 21.975 24.5111C23.3813 22.5531 23.9626 20.6307 24 20.5417C23.8688 20.506 20.0626 19.0287 20.0626 14.8811C20.0626 11.2855 23.0626 9.6656 23.2312 9.54107C21.2437 6.83539 18.225 6.76421 17.4 6.76421C15.1688 6.76421 13.3501 8.04573 12.2062 8.04573C10.9688 8.04573 9.33744 6.83539 7.40624 6.83539C3.7312 6.83539 0 9.71895 0 15.166C0 18.5479 1.38752 22.1259 3.09376 24.4399C4.55632 26.398 5.8312 28 7.6688 28Z" fill="white"/>
      </g>
      </g>
      <defs>
      <clipPath id="clip0_838_645">
      <rect width="24" height="28" fill="white"/>
      </clipPath>
      </defs>
    </symbol>
</svg>