<svg style='display: none;'>

<!-- Menu icon -->
    <symbol
      id='menu-icon'
      width='30.000000'
      height='22.000000'
      viewBox='0 0 30 22'
      fill='none'
      xmlns='http://www.w3.org/2000/svg'
      xmlns:xlink='http://www.w3.org/1999/xlink'
    >
      <defs />
      <rect
        id='Rectangle 5775'
        rx='1.000000'
        width='30.000000'
        height='2.000000'
        fill='#FFFFFF'
        fill-opacity='1.000000'
      />
      <rect
        id='Rectangle 5776'
        y='10.000000'
        rx='1.000000'
        width='30.000000'
        height='2.000000'
        fill='#FFFFFF'
        fill-opacity='1.000000'
      />
      <rect
        id='Rectangle 5777'
        y='20.000000'
        rx='1.000000'
        width='30.000000'
        height='2.000000'
        fill='#FFFFFF'
        fill-opacity='1.000000'
      />
    </symbol>


<!-- Close icon -->
    <symbol
      id='close-icon'
      width='16.000000'
      height='16.000000'
      viewBox='0 0 16 16'
      fill='none'
      xmlns='http://www.w3.org/2000/svg'
      xmlns:xlink='http://www.w3.org/1999/xlink'
    >
      <defs>
        <clipPath id='clip439_4762'>
          <rect
            id='mingcute:close-fill'
            width='16.000000'
            height='16.000000'
            fill='white'
            fill-opacity='0'
          />
        </clipPath>
      </defs>
      <rect
        id='mingcute:close-fill'
        width='16.000000'
        height='16.000000'
        fill='#FFFFFF'
        fill-opacity='0'
      />
      <g clip-path='url(#clip439_4762)'>
        <path
          id='Vector'
          d='M8 9.41L11.53 12.95C11.72 13.13 11.97 13.24 12.24 13.24C12.5 13.24 12.76 13.13 12.95 12.95C13.13 12.76 13.24 12.5 13.24 12.24C13.24 11.97 13.13 11.72 12.95 11.53L9.41 8L12.94 4.46C13.04 4.37 13.11 4.26 13.16 4.14C13.21 4.01 13.24 3.88 13.24 3.75C13.24 3.62 13.21 3.49 13.16 3.37C13.11 3.25 13.04 3.14 12.94 3.05C12.85 2.95 12.74 2.88 12.62 2.83C12.5 2.78 12.37 2.75 12.24 2.75C12.11 2.75 11.98 2.78 11.85 2.83C11.73 2.88 11.62 2.95 11.53 3.05L8 6.58L4.46 3.05C4.37 2.95 4.26 2.87 4.14 2.82C4.01 2.77 3.88 2.74 3.75 2.74C3.62 2.74 3.48 2.76 3.36 2.81C3.24 2.86 3.13 2.94 3.03 3.03C2.94 3.13 2.87 3.24 2.81 3.36C2.76 3.48 2.74 3.62 2.74 3.75C2.74 3.88 2.77 4.01 2.82 4.13C2.87 4.26 2.95 4.37 3.05 4.46L6.58 8L3.05 11.53C2.95 11.62 2.87 11.73 2.82 11.86C2.77 11.98 2.74 12.11 2.74 12.24C2.74 12.37 2.77 12.51 2.82 12.63C2.87 12.75 2.94 12.86 3.03 12.96C3.13 13.05 3.24 13.13 3.36 13.18C3.49 13.23 3.62 13.25 3.75 13.25C3.88 13.25 4.01 13.22 4.14 13.17C4.26 13.12 4.37 13.04 4.46 12.94L8 9.41L8 9.41Z'
          fill='#FFFFFF'
          fill-opacity='1.000000'
          fill-rule='evenodd'
        />
      </g>
    </symbol>


<!-- Logo icon -->
    <symbol
      id='logo-icon'
      viewBox='0 0 183 41'
      fill='none'
      xmlns='http://www.w3.org/2000/svg'
      xmlns:xlink='http://www.w3.org/1999/xlink'
      class='w-[151px] h-[34px] tablet:w-[183px] tablet:h-[41px]'
    >
      <path
        id='Logo'
        d='M135.28 31.87L130.21 31.87L130.21 20.2C130.21 19.54 130.09 18.95 129.86 18.43C129.63 17.9 129.33 17.44 128.94 17.07C128.55 16.69 128.09 16.4 127.55 16.21C127.03 16 126.46 15.9 125.85 15.9L116.97 15.9L116.97 31.87L111.89 31.87L111.89 13.35C111.89 13 111.96 12.67 112.09 12.38C112.22 12.07 112.4 11.8 112.63 11.58C112.87 11.35 113.14 11.16 113.45 11.03C113.77 10.9 114.1 10.84 114.45 10.84L125.89 10.84C126.53 10.84 127.2 10.91 127.9 11.05C128.62 11.2 129.32 11.43 130.01 11.75C130.71 12.07 131.38 12.47 132 12.96C132.64 13.44 133.2 14.03 133.68 14.73C134.18 15.42 134.57 16.22 134.85 17.12C135.14 18.03 135.28 19.06 135.28 20.2L135.28 31.87Z'
        fill='#FFFFFF'
        fill-opacity='1.000000'
        fill-rule='nonzero'
      />
      <path
        id='Logo'
        d='M105.41 6.52L100.33 6.52L100.33 1.95L105.41 1.95L105.41 6.52ZM105.41 31.87L100.33 31.87L100.33 10.84L105.41 10.84L105.41 31.87Z'
        fill='#FFFFFF'
        fill-opacity='1.000000'
        fill-rule='nonzero'
      />
      <path
        id='Logo'
        d='M92.86 20.47L76.81 20.47L76.81 15.37L92.86 15.37L92.86 20.47ZM95.12 9.03L74.78 9.03L74.78 31.87L69.7 31.87L69.7 6.52C69.7 6.17 69.76 5.84 69.89 5.53C70.02 5.22 70.2 4.94 70.42 4.71C70.66 4.48 70.93 4.3 71.24 4.17C71.55 4.04 71.89 3.97 72.26 3.97L95.12 3.97L95.12 9.03Z'
        fill='#B9F6B4'
        fill-opacity='1.000000'
        fill-rule='nonzero'
      />
      <path
        id='Logo'
        d='M62.69 33.89C62.69 34.76 62.58 35.54 62.36 36.23C62.14 36.93 61.84 37.54 61.48 38.06C61.12 38.59 60.69 39.04 60.21 39.4C59.73 39.78 59.22 40.08 58.69 40.31C58.17 40.55 57.64 40.72 57.11 40.82C56.57 40.94 56.07 41 55.58 41L46.43 41L46.43 35.94L55.58 35.94C56.26 35.94 56.77 35.76 57.11 35.41C57.45 35.06 57.61 34.56 57.61 33.89L57.61 10.84L62.69 10.84L62.69 33.89ZM55.58 31.87L46.43 31.87C45.7 31.87 44.92 31.75 44.08 31.5C43.26 31.25 42.49 30.85 41.78 30.29C41.06 29.72 40.47 28.99 40 28.1C39.53 27.19 39.3 26.08 39.3 24.77L39.3 10.84L44.38 10.84L44.38 24.77C44.38 25.43 44.55 25.94 44.9 26.29C45.25 26.64 45.78 26.81 46.47 26.81L55.58 26.81L55.58 31.87Z'
        fill='#FFFFFF'
        fill-opacity='1.000000'
        fill-rule='nonzero'
      />
      <path
        id='Logo'
        d='M32.58 31.87L27.47 31.87L27.47 15.26L18.47 31.03C18.25 31.44 17.93 31.74 17.53 31.95C17.14 32.16 16.72 32.26 16.26 32.26C15.82 32.26 15.4 32.16 15.01 31.95C14.63 31.74 14.33 31.44 14.11 31.03L5.07 15.26L5.07 31.87L0 31.87L0 6.13C0 5.55 0.16 5.03 0.5 4.57C0.85 4.12 1.31 3.82 1.87 3.66C2.14 3.6 2.42 3.58 2.69 3.6C2.96 3.62 3.22 3.67 3.47 3.78C3.73 3.87 3.97 4 4.17 4.19C4.38 4.35 4.56 4.56 4.7 4.81L16.26 24.83L27.82 4.81C28.12 4.32 28.53 3.97 29.05 3.76C29.58 3.55 30.14 3.52 30.71 3.66C31.26 3.82 31.71 4.12 32.06 4.57C32.41 5.03 32.58 5.55 32.58 6.13L32.58 31.87Z'
        fill='#B9F6B4'
        fill-opacity='1.000000'
        fill-rule='nonzero'
      />
      <path
        id='Logo'
        d='M164.5 32.24C172.16 32.24 178.37 26.06 178.37 18.42C178.37 10.79 172.16 4.6 164.5 4.6C156.84 4.6 150.63 10.79 150.63 18.42C150.63 26.06 156.84 32.24 164.5 32.24ZM164.5 36.85C174.71 36.85 183 28.6 183 18.42C183 8.25 174.71 0 164.5 0C154.29 0 146 8.25 146 18.42C146 28.6 154.29 36.85 164.5 36.85Z'
        fill='#B9F6B4'
        fill-opacity='1.000000'
        fill-rule='evenodd'
      />
      <path
        id='Logo'
        d='M169.12 18.42C169.12 20.97 167.05 23.03 164.5 23.03C161.95 23.03 159.88 20.97 159.88 18.42C159.88 15.88 161.95 13.82 164.5 13.82C167.05 13.82 169.12 15.88 169.12 18.42Z'
        fill='#B9F6B4'
        fill-opacity='1.000000'
        fill-rule='nonzero'
      />
    </symbol>

    <symbol id='eye-off-icon' width="24" height="24" viewBox="0 0 24 24" fill="none" xmlns="http://www.w3.org/2000/svg">
      <path d="M3 3L21 21M10.584 10.587C10.2087 10.962 9.99778 11.4707 9.99759 12.0013C9.9974 12.5318 10.208 13.0407 10.583 13.416C10.958 13.7913 11.4667 14.0022 11.9973 14.0024C12.5278 14.0026 13.0367 13.792 13.412 13.417M9.363 5.365C10.2204 5.11972 11.1082 4.99684 12 5C16 5 19.333 7.333 22 12C21.222 13.361 20.388 14.524 19.497 15.488M17.357 17.349C15.726 18.449 13.942 19 12 19C8 19 4.667 16.667 2 12C3.369 9.605 4.913 7.825 6.632 6.659" stroke="white" stroke-width="1.5" stroke-linecap="round" stroke-linejoin="round"/>
    </symbol>

    <symbol id='eye-icon' width="24" height="24" viewBox="0 0 24 24" fill="none" xmlns="http://www.w3.org/2000/svg">
      <path d="M12 14C13.1046 14 14 13.1046 14 12C14 10.8954 13.1046 10 12 10C10.8954 10 10 10.8954 10 12C10 13.1046 10.8954 14 12 14Z" stroke="white" stroke-width="1.5" stroke-linecap="round" stroke-linejoin="round"/>
      <path d="M22 12C19.333 16.667 16 19 12 19C8 19 4.667 16.667 2 12C4.667 7.333 8 5 12 5C16 5 19.333 7.333 22 12Z" stroke="white" stroke-width="1.5" stroke-linecap="round" stroke-linejoin="round"/>
    </symbol>

    <symbol id='form-ok-icon' width="24" height="24" viewBox="0 0 24 24" xmlns="http://www.w3.org/2000/svg">
      <circle cx="12" cy="12" r="11.5" fill="url(#paint0_linear_698_6740)" stroke="white"/>
      <path d="M10.0002 14.7998L7.66687 12.4665C7.60585 12.4047 7.53318 12.3557 7.45308 12.3222C7.37297 12.2888 7.28702 12.2715 7.2002 12.2715C7.11338 12.2715 7.02743 12.2888 6.94732 12.3222C6.86722 12.3557 6.79455 12.4047 6.73353 12.4665C6.67177 12.5275 6.62274 12.6002 6.58927 12.6803C6.55581 12.7604 6.53857 12.8464 6.53857 12.9332C6.53857 13.02 6.55581 13.1059 6.58927 13.1861C6.62274 13.2662 6.67177 13.3388 6.73353 13.3998L9.52687 16.1932C9.78687 16.4532 10.2069 16.4532 10.4669 16.1932L17.5335 9.13318C17.5953 9.07216 17.6443 8.99949 17.6778 8.91939C17.7113 8.83928 17.7285 8.75333 17.7285 8.66651C17.7285 8.57969 17.7113 8.49374 17.6778 8.41363C17.6443 8.33353 17.5953 8.26086 17.5335 8.19984C17.4725 8.13808 17.3999 8.08905 17.3197 8.05558C17.2396 8.02212 17.1537 8.00488 17.0669 8.00488C16.9801 8.00488 16.8941 8.02212 16.814 8.05558C16.7339 8.08905 16.6612 8.13808 16.6002 8.19984L10.0002 14.7998Z" fill="white"/>
      <defs>
        <linearGradient id="paint0_linear_698_6740" x1="37.0962" y1="90.5" x2="-40.6967" y2="63.33" gradientUnits="userSpaceOnUse">
        <stop stop-color="#A3E99D"/>
        <stop offset="0.421875" stop-color="#093423" stop-opacity="0.484375"/>
        <stop offset="0.911458" stop-color="#05A67B"/>
        <stop offset="0.9999" stop-color="#9BFFB6" stop-opacity="0.8217"/>
        <stop offset="1" stop-color="#44FFDD" stop-opacity="0.7"/>
        </linearGradient>
      </defs>
    </symbol>

    <symbol id='form-error-icon' width="24" height="24" viewBox="0 0 24 24" xmlns="http://www.w3.org/2000/svg">
      <circle cx="12" cy="12" r="11.5" fill="url(#paint0_linear_941_2202)" fill-opacity="0.82" stroke="white"/>
      <path d="M12 14.752C11.7973 14.752 11.6373 14.688 11.52 14.56C11.4133 14.432 11.3493 14.2507 11.328 14.016L10.848 7.904C10.816 7.50933 10.9013 7.19467 11.104 6.96C11.3067 6.71467 11.6053 6.592 12 6.592C12.384 6.592 12.672 6.71467 12.864 6.96C13.0667 7.19467 13.152 7.50933 13.12 7.904L12.64 14.016C12.6293 14.2507 12.5653 14.432 12.448 14.56C12.3413 14.688 12.192 14.752 12 14.752ZM12 18.08C11.6373 18.08 11.344 17.968 11.12 17.744C10.9067 17.52 10.8 17.232 10.8 16.88C10.8 16.5387 10.9067 16.2613 11.12 16.048C11.344 15.824 11.6373 15.712 12 15.712C12.3733 15.712 12.6613 15.824 12.864 16.048C13.0773 16.2613 13.184 16.5387 13.184 16.88C13.184 17.232 13.0773 17.52 12.864 17.744C12.6613 17.968 12.3733 18.08 12 18.08Z" fill="white"/>
      <defs>
      <linearGradient id="paint0_linear_941_2202" x1="6.51" y1="-3.6" x2="-3.3" y2="22.77" gradientUnits="userSpaceOnUse">
      <stop stop-color="#F9957F"/>
      <stop offset="0.465" stop-color="#FF7363"/>
      <stop offset="0.875" stop-color="#FF4444"/>
      </linearGradient>
      </defs>
    </symbol>

    <symbol id='google-icon' width="24" height="24" viewBox="0 0 24 24" fill="none" xmlns="http://www.w3.org/2000/svg">
      <path d="M12.2446 9.81836V14.4656H18.8347C18.5453 15.9602 17.6769 17.2257 16.3745 18.0766L20.3485 21.0984C22.664 19.0039 23.9998 15.9275 23.9998 12.273C23.9998 11.4221 23.9219 10.6039 23.7771 9.81849L12.2446 9.81836Z" fill="#4285F4"/>
      <path d="M5.3824 14.2842L4.4861 14.9566L1.31348 17.3783C3.32834 21.2946 7.45794 24.0001 12.2446 24.0001C15.5507 24.0001 18.3225 22.931 20.3485 21.0984L16.3745 18.0765C15.2835 18.7965 13.892 19.2329 12.2446 19.2329C9.06091 19.2329 6.35595 17.1275 5.38741 14.2911L5.3824 14.2842Z" fill="#34A853"/>
      <path d="M1.31346 6.62158C0.478619 8.23606 0 10.0579 0 11.9997C0 13.9415 0.478619 15.7633 1.31346 17.3778C1.31346 17.3886 5.38779 14.2796 5.38779 14.2796C5.14289 13.5596 4.99813 12.796 4.99813 11.9996C4.99813 11.2031 5.14289 10.4395 5.38779 9.71951L1.31346 6.62158Z" fill="#FBBC05"/>
      <path d="M12.2449 4.77817C14.0482 4.77817 15.6512 5.38906 16.9314 6.56726L20.4378 3.13094C18.3117 1.18916 15.5511 0 12.2449 0C7.4582 0 3.32834 2.69454 1.31348 6.62181L5.38768 9.71999C6.35609 6.88361 9.06116 4.77817 12.2449 4.77817Z" fill="#EA4335"/>
    </symbol>

    <symbol id='apple-icon' width="24" height="28" viewBox="0 0 24 28" fill="none" xmlns="http://www.w3.org/2000/svg">
      <g clip-path="url(#clip0_838_645)">
      <mask id="mask0_838_645" style="mask-type:luminance" maskUnits="userSpaceOnUse" x="0" y="0" width="24" height="28">
      <path d="M24 0H0V28H24V0Z" fill="white"/>
      </mask>
      <g mask="url(#mask0_838_645)">
      <path d="M12.3563 6.46152C13.6875 6.46152 15.3563 5.60707 16.3501 4.46791C17.2499 3.43545 17.9062 1.9936 17.9062 0.551746C17.9062 0.356041 17.8875 0.160189 17.8499 0C16.3688 0.0533474 14.5875 0.943451 13.5187 2.1361C12.675 3.04389 11.9062 4.46792 11.9062 5.9276C11.9062 6.14114 11.9437 6.35467 11.9626 6.426C12.0563 6.44368 12.2062 6.46152 12.3563 6.46152ZM7.6688 28C9.48752 28 10.2938 26.843 12.5626 26.843C14.8688 26.843 15.375 27.9643 17.4 27.9643C19.3875 27.9643 20.7187 26.2199 21.975 24.5111C23.3813 22.5531 23.9626 20.6307 24 20.5417C23.8688 20.506 20.0626 19.0287 20.0626 14.8811C20.0626 11.2855 23.0626 9.6656 23.2312 9.54107C21.2437 6.83539 18.225 6.76421 17.4 6.76421C15.1688 6.76421 13.3501 8.04573 12.2062 8.04573C10.9688 8.04573 9.33744 6.83539 7.40624 6.83539C3.7312 6.83539 0 9.71895 0 15.166C0 18.5479 1.38752 22.1259 3.09376 24.4399C4.55632 26.398 5.8312 28 7.6688 28Z" fill="white"/>
      </g>
      </g>
      <defs>
      <clipPath id="clip0_838_645">
      <rect width="24" height="28" fill="white"/>
      </clipPath>
      </defs>
    </symbol>
<!-- Logo footer icon -->
    <symbol id='logo-footer-icon' class='w-[62px] h-[14px] tablet:w-[186px] tablet:h-[60px]' viewBox="0 0 186 60" fill="none" xmlns="http://www.w3.org/2000/svg" xmlns:xlink="http://www.w3.org/1999/xlink">
	<defs/>
	<path id="MyFin" d="M30.42 44.5L35.54 44.5L35.54 18.66Q35.54 18.18 35.39 17.76Q35.26 17.41 35.01 17.09Q34.73 16.73 34.37 16.49Q34.05 16.28 33.67 16.17Q33.14 16.04 32.65 16.11Q32.33 16.15 32.02 16.27Q31.66 16.41 31.37 16.64Q31.02 16.92 30.78 17.33L19.21 37.42L7.65 17.33Q7.46 16.99 7.19 16.75Q7.16 16.72 7.12 16.69Q6.96 16.56 6.78 16.45Q6.61 16.35 6.43 16.28Q6.27 16.22 6.11 16.18Q5.88 16.12 5.64 16.11Q5.54 16.1 5.45 16.1Q5.13 16.1 4.82 16.17Q4.36 16.3 4 16.56Q3.7 16.78 3.46 17.09Q3.23 17.39 3.11 17.73Q2.94 18.16 2.94 18.66L2.94 44.5L8.02 44.5L8.02 27.82L17.07 43.66Q17.29 44.06 17.61 44.33Q17.78 44.47 17.97 44.57Q18.23 44.71 18.51 44.79Q18.85 44.89 19.21 44.89Q19.6 44.89 19.96 44.78Q20.24 44.71 20.49 44.57Q20.74 44.44 20.95 44.26Q21.23 44.01 21.42 43.66L30.42 27.82L30.42 44.5ZM77.84 21.57L98.2 21.57L98.2 16.49L75.32 16.49Q74.8 16.49 74.34 16.67Q74.32 16.68 74.31 16.68Q73.97 16.82 73.7 17.04Q73.6 17.13 73.5 17.23Q73.41 17.32 73.33 17.41Q73.11 17.7 72.96 18.05Q72.91 18.17 72.87 18.29Q72.77 18.65 72.77 19.05L72.77 44.5L77.84 44.5L77.84 21.57ZM79.87 33.05L95.93 33.05L95.93 27.93L79.87 27.93L79.87 33.05Z" fill="#B9F6B4" fill-opacity="0.250000" fill-rule="evenodd"/>
	<path id="MyFin" d="M103.41 19.05L108.49 19.05L108.49 14.46L103.41 14.46L103.41 19.05ZM49.49 44.5L58.65 44.5L58.65 39.42L49.52 39.42Q48.51 39.42 47.98 38.91Q47.97 38.9 47.96 38.89Q47.93 38.86 47.9 38.82Q47.43 38.3 47.43 37.37L47.43 23.38L42.36 23.38L42.36 37.37Q42.36 39.34 43.06 40.7Q43.76 42.05 44.84 42.9Q45.79 43.66 46.88 44.04Q47.01 44.08 47.15 44.12Q48.39 44.5 49.49 44.5ZM65.42 48.88Q65.76 47.83 65.76 46.53L65.76 23.38L60.68 23.38L60.68 46.53Q60.68 47.5 60.19 48.03Q60.18 48.04 60.17 48.05Q60.15 48.07 60.13 48.09Q59.62 48.58 58.65 48.58L49.49 48.58L49.49 53.66L58.65 53.66Q59.37 53.66 60.17 53.49Q60.97 53.32 61.76 52.97Q62.55 52.62 63.27 52.06Q64 51.51 64.54 50.72Q65.09 49.92 65.42 48.88ZM103.41 44.5L108.49 44.5L108.49 23.38L103.41 23.38L103.41 44.5ZM133.27 44.5L138.35 44.5L138.35 32.78Q138.35 31.06 137.92 29.69Q137.49 28.32 136.76 27.28Q136.02 26.23 135.08 25.5Q134.13 24.77 133.08 24.29Q132.04 23.81 130.98 23.6Q129.91 23.38 128.95 23.38L117.51 23.38Q117.12 23.38 116.76 23.49Q116.63 23.53 116.51 23.58Q116.16 23.72 115.88 23.95Q115.78 24.03 115.69 24.11Q115.56 24.25 115.44 24.4Q115.26 24.63 115.15 24.91Q115.11 24.99 115.09 25.06Q114.95 25.46 114.95 25.9L114.95 44.5L120.03 44.5L120.03 28.46L128.92 28.46Q129.83 28.46 130.62 28.76Q131.21 28.99 131.68 29.35Q131.85 29.48 132 29.63Q132.09 29.71 132.16 29.8Q132.64 30.31 132.93 30.99Q133.27 31.78 133.27 32.78L133.27 44.5Z" fill="#FFFFFF" fill-opacity="0.250000" fill-rule="evenodd"/>
	<path id="Vector" d="M186 30.5C186 40.71 177.71 49 167.5 49C157.28 49 149 40.71 149 30.5C149 20.28 157.28 12 167.5 12C177.71 12 186 20.28 186 30.5ZM181.37 30.5C181.37 38.16 175.16 44.37 167.5 44.37C159.83 44.37 153.62 38.16 153.62 30.5C153.62 22.83 159.83 16.62 167.5 16.62C175.16 16.62 181.37 22.83 181.37 30.5ZM167.5 35.12C170.05 35.12 172.12 33.05 172.12 30.5C172.12 27.94 170.05 25.87 167.5 25.87C164.94 25.87 162.87 27.94 162.87 30.5C162.87 33.05 164.94 35.12 167.5 35.12Z" fill="#B9F6B4" fill-opacity="0.250000" fill-rule="evenodd"/>
</symbol>

<!-- Coins icon -->
<symbol id="coins-icon" class='w-[40px] h-[40px] tablet:w-[90px] tablet:h-[90px]' viewBox="0 0 90 90" fill="none" xmlns="http://www.w3.org/2000/svg">
  <g>
    <path d="M61.87 0C46.1 0 33.75 7.41 33.75 16.87L33.75 26.57C31.93 26.36 30.05 26.25 28.12 26.25C12.35 26.25 0 33.66 0 43.12L0 73.12C0 82.58 12.35 90 28.12 90C40.93 90 51.49 85.11 55 78.2C57.24 78.52 59.52 78.75 61.87 78.75C77.64 78.75 90 71.33 90 61.87L90 16.87C90 7.41 77.64 0 61.87 0ZM61.87 7.5C73.67 7.5 82.5 12.45 82.5 16.87C82.5 21.3 73.67 26.25 61.87 26.25C50.07 26.25 41.25 21.3 41.25 16.87C41.25 12.45 50.07 7.5 61.87 7.5ZM28.12 33.75C39.92 33.75 48.75 38.7 48.75 43.12C48.75 47.55 39.92 52.5 28.12 52.5C16.32 52.5 7.5 47.55 7.5 43.12C7.5 38.7 16.32 33.75 28.12 33.75ZM7.5 54.68C12.6 57.96 19.88 60 28.12 60C36.36 60 43.64 57.96 48.75 54.68L48.75 58.12C48.75 62.55 39.92 67.5 28.12 67.5C16.32 67.5 7.5 62.55 7.5 58.12L7.5 54.68ZM28.12 82.5C16.32 82.5 7.5 77.55 7.5 73.12L7.5 69.68C12.6 72.96 19.88 75 28.12 75C36.36 75 43.64 72.96 48.75 69.68L48.75 73.12C48.75 77.55 39.92 82.5 28.12 82.5ZM61.87 71.25C59.94 71.25 58.08 71.07 56.25 70.81L56.25 63.39C58.09 63.6 59.96 63.75 61.87 63.75C70.11 63.75 77.39 61.71 82.5 58.43L82.5 61.87C82.5 66.3 73.67 71.25 61.87 71.25ZM61.87 56.25C59.94 56.25 58.08 56.07 56.25 55.81L56.25 48.39C58.09 48.6 59.96 48.75 61.87 48.75C70.11 48.75 77.39 46.71 82.5 43.43L82.5 46.87C82.5 51.3 73.67 56.25 61.87 56.25ZM61.87 41.25C59.84 41.25 57.87 41.05 55.95 40.77C55.21 37.44 52.92 34.45 49.5 32.07C53.22 33.13 57.4 33.75 61.87 33.75C70.11 33.75 77.39 31.71 82.5 28.43L82.5 31.87C82.5 36.3 73.67 41.25 61.87 41.25L61.87 41.25Z" fill="#7AFAC7" fill-opacity="0.83"/>
  </g>
</symbol>


<!-- Clock icon -->
<symbol id="clock-icon" class='w-[40px] h-[40px] tablet:w-[90px] tablet:h-[90px]' viewBox="0 0 90 90" fill="none" xmlns="http://www.w3.org/2000/svg">
  <g>
    <path d="M45 90C20.18 90 0 69.81 0 45C0 20.18 20.18 0 45 0C69.81 0 90 20.18 90 45C90 69.81 69.81 90 45 90ZM45 7.5C24.32 7.5 7.5 24.32 7.5 45C7.5 65.67 24.32 82.5 45 82.5C65.67 82.5 82.5 65.67 82.5 45C82.5 24.32 65.67 7.5 45 7.5ZM54.37 61.23C56.17 60.2 56.78 57.9 55.74 56.11L48.75 43.99L48.75 22.5C48.75 20.43 47.07 18.75 45 18.75C42.92 18.75 41.25 20.43 41.25 22.5L41.25 45C41.25 45.66 41.42 46.3 41.75 46.87L49.25 59.86C49.95 61.06 51.2 61.74 52.5 61.74C53.14 61.74 53.78 61.57 54.37 61.23Z" fill="#7AFAC7" fill-opacity="0.83"/>
  </g>
</symbol>


<!-- Graph icon -->
<symbol id="graph-icon" class='w-[40px] h-[40px] tablet:w-[90px] tablet:h-[90px]' viewBox="0 0 90 90" fill="none" xmlns="http://www.w3.org/2000/svg">
  <path id="Vector" d="M86.25 82.5L11.25 82.5C9.17 82.5 7.5 80.82 7.5 78.75L7.5 3.75C7.5 1.67 5.82 0 3.75 0C1.67 0 0 1.67 0 3.75L0 78.75C0 84.96 5.03 90 11.25 90L86.25 90C88.32 90 90 88.32 90 86.25C90 84.17 88.32 82.5 86.25 82.5Z" fill="#7AFAC7" fill-opacity="0.83" fill-rule="nonzero"/>
  <path id="Vector" d="M56.25 75C58.32 75 60 73.32 60 71.25L60 45C60 42.92 58.32 41.25 56.25 41.25C54.17 41.25 52.5 42.92 52.5 45L52.5 71.25C52.5 73.32 54.17 75 56.25 75Z" fill="#7AFAC7" fill-opacity="0.83" fill-rule="nonzero"/>
  <path id="Vector" d="M26.25 75C28.32 75 30 73.32 30 71.25L30 45C30 42.92 28.32 41.25 26.25 41.25C24.17 41.25 22.5 42.92 22.5 45L22.5 71.25C22.5 73.32 24.17 75 26.25 75Z" fill="#7AFAC7" fill-opacity="0.83" fill-rule="nonzero"/>
  <path id="Vector" d="M71.25 75C73.32 75 75 73.32 75 71.25L75 26.25C75 24.17 73.32 22.5 71.25 22.5C69.17 22.5 67.5 24.17 67.5 26.25L67.5 71.25C67.5 73.32 69.17 75 71.25 75Z" fill="#7AFAC7" fill-opacity="0.83" fill-rule="nonzero"/>
  <path id="Vector" d="M41.25 75C43.32 75 45 73.32 45 71.25L45 26.25C45 24.17 43.32 22.5 41.25 22.5C39.17 22.5 37.5 24.17 37.5 26.25L37.5 71.25C37.5 73.32 39.17 75 41.25 75Z" fill="#7AFAC7" fill-opacity="0.83" fill-rule="nonzero"/>
</symbol>

<!-- Notes icon -->
<symbol id="notes-icon" class='w-[50px] h-[50px] tablet:w-[100px] tablet:h-[100px]' viewBox="0 0 100 100" fill="none" xmlns="http://www.w3.org/2000/svg">
    <path id="Vector" d="M81.25 25L79.16 25L79.16 10.41C79.16 4.67 74.49 0 68.75 0L18.75 0C8.41 0 0 8.41 0 18.75L0 56.25C0 66.58 8.41 75 18.75 75L20.83 75L20.83 81.25C20.83 91.58 29.24 100 39.58 100L81.25 100C91.58 100 100 91.58 100 81.25L100 43.75C100 33.41 91.58 25 81.25 25ZM75 25L32.39 25L73.29 6.12C74.35 7.25 75 8.75 75 10.41L75 25ZM18.75 70.83C10.7 70.83 4.16 64.29 4.16 56.25L4.16 18.75C4.16 10.7 10.7 4.16 18.75 4.16L67.59 4.16L29.3 21.83C24.15 24.21 20.83 29.4 20.83 35.08L20.83 70.83L18.75 70.83ZM95.83 81.25C95.83 89.29 89.29 95.83 81.25 95.83L39.58 95.83C31.54 95.83 25 89.29 25 81.25L25 35.08C25 32.92 25.67 30.86 26.85 29.15C26.93 29.16 27 29.16 27.08 29.16L81.25 29.16C89.29 29.16 95.83 35.7 95.83 43.75L95.83 81.25ZM83.33 50C83.33 51.15 82.39 52.08 81.25 52.08L64.58 52.08C63.43 52.08 62.5 51.15 62.5 50C62.5 48.85 63.43 47.91 64.58 47.91L81.25 47.91C82.39 47.91 83.33 48.85 83.33 50ZM47.91 41.66L43.75 41.66C40.3 41.66 37.5 44.47 37.5 47.91L37.5 52.08C37.5 55.52 40.3 58.33 43.75 58.33L47.91 58.33C51.36 58.33 54.16 55.52 54.16 52.08L54.16 47.91C54.16 44.47 51.36 41.66 47.91 41.66ZM50 52.08C50 53.22 49.06 54.16 47.91 54.16L43.75 54.16C42.6 54.16 41.66 53.22 41.66 52.08L41.66 47.91C41.66 46.77 42.6 45.83 43.75 45.83L47.91 45.83C49.06 45.83 50 46.77 50 47.91L50 52.08ZM83.33 75C83.33 76.15 82.39 77.08 81.25 77.08L64.58 77.08C63.43 77.08 62.5 76.15 62.5 75C62.5 73.85 63.43 72.91 64.58 72.91L81.25 72.91C82.39 72.91 83.33 73.85 83.33 75ZM47.91 66.66L43.75 66.66C40.3 66.66 37.5 69.47 37.5 72.91L37.5 77.08C37.5 80.52 40.3 83.33 43.75 83.33L47.91 83.33C51.36 83.33 54.16 80.52 54.16 77.08L54.16 72.91C54.16 69.47 51.36 66.66 47.91 66.66ZM50 77.08C50 78.22 49.06 79.16 47.91 79.16L43.75 79.16C42.6 79.16 41.66 78.22 41.66 77.08L41.66 72.91C41.66 71.77 42.6 70.83 43.75 70.83L47.91 70.83C49.06 70.83 50 71.77 50 72.91L50 77.08Z" fill="#FFFFFF" fill-opacity="1" fill-rule="nonzero"/>
</symbol>

<!-- Statistic icon -->
<symbol id='statistic-icon' class='w-[50px] h-[50px] tablet:w-[100px] tablet:h-[100px]' viewBox="0 0 100.051 99.9844" fill="none" xmlns="http://www.w3.org/2000/svg" xmlns:xlink="http://www.w3.org/1999/xlink">
	<defs/>
	<path id="Vector" d="M49.6 99.98C43.31 99.98 37.02 98.77 30.9 96.27C18.56 91.31 8.65 81.35 3.69 69.02C-1.94 55.1 -1.1 40.19 5.98 27.02C13.4 13.23 26.81 3.23 41.85 0.19C44.81 -0.4 47.9 0.35 50.27 2.31C52.73 4.31 54.15 7.31 54.15 10.48L54.15 45.81L89.56 45.81C92.73 45.81 95.69 47.23 97.73 49.69C99.69 52.06 100.44 55.15 99.85 58.1C96.81 73.15 86.77 86.56 73.02 93.98C65.6 97.98 57.69 99.98 49.65 99.98L49.6 99.98ZM43.85 4.15C43.48 4.15 43.1 4.15 42.69 4.27C28.81 7.06 16.48 16.31 9.65 28.98C3.15 41.02 2.4 54.69 7.56 67.48C12.1 78.77 21.19 87.85 32.48 92.4C45.27 97.56 58.94 96.81 71.02 90.31C83.73 83.48 92.98 71.15 95.77 57.27C96.1 55.52 95.65 53.73 94.52 52.31C93.31 50.81 91.52 49.98 89.6 49.98L52.06 49.98C50.9 49.98 49.98 49.06 49.98 47.9L49.98 10.44C49.98 8.52 49.15 6.73 47.65 5.52C46.56 4.6 45.23 4.15 43.85 4.15Z" fill="#FFFFFF" fill-opacity="1.000000" fill-rule="nonzero"/>
</symbol>

<!-- Budget icon -->
<symbol id='budget-icon' class='w-[50px] h-[50px] tablet:w-[100px] tablet:h-[100px]' viewBox="0 0 99.9958 100" fill="none" xmlns="http://www.w3.org/2000/svg" xmlns:xlink="http://www.w3.org/1999/xlink">
	<defs/>
	<path id="Vector" d="M99.99 85.41C99.99 93.45 93.45 100 85.41 100L14.58 100C6.54 100 0 93.45 0 85.41C0 79 4.17 73.53 9.94 71.59C10.86 72.82 11.83 74 12.86 75.14C7.93 75.96 4.17 80.25 4.17 85.41C4.17 91.16 8.84 95.83 14.58 95.83L85.41 95.83C91.15 95.83 95.82 91.16 95.82 85.41C95.82 80.25 92.05 75.96 87.13 75.14C88.15 74 89.13 72.82 90.05 71.59C95.82 73.53 99.99 79 99.99 85.41ZM43.74 62.5L47.91 62.5L47.91 70.83L52.08 70.83L52.08 62.5L56.24 62.5C61.98 62.5 66.66 57.82 66.66 52.08C66.66 46.37 62.57 41.57 56.93 40.67L43.71 38.55C40.11 37.96 37.49 34.89 37.49 31.25C37.49 27.8 40.3 25 43.74 25L56.24 25C59.69 25 62.49 27.8 62.49 31.25L62.49 33.33L66.66 33.33L66.66 31.25C66.66 25.5 61.98 20.83 56.24 20.83L52.08 20.83L52.08 12.5L47.91 12.5L47.91 20.83L43.74 20.83C38 20.83 33.33 25.5 33.33 31.25C33.33 36.95 37.41 41.75 43.05 42.66L56.27 44.78C59.88 45.36 62.49 48.43 62.49 52.08C62.49 55.52 59.69 58.33 56.24 58.33L43.74 58.33C40.3 58.33 37.49 55.52 37.49 52.08L37.49 50L33.33 50L33.33 52.08C33.33 57.82 38 62.5 43.74 62.5ZM8.33 41.66C8.33 18.69 27.02 0 49.99 0C72.97 0 91.66 18.69 91.66 41.66C91.66 64.64 72.97 83.33 49.99 83.33C27.02 83.33 8.33 64.64 8.33 41.66ZM12.49 41.66C12.49 62.34 29.32 79.16 49.99 79.16C70.67 79.16 87.49 62.34 87.49 41.66C87.49 20.98 70.67 4.16 49.99 4.16C29.32 4.16 12.49 20.98 12.49 41.66Z" fill="#FFFFFF" fill-opacity="1.000000" fill-rule="nonzero"/>
</symbol>

<!-- Pazzles icon -->
<symbol id='pazzles-icon' class='w-[50px] h-[50px] tablet:w-[100px] tablet:h-[100px]' viewBox="0 0 100 100" fill="none" xmlns="http://www.w3.org/2000/svg" xmlns:xlink="http://www.w3.org/1999/xlink">
	<defs/>
	<path id="Vector" d="M85.41 0L66.66 0C62.07 0 58.33 3.73 58.33 8.33L58.33 15.77C58.33 16.42 58.64 17.05 59.17 17.44C59.7 17.84 60.38 17.95 61.02 17.76C63.5 17 65.68 16.66 66.66 16.66C68.95 16.66 70.82 18.52 70.82 20.82C70.82 23.12 68.95 24.99 66.66 24.99C65.68 24.99 63.5 24.65 61.02 23.89C60.38 23.7 59.7 23.81 59.17 24.21C58.64 24.6 58.33 25.22 58.33 25.88L58.33 33.32C58.33 37.92 62.07 41.65 66.66 41.65L71.39 41.65C71.04 43.27 70.83 44.75 70.83 45.82C70.83 50.42 74.57 54.15 79.16 54.15C83.76 54.15 87.5 50.42 87.5 45.82C87.5 44.75 87.29 43.27 86.93 41.65L91.66 41.65C96.26 41.65 100 37.92 100 33.32L100 14.58C100 6.54 93.45 0 85.41 0ZM95.83 33.33C95.83 35.63 93.96 37.5 91.66 37.5L84.22 37.5C83.57 37.5 82.95 37.81 82.55 38.34C82.16 38.87 82.04 39.55 82.23 40.18C82.98 42.66 83.32 44.85 83.32 45.82C83.32 48.12 81.45 49.99 79.16 49.99C76.86 49.99 74.99 48.12 74.99 45.82C74.99 44.85 75.34 42.66 76.09 40.18C76.28 39.55 76.16 38.87 75.77 38.34C75.37 37.81 74.75 37.5 74.09 37.5L66.65 37.5C64.36 37.5 62.49 35.63 62.49 33.33L62.49 28.59C64.11 28.95 65.59 29.16 66.65 29.16C71.25 29.16 74.99 25.42 74.99 20.83C74.99 16.23 71.25 12.5 66.65 12.5C65.59 12.5 64.11 12.7 62.49 13.07L62.49 8.33C62.49 6.03 64.36 4.16 66.65 4.16L85.4 4.16C91.14 4.16 95.82 8.83 95.82 14.58L95.82 33.33L95.83 33.33ZM70.83 58.33L63.39 58.33C62.73 58.33 62.11 58.64 61.72 59.17C61.32 59.7 61.2 60.39 61.39 61.02C62.15 63.5 62.49 65.68 62.49 66.66C62.49 68.96 60.62 70.82 58.32 70.82C56.03 70.82 54.16 68.96 54.16 66.66C54.16 65.68 54.5 63.49 55.25 61.02C55.45 60.39 55.33 59.7 54.93 59.17C54.54 58.64 53.92 58.33 53.26 58.33L41.65 58.33L41.65 29.16C41.65 24.57 37.92 20.83 33.32 20.83L14.58 20.83C6.54 20.83 0 27.37 0 35.41L0 85.41C0 93.45 6.54 100 14.58 100L64.58 100C72.62 100 79.16 93.45 79.16 85.41L79.16 66.66C79.16 62.07 75.42 58.33 70.83 58.33ZM4.16 35.41C4.16 29.67 8.84 25 14.58 25L33.33 25C35.62 25 37.5 26.86 37.5 29.16L37.5 58.33L28.6 58.33C28.95 56.71 29.16 55.23 29.16 54.16C29.16 49.57 25.42 45.83 20.83 45.83C16.23 45.83 12.5 49.57 12.5 54.16C12.5 55.23 12.7 56.71 13.06 58.33L4.16 58.33L4.16 35.41ZM37.5 95.83L14.58 95.83C8.84 95.83 4.16 91.16 4.16 85.41L4.16 62.5L15.77 62.5C16.42 62.5 17.04 62.18 17.44 61.65C17.83 61.12 17.95 60.44 17.76 59.81C17.01 57.33 16.67 55.15 16.67 54.17C16.67 51.87 18.54 50 20.83 50C23.13 50 25 51.87 25 54.17C25 55.15 24.65 57.33 23.9 59.81C23.71 60.44 23.83 61.12 24.22 61.65C24.62 62.18 25.24 62.5 25.9 62.5L37.5 62.5L37.5 71.4C35.88 71.04 34.4 70.83 33.34 70.83C28.74 70.83 25 74.57 25 79.16C25 83.76 28.74 87.5 33.34 87.5C34.4 87.5 35.88 87.29 37.5 86.92L37.5 95.83L37.5 95.83ZM75 85.41C75 91.16 70.32 95.83 64.58 95.83L41.66 95.83L41.66 84.22C41.66 83.57 41.35 82.94 40.82 82.55C40.29 82.15 39.6 82.04 38.97 82.23C36.5 82.99 34.31 83.33 33.33 83.33C31.04 83.33 29.17 81.47 29.17 79.17C29.17 76.87 31.04 75 33.33 75C34.31 75 36.5 75.34 38.97 76.1C39.6 76.29 40.29 76.17 40.82 75.78C41.35 75.39 41.66 74.77 41.66 74.11L41.66 62.5L50.56 62.5C50.2 64.12 50 65.6 50 66.67C50 71.27 53.73 75 58.33 75C62.92 75 66.66 71.27 66.66 66.67C66.66 65.6 66.45 64.12 66.1 62.5L70.83 62.5C73.12 62.5 75 64.37 75 66.67L75 85.42L75 85.41Z" fill="#FFFFFF" fill-opacity="1.000000" fill-rule="nonzero"/>
</symbol>

<!-- Line icon -->
<symbol id='line-icon' width="453" height="183.016541" viewBox="0 0 423.004 183.017" fill="none" xmlns="http://www.w3.org/2000/svg" xmlns:xlink="http://www.w3.org/1999/xlink">
	<defs/>
	<path id="Line 2" d="M3 180L419.99 3" stroke="#FFFFFF" stroke-opacity="1.000000" stroke-width="6.000000" stroke-linecap="round" stroke-dasharray="36 36"/>
</symbol>

<!-- Line mobile icon -->
<symbol id='line-mobile-icon' width="74.946289" height="72.478104" viewBox="0 0 74.9463 72.4781" fill="none" xmlns="http://www.w3.org/2000/svg" xmlns:xlink="http://www.w3.org/1999/xlink">
	<defs/>
	<path id="Line 5" d="M73.44 1.5L1.5 70.97" stroke="#FFFFFF" stroke-opacity="1.000000" stroke-width="3.000000" stroke-linecap="round" stroke-dasharray="13 13"/>
</symbol>

<!-- Notebook icon -->
<symbol id="notebook-icon" viewBox="0 0 31 32" fill='white'  xmlns="http://www.w3.org/2000/svg" xmlns:xlink="http://www.w3.org/1999/xlink">
<path d="M21.708 12.292c0.093 0.093 0.167 0.203 0.217 0.325s0.076 0.252 0.076 0.383c0 0.132-0.026 0.262-0.076 0.383s-0.124 0.232-0.217 0.325l-6 6c-0.093 0.093-0.203 0.167-0.325 0.217s-0.252 0.076-0.383 0.076c-0.132 0-0.262-0.026-0.383-0.076s-0.232-0.124-0.325-0.217l-3-3c-0.093-0.093-0.167-0.203-0.217-0.325s-0.076-0.252-0.076-0.383c0-0.132 0.026-0.262 0.076-0.383s0.124-0.232 0.217-0.325c0.093-0.093 0.203-0.167 0.325-0.217s0.252-0.076 0.383-0.076 0.262 0.026 0.383 0.076c0.121 0.050 0.232 0.124 0.325 0.217l2.292 2.294 5.292-5.294c0.093-0.093 0.203-0.167 0.325-0.217s0.252-0.076 0.383-0.076c0.131 0 0.262 0.026 0.383 0.076s0.232 0.124 0.325 0.217z"></path>
<path d="M6 0h20c1.061 0 2.078 0.421 2.828 1.172s1.172 1.768 1.172 2.828v24c0 1.061-0.421 2.078-1.172 2.828s-1.768 1.172-2.828 1.172h-20c-1.061 0-2.078-0.421-2.828-1.172s-1.172-1.768-1.172-2.828v-2h2v2c0 0.53 0.211 1.039 0.586 1.414s0.884 0.586 1.414 0.586h20c0.53 0 1.039-0.211 1.414-0.586s0.586-0.884 0.586-1.414v-24c0-0.53-0.211-1.039-0.586-1.414s-0.884-0.586-1.414-0.586h-20c-0.53 0-1.039 0.211-1.414 0.586s-0.586 0.884-0.586 1.414v2h-2v-2c0-1.061 0.421-2.078 1.172-2.828s1.768-1.172 2.828-1.172z"></path>
<path d="M2 10v-1c0-0.265 0.105-0.52 0.293-0.707s0.442-0.293 0.707-0.293c0.265 0 0.52 0.105 0.707 0.293s0.293 0.442 0.293 0.707v1h1c0.265 0 0.52 0.105 0.707 0.293s0.293 0.442 0.293 0.707c0 0.265-0.105 0.52-0.293 0.707s-0.442 0.293-0.707 0.293h-4c-0.265 0-0.52-0.105-0.707-0.293s-0.293-0.442-0.293-0.707c0-0.265 0.105-0.52 0.293-0.707s0.442-0.293 0.707-0.293h1zM2 16v-1c0-0.265 0.105-0.52 0.293-0.707s0.442-0.293 0.707-0.293 0.52 0.105 0.707 0.293c0.188 0.187 0.293 0.442 0.293 0.707v1h1c0.265 0 0.52 0.105 0.707 0.293s0.293 0.442 0.293 0.707-0.105 0.52-0.293 0.707c-0.188 0.188-0.442 0.293-0.707 0.293h-4c-0.265 0-0.52-0.105-0.707-0.293s-0.293-0.442-0.293-0.707 0.105-0.52 0.293-0.707c0.188-0.188 0.442-0.293 0.707-0.293h1zM2 22v-1c0-0.265 0.105-0.52 0.293-0.707s0.442-0.293 0.707-0.293 0.52 0.105 0.707 0.293c0.188 0.187 0.293 0.442 0.293 0.707v1h1c0.265 0 0.52 0.105 0.707 0.293s0.293 0.442 0.293 0.707-0.105 0.52-0.293 0.707c-0.188 0.188-0.442 0.293-0.707 0.293h-4c-0.265 0-0.52-0.105-0.707-0.293s-0.293-0.442-0.293-0.707 0.105-0.52 0.293-0.707c0.188-0.188 0.442-0.293 0.707-0.293h1z"></path>
</symbol>

<!-- Settings icon -->
<symbol id="settings-icon" viewBox="0 0 32 32" fill='white'  xmlns="http://www.w3.org/2000/svg" xmlns:xlink="http://www.w3.org/1999/xlink">
<path d="M28.734 19.652l-0.070-0.694-0.021 0.001-0.024 0.004 0.115 0.689zM28.734 19.652l0.070 0.696 0.024-0.003 0.022-0.004-0.116-0.689zM23.090 27.31l0.443-0.541-0.007-0.004-0.436 0.545zM23.090 27.31l-0.443 0.541 0.007 0.006 0.436-0.546zM10.244 27.31l-0.443-0.539-0.010 0.008-0.011 0.010 0.464 0.521zM10.244 27.31l0.443 0.542 0.011-0.010 0.010-0.008-0.464-0.524zM4.6 13.684v-0.698h-0.034l-0.035 0.003 0.068 0.696zM4.6 13.684v0.699h0.035l0.035-0.004-0.070-0.694zM20.344 4.53c-0.021-0.253-0.050-0.506-0.088-0.757-0.032-0.222-0.099-0.438-0.198-0.64l-1.242 0.641c0.014 0.028 0.038 0.084 0.061 0.229 0.027 0.154 0.046 0.353 0.078 0.665l1.389-0.138zM20.618 6.21c-0.017-0.021-0.067-0.106-0.121-0.405-0.065-0.423-0.114-0.849-0.149-1.275l-1.391 0.138c0.056 0.56 0.102 1.024 0.166 1.384 0.063 0.352 0.161 0.711 0.385 1.006l1.111-0.848zM21.266 6.479c-0.122 0.016-0.246 0-0.36-0.047s-0.213-0.123-0.288-0.221l-1.112 0.847c0.224 0.294 0.523 0.524 0.864 0.665s0.715 0.19 1.082 0.141l-0.186-1.384zM22.646 5.483c-0.454 0.373-0.764 0.626-1.009 0.795-0.25 0.173-0.346 0.197-0.372 0.201l0.186 1.384c0.366-0.049 0.689-0.233 0.983-0.439 0.3-0.21 0.659-0.503 1.097-0.861l-0.886-1.081zM23.836 4.699c-0.224 0.071-0.412 0.184-0.591 0.312-0.173 0.123-0.37 0.285-0.599 0.472l0.886 1.081c0.242-0.198 0.398-0.325 0.524-0.415 0.063-0.050 0.132-0.091 0.207-0.12l-0.426-1.33zM25.307 4.771c-0.465-0.201-0.988-0.227-1.471-0.073l0.426 1.33c0.161-0.051 0.334-0.042 0.489 0.025l0.556-1.282zM26.413 5.671c-0.209-0.21-0.39-0.391-0.549-0.531-0.165-0.152-0.353-0.276-0.557-0.369l-0.556 1.282c0.029 0.013 0.082 0.042 0.194 0.14 0.116 0.101 0.258 0.243 0.481 0.465l0.988-0.988zM27.661 6.919l-1.247-1.247-0.988 0.988 1.247 1.247 0.988-0.988zM28.561 8.025c-0.093-0.204-0.218-0.392-0.37-0.557-0.14-0.159-0.321-0.339-0.529-0.549l-0.988 0.988c0.222 0.222 0.363 0.365 0.467 0.481 0.098 0.112 0.126 0.165 0.138 0.194l1.282-0.556zM28.633 9.496c0.155-0.483 0.129-1.006-0.073-1.471l-1.282 0.556c0.067 0.155 0.075 0.328 0.024 0.489l1.331 0.426zM27.849 10.686c0.187-0.229 0.349-0.426 0.472-0.599 0.126-0.179 0.24-0.367 0.312-0.591l-1.331-0.426c-0.029 0.075-0.069 0.144-0.119 0.207-0.133 0.179-0.271 0.353-0.415 0.524l1.081 0.886zM26.853 12.066c0.004-0.025 0.028-0.122 0.201-0.372 0.169-0.244 0.422-0.555 0.795-1.009l-1.081-0.886c-0.358 0.437-0.652 0.796-0.86 1.097-0.205 0.293-0.39 0.617-0.439 0.983l1.384 0.186zM27.122 12.715c-0.098-0.075-0.174-0.174-0.221-0.288s-0.063-0.238-0.047-0.36l-1.384-0.186c-0.049 0.366-0 0.739 0.141 1.081s0.371 0.639 0.665 0.864l0.847-1.111zM28.802 12.987c-0.585-0.059-0.982-0.098-1.275-0.151-0.299-0.054-0.384-0.105-0.405-0.122l-0.847 1.111c0.293 0.223 0.652 0.321 1.006 0.385 0.359 0.064 0.821 0.112 1.383 0.168l0.138-1.391zM30.199 13.275c-0.201-0.099-0.417-0.166-0.64-0.198-0.21-0.035-0.464-0.060-0.757-0.089l-0.14 1.39c0.313 0.032 0.513 0.052 0.666 0.078 0.079 0.009 0.156 0.030 0.229 0.061l0.641-1.242zM31.187 14.366c-0.187-0.471-0.537-0.859-0.988-1.091l-0.641 1.242c0.15 0.077 0.267 0.206 0.33 0.363l1.299-0.514zM31.333 15.784c0-0.295 0-0.55-0.014-0.763-0.009-0.224-0.054-0.445-0.133-0.655l-1.299 0.514c0.011 0.029 0.028 0.088 0.038 0.235 0.011 0.223 0.015 0.447 0.011 0.671l1.397-0.001zM31.333 17.549v-1.766h-1.397v1.766h1.397zM31.187 18.966c0.087-0.218 0.119-0.436 0.133-0.655 0.014-0.211 0.014-0.467 0.014-0.761h-1.397c0 0.313 0 0.514-0.011 0.669-0.001 0.080-0.013 0.159-0.038 0.235l1.299 0.513zM30.199 20.058c0.451-0.233 0.801-0.621 0.988-1.092l-1.299-0.513c-0.062 0.157-0.18 0.286-0.33 0.363l0.641 1.242zM28.802 20.346c0.293-0.029 0.549-0.056 0.757-0.091 0.216-0.035 0.43-0.089 0.638-0.196l-0.64-1.243c-0.073 0.032-0.15 0.053-0.229 0.061-0.154 0.027-0.353 0.046-0.665 0.078l0.138 1.39zM27.123 20.619c0.021-0.017 0.106-0.068 0.405-0.121 0.293-0.053 0.69-0.094 1.274-0.151l-0.138-1.39c-0.56 0.056-1.024 0.101-1.384 0.166-0.352 0.063-0.71 0.161-1.004 0.384l0.848 1.112zM26.853 21.267c-0.016-0.122 0-0.247 0.047-0.361s0.124-0.213 0.222-0.288l-0.848-1.112c-0.294 0.224-0.524 0.523-0.665 0.864s-0.19 0.715-0.141 1.082l1.384-0.186zM27.849 22.647c-0.276-0.327-0.541-0.663-0.795-1.009-0.173-0.249-0.197-0.347-0.201-0.372l-1.383 0.187c0.049 0.366 0.233 0.687 0.437 0.982 0.209 0.299 0.503 0.659 0.86 1.095l1.081-0.884zM28.633 23.837c-0.072-0.213-0.177-0.413-0.312-0.592-0.151-0.204-0.309-0.403-0.472-0.598l-1.081 0.884c0.198 0.243 0.325 0.398 0.415 0.525 0.050 0.062 0.090 0.131 0.119 0.205l1.331-0.425zM28.561 25.308c0.201-0.465 0.227-0.988 0.073-1.471l-1.331 0.425c0.052 0.161 0.043 0.335-0.024 0.49l1.282 0.556zM27.662 26.413c0.208-0.208 0.388-0.388 0.528-0.548 0.145-0.166 0.277-0.341 0.37-0.557l-1.282-0.556c-0.037 0.071-0.084 0.136-0.14 0.193-0.15 0.165-0.305 0.325-0.465 0.481l0.989 0.988zM26.413 27.662l1.249-1.249-0.989-0.988-1.247 1.249 0.988 0.988zM25.307 28.56c0.215-0.094 0.391-0.223 0.557-0.369 0.159-0.14 0.339-0.321 0.549-0.531l-0.988-0.986c-0.222 0.222-0.365 0.363-0.481 0.465-0.057 0.056-0.123 0.103-0.194 0.14l0.556 1.281zM23.836 28.634c0.483 0.154 1.006 0.128 1.471-0.074l-0.556-1.281c-0.155 0.067-0.328 0.075-0.489 0.024l-0.426 1.331zM22.646 27.849c0.229 0.187 0.426 0.349 0.599 0.472 0.179 0.127 0.367 0.242 0.591 0.313l0.426-1.331c-0.075-0.029-0.144-0.069-0.207-0.119-0.179-0.133-0.353-0.272-0.524-0.416l-0.886 1.081zM21.266 26.855c0.025 0.003 0.123 0.028 0.372 0.201 0.245 0.169 0.555 0.422 1.009 0.793l0.886-1.081c-0.437-0.356-0.796-0.651-1.097-0.861-0.293-0.204-0.617-0.388-0.983-0.437l-0.186 1.384zM20.618 27.123c0.075-0.098 0.174-0.174 0.288-0.221s0.238-0.063 0.36-0.047l0.186-1.384c-0.366-0.049-0.739-0.001-1.081 0.14s-0.64 0.371-0.864 0.664l1.111 0.848zM20.345 28.803c0.059-0.585 0.098-0.982 0.151-1.275 0.054-0.299 0.105-0.384 0.121-0.405l-1.111-0.848c-0.223 0.293-0.321 0.654-0.385 1.006-0.064 0.359-0.112 0.821-0.168 1.383l1.391 0.14zM20.058 30.2c0.108-0.209 0.161-0.423 0.197-0.64 0.036-0.21 0.061-0.464 0.091-0.757l-1.391-0.14c-0.019 0.223-0.044 0.445-0.077 0.666-0.009 0.079-0.030 0.156-0.061 0.229l1.242 0.641zM18.967 31.188c0.471-0.187 0.859-0.537 1.091-0.988l-1.242-0.641c-0.077 0.15-0.206 0.267-0.363 0.33l0.514 1.299zM17.549 31.335c0.295 0 0.55 0 0.763-0.014 0.218-0.014 0.437-0.046 0.655-0.133l-0.514-1.299c-0.076 0.024-0.155 0.037-0.235 0.038-0.154 0.011-0.356 0.011-0.67 0.011l0.001 1.397zM15.783 31.335h1.766l-0.001-1.397h-1.764v1.397zM14.365 31.188c0.219 0.087 0.437 0.119 0.657 0.133 0.211 0.014 0.467 0.014 0.761 0.014v-1.397c-0.313 0-0.514 0-0.669-0.011-0.080-0.001-0.159-0.013-0.235-0.038l-0.514 1.299zM13.274 30.2c0.232 0.45 0.62 0.801 1.091 0.988l0.514-1.299c-0.157-0.062-0.286-0.179-0.363-0.33l-1.242 0.641zM12.987 28.803c0.029 0.293 0.056 0.549 0.089 0.757 0.036 0.217 0.091 0.43 0.198 0.64l1.242-0.641c-0.032-0.073-0.053-0.15-0.061-0.229-0.033-0.221-0.059-0.443-0.078-0.665l-1.39 0.138zM12.714 27.123c0.017 0.021 0.067 0.106 0.122 0.405 0.053 0.293 0.092 0.692 0.151 1.275l1.39-0.138c-0.056-0.56-0.102-1.024-0.166-1.384-0.063-0.352-0.161-0.711-0.386-1.006l-1.111 0.848zM12.066 26.855c0.122-0.016 0.246-0 0.36 0.047s0.213 0.123 0.288 0.221l1.111-0.848c-0.224-0.294-0.522-0.522-0.864-0.663s-0.714-0.19-1.081-0.141l0.186 1.384zM10.686 27.851c0.454-0.373 0.764-0.626 1.009-0.795 0.25-0.173 0.346-0.198 0.372-0.201l-0.186-1.384c-0.366 0.049-0.689 0.233-0.983 0.439-0.3 0.208-0.659 0.503-1.097 0.861l0.886 1.081zM9.496 28.634c0.223-0.071 0.412-0.184 0.591-0.311 0.173-0.123 0.37-0.285 0.599-0.472l-0.886-1.081c-0.17 0.143-0.345 0.282-0.524 0.415-0.062 0.050-0.132 0.090-0.207 0.119l0.426 1.331zM8.025 28.563c0.465 0.201 0.988 0.226 1.471 0.071l-0.426-1.331c-0.161 0.051-0.334 0.043-0.489-0.024l-0.556 1.284zM6.918 27.662c0.21 0.21 0.39 0.391 0.549 0.531 0.165 0.144 0.342 0.277 0.557 0.37l0.556-1.284c-0.071-0.036-0.137-0.083-0.194-0.14-0.165-0.15-0.325-0.305-0.481-0.465l-0.988 0.988zM5.671 26.415l1.247 1.247 0.988-0.988-1.247-1.247-0.988 0.988zM4.771 25.308c0.094 0.215 0.225 0.391 0.37 0.557 0.14 0.159 0.321 0.339 0.529 0.549l0.988-0.988c-0.16-0.156-0.316-0.316-0.467-0.481-0.056-0.057-0.103-0.123-0.14-0.194l-1.281 0.556zM4.699 23.837c-0.155 0.483-0.129 1.006 0.073 1.471l1.281-0.556c-0.067-0.155-0.075-0.328-0.024-0.489l-1.33-0.426zM5.482 22.647c-0.187 0.229-0.349 0.426-0.472 0.599-0.134 0.179-0.239 0.379-0.311 0.591l1.33 0.426c0.029-0.075 0.070-0.144 0.12-0.207 0.089-0.126 0.217-0.282 0.415-0.524l-1.081-0.886zM6.478 21.267c-0.004 0.025-0.028 0.121-0.201 0.372-0.17 0.244-0.422 0.555-0.795 1.009l1.081 0.886c0.358-0.437 0.652-0.796 0.861-1.097 0.205-0.293 0.39-0.617 0.439-0.983l-1.384-0.186zM6.21 20.619c0.098 0.075 0.174 0.174 0.221 0.288s0.063 0.238 0.047 0.36l1.384 0.186c0.049-0.366 0-0.739-0.141-1.081s-0.371-0.64-0.665-0.864l-0.847 1.111zM4.53 20.348c0.585 0.057 0.982 0.096 1.275 0.149 0.299 0.054 0.384 0.105 0.405 0.121l0.847-1.112c-0.293-0.223-0.652-0.321-1.006-0.384-0.359-0.064-0.821-0.112-1.383-0.168l-0.138 1.393zM3.133 20.058c0.21 0.108 0.423 0.161 0.64 0.197 0.21 0.036 0.462 0.063 0.757 0.092l0.14-1.391c-0.223-0.019-0.445-0.045-0.666-0.078-0.079-0.009-0.156-0.030-0.229-0.061l-0.641 1.242zM2.145 18.966c0.186 0.472 0.537 0.86 0.988 1.092l0.641-1.242c-0.15-0.077-0.267-0.206-0.33-0.363l-1.299 0.513zM2 17.552c0 0.295 0 0.55 0.014 0.763 0.009 0.224 0.054 0.444 0.133 0.654l1.299-0.513c-0.024-0.076-0.037-0.155-0.038-0.235-0.010-0.223-0.014-0.447-0.011-0.671l-1.397 0.001zM2 15.787v1.766h1.397v-1.766h-1.397zM2.147 14.369c-0.079 0.211-0.123 0.432-0.133 0.657-0.014 0.211-0.014 0.467-0.014 0.761h1.397c0-0.313 0-0.514 0.011-0.669 0.001-0.080 0.013-0.159 0.038-0.235l-1.299-0.514zM3.134 13.278c-0.45 0.232-0.801 0.62-0.988 1.091l1.299 0.514c0.062-0.157 0.179-0.286 0.33-0.363l-0.641-1.242zM4.531 12.988c-0.293 0.029-0.549 0.057-0.757 0.091-0.222 0.032-0.438 0.099-0.64 0.198l0.641 1.242c0.028-0.014 0.084-0.038 0.229-0.061 0.154-0.027 0.353-0.046 0.665-0.078l-0.138-1.391zM6.212 12.717c-0.021 0.017-0.106 0.067-0.405 0.122-0.293 0.053-0.69 0.091-1.275 0.149l0.138 1.391c0.56-0.056 1.025-0.102 1.384-0.166 0.353-0.063 0.712-0.161 1.006-0.385l-0.848-1.111zM6.48 12.069c0.016 0.122 0 0.246-0.047 0.36s-0.123 0.213-0.221 0.288l0.848 1.111c0.294-0.224 0.523-0.522 0.664-0.864s0.19-0.716 0.141-1.082l-1.384 0.187zM5.484 10.688c0.373 0.455 0.626 0.766 0.796 1.010 0.173 0.25 0.196 0.346 0.2 0.372l1.384-0.187c-0.049-0.366-0.233-0.687-0.439-0.982-0.208-0.3-0.503-0.659-0.861-1.097l-1.081 0.884zM4.7 9.497c0.070 0.223 0.184 0.414 0.311 0.592 0.123 0.172 0.285 0.37 0.472 0.598l1.081-0.884c-0.143-0.171-0.282-0.346-0.415-0.525-0.050-0.062-0.091-0.131-0.12-0.205l-1.33 0.425zM4.773 8.028c-0.201 0.465-0.227 0.987-0.073 1.47l1.33-0.425c-0.051-0.161-0.042-0.334 0.025-0.489l-1.282-0.556zM5.672 6.921c-0.21 0.208-0.391 0.388-0.531 0.549-0.152 0.165-0.276 0.353-0.369 0.557l1.282 0.556c0.037-0.071 0.084-0.137 0.14-0.194 0.15-0.165 0.305-0.326 0.465-0.481l-0.988-0.988zM6.92 5.673l-1.247 1.249 0.988 0.988 1.247-1.249-0.988-0.988zM8.026 4.774c-0.204 0.093-0.392 0.217-0.557 0.369-0.159 0.14-0.341 0.32-0.549 0.529l0.988 0.988c0.222-0.221 0.365-0.363 0.481-0.465 0.112-0.098 0.165-0.126 0.194-0.14l-0.556-1.281zM9.497 4.7c-0.483-0.154-1.006-0.128-1.471 0.074l0.556 1.281c0.155-0.067 0.328-0.075 0.489-0.024l0.426-1.331zM10.687 5.485c-0.229-0.187-0.426-0.349-0.599-0.472-0.179-0.135-0.379-0.24-0.591-0.313l-0.426 1.331c0.075 0.029 0.144 0.069 0.207 0.119 0.126 0.091 0.282 0.218 0.525 0.416l0.884-1.081zM12.067 6.481c-0.025-0.004-0.122-0.028-0.372-0.201-0.345-0.254-0.682-0.518-1.009-0.795l-0.884 1.081c0.436 0.358 0.796 0.652 1.095 0.861 0.293 0.204 0.617 0.388 0.983 0.439l0.186-1.384zM12.716 6.212c-0.075 0.098-0.174 0.175-0.288 0.222s-0.238 0.064-0.36 0.047l-0.186 1.384c0.367 0.050 0.74-0 1.081-0.142s0.64-0.371 0.864-0.665l-1.112-0.848zM12.988 4.533c-0.059 0.584-0.098 0.982-0.151 1.274-0.054 0.299-0.105 0.384-0.122 0.405l1.112 0.848c0.223-0.293 0.321-0.652 0.384-1.006 0.064-0.359 0.112-0.821 0.168-1.383l-1.391-0.138zM13.276 3.136c-0.108 0.21-0.162 0.423-0.198 0.64-0.035 0.21-0.060 0.462-0.089 0.757l1.39 0.14c0.019-0.223 0.045-0.445 0.078-0.666 0.009-0.079 0.029-0.156 0.061-0.229l-1.242-0.641zM14.368 2.148c-0.472 0.187-0.86 0.537-1.092 0.988l1.242 0.641c0.077-0.15 0.206-0.267 0.363-0.33l-0.513-1.299zM15.785 2.001c-0.295 0-0.55 0-0.763 0.014-0.224 0.009-0.444 0.054-0.654 0.133l0.513 1.299c0.076-0.024 0.155-0.037 0.235-0.038 0.154-0.011 0.356-0.011 0.67-0.011l-0.001-1.397zM17.55 2.001h-1.766v1.397h1.766v-1.397zM18.968 2.148c-0.21-0.079-0.432-0.123-0.657-0.133-0.211-0.014-0.467-0.014-0.761-0.014v1.397c0.313 0 0.514 0 0.669 0.011 0.080 0.001 0.159 0.014 0.235 0.038l0.514-1.299zM20.059 3.136c-0.233-0.451-0.621-0.801-1.092-0.988l-0.513 1.299c0.157 0.062 0.286 0.179 0.363 0.33l1.242-0.641zM21.557 16.668c0 1.297-0.515 2.54-1.432 3.457s-2.161 1.432-3.457 1.432v1.397c1.667 0 3.266-0.662 4.445-1.841s1.841-2.778 1.841-4.445h-1.397zM16.667 11.779c1.297 0 2.54 0.515 3.457 1.432s1.432 2.161 1.432 3.457h1.397c0-1.667-0.662-3.266-1.841-4.445s-2.778-1.841-4.445-1.841v1.397zM11.778 16.668c0-1.297 0.515-2.54 1.432-3.457s2.16-1.432 3.457-1.432v-1.397c-1.667 0-3.266 0.662-4.445 1.841s-1.841 2.778-1.841 4.445h1.397zM16.667 21.557c-1.297 0-2.54-0.515-3.457-1.432s-1.432-2.161-1.432-3.457h-1.397c0 1.667 0.662 3.266 1.841 4.445s2.778 1.841 4.445 1.841v-1.397z"></path>
</symbol>

<!-- Wallet icon -->
<symbol id="wallet-icon" viewBox="0 0 32 32" stroke='white' xmlns="http://www.w3.org/2000/svg" xmlns:xlink="http://www.w3.org/1999/xlink">
<path stroke-linejoin="round" stroke-linecap="round" stroke-miterlimit="4" stroke-width="1.3333" d="M29.333 20.505v4.489c0 0.395-0.072 0.786-0.211 1.151s-0.344 0.696-0.601 0.975-0.563 0.501-0.9 0.652c-0.336 0.151-0.697 0.229-1.061 0.229h-21.121c-0.364 0-0.725-0.078-1.061-0.229s-0.642-0.373-0.9-0.652-0.462-0.611-0.601-0.975c-0.139-0.365-0.211-0.756-0.211-1.151v-17.987c-0-0.395 0.072-0.786 0.211-1.151s0.344-0.696 0.601-0.975c0.258-0.279 0.563-0.501 0.9-0.652s0.697-0.229 1.061-0.229h21.121c0.364 0 0.725 0.078 1.061 0.229s0.642 0.373 0.9 0.652c0.257 0.279 0.462 0.611 0.601 0.975s0.211 0.756 0.211 1.15v4.645"></path>
<path stroke-linejoin="round" stroke-linecap="round" stroke-miterlimit="4" stroke-width="1.3333" d="M29.927 20h-6.358c-0.947 0-1.855-0.421-2.524-1.171s-1.045-1.767-1.045-2.828c-0-0.525 0.092-1.045 0.272-1.531s0.442-0.926 0.774-1.298 0.725-0.666 1.158-0.867c0.433-0.201 0.897-0.305 1.366-0.305h6.358c0.408 0 0.739 0.371 0.739 0.829v6.344c0 0.457-0.331 0.828-0.739 0.828z"></path>
<path stroke-linejoin="round" stroke-linecap="round" stroke-miterlimit="4" stroke-width="0.8889" d="M24.306 17.918c0.996 0 1.803-0.807 1.803-1.803s-0.807-1.803-1.803-1.803c-0.996 0-1.803 0.807-1.803 1.803s0.807 1.803 1.803 1.803z"></path>
</symbol>

<!-- Stonks icon -->
<symbol id="stonks-icon" viewBox="0 0 32 32" fill='white'  xmlns="http://www.w3.org/2000/svg" xmlns:xlink="http://www.w3.org/1999/xlink">
<path d="M3.667 2.667c0-0.265-0.105-0.52-0.293-0.707s-0.442-0.293-0.707-0.293c-0.265 0-0.52 0.105-0.707 0.293s-0.293 0.442-0.293 0.707v13.409c0 3.079 0 5.491 0.253 7.373 0.259 1.925 0.8 3.445 1.992 4.639 1.193 1.193 2.713 1.733 4.64 1.992 1.881 0.253 4.293 0.253 7.372 0.253h13.409c0.265 0 0.52-0.105 0.707-0.293s0.293-0.442 0.293-0.707-0.105-0.52-0.293-0.707c-0.187-0.188-0.442-0.293-0.707-0.293h-13.333c-3.171 0-5.448-0.003-7.181-0.235-1.705-0.229-2.733-0.667-3.493-1.425-0.759-0.76-1.195-1.787-1.424-3.492-0.232-1.733-0.235-4.011-0.235-7.181v-13.333z"></path>
<path d="M26.117 9.955c0.084-0.103 0.148-0.221 0.186-0.348s0.051-0.261 0.037-0.393-0.054-0.26-0.118-0.377c-0.064-0.116-0.151-0.219-0.255-0.301s-0.224-0.144-0.352-0.179c-0.128-0.036-0.262-0.046-0.393-0.029s-0.259 0.059-0.374 0.125-0.216 0.155-0.297 0.26l-4.157 5.235c-0.327 0.412-0.541 0.68-0.719 0.875-0.173 0.191-0.253 0.244-0.291 0.264-0.139 0.074-0.293 0.114-0.45 0.117s-0.313-0.031-0.454-0.099c-0.037-0.017-0.12-0.067-0.303-0.249-0.184-0.187-0.411-0.447-0.755-0.844l-0.023-0.024c-0.316-0.365-0.587-0.677-0.827-0.917-0.245-0.262-0.534-0.48-0.853-0.644-0.425-0.204-0.892-0.305-1.364-0.295s-0.934 0.131-1.35 0.354c-0.313 0.177-0.592 0.407-0.827 0.68-0.227 0.251-0.484 0.573-0.785 0.953l-4.177 5.261c-0.087 0.102-0.153 0.221-0.194 0.349s-0.055 0.263-0.042 0.397c0.013 0.134 0.053 0.264 0.117 0.382s0.152 0.222 0.257 0.306c0.105 0.084 0.226 0.145 0.356 0.181s0.265 0.045 0.398 0.027c0.133-0.018 0.262-0.062 0.377-0.131s0.216-0.16 0.296-0.268l4.159-5.235c0.327-0.412 0.541-0.68 0.717-0.875 0.173-0.191 0.253-0.244 0.291-0.264 0.139-0.074 0.293-0.114 0.45-0.117s0.313 0.031 0.454 0.099c0.039 0.017 0.121 0.067 0.303 0.249 0.185 0.187 0.411 0.447 0.756 0.844l0.021 0.024c0.317 0.365 0.587 0.677 0.827 0.917 0.247 0.249 0.519 0.483 0.853 0.644 0.425 0.204 0.892 0.305 1.364 0.295s0.934-0.131 1.35-0.354c0.312-0.178 0.592-0.408 0.827-0.68 0.227-0.251 0.484-0.573 0.787-0.953l4.177-5.261z"></path>
</symbol>

<symbol id='back-to-icon' width="16" height="16" viewBox="0 0 16 16" fill="none" xmlns="http://www.w3.org/2000/svg">
      <path d="M12.6669 7.33344H5.22028L8.47361 4.08011C8.73361 3.82011 8.73361 3.39344 8.47361 3.13344C8.41193 3.07164 8.33867 3.0226 8.25803 2.98915C8.17738 2.9557 8.09092 2.93848 8.00361 2.93848C7.9163 2.93848 7.82984 2.9557 7.74919 2.98915C7.66854 3.0226 7.59528 3.07164 7.53361 3.13344L3.14028 7.52677C3.07847 7.58845 3.02944 7.66171 2.99599 7.74236C2.96253 7.823 2.94531 7.90946 2.94531 7.99677C2.94531 8.08408 2.96253 8.17054 2.99599 8.25119C3.02944 8.33184 3.07847 8.4051 3.14028 8.46677L7.53361 12.8601C7.59533 12.9218 7.6686 12.9708 7.74925 13.0042C7.82989 13.0376 7.91632 13.0548 8.00361 13.0548C8.0909 13.0548 8.17733 13.0376 8.25797 13.0042C8.33861 12.9708 8.41189 12.9218 8.47361 12.8601C8.53533 12.7984 8.58429 12.7251 8.61769 12.6445C8.6511 12.5638 8.66829 12.4774 8.66829 12.3901C8.66829 12.3028 8.6511 12.2164 8.61769 12.1357C8.58429 12.0551 8.53533 11.9818 8.47361 11.9201L5.22028 8.66677H12.6669C13.0336 8.66677 13.3336 8.36677 13.3336 8.00011C13.3336 7.63344 13.0336 7.33344 12.6669 7.33344Z" fill="#9C9C9C"/>
    </symbol>
</svg>
