<svg style='display: none;'>

<!-- Menu icon -->
    <symbol
      id='menu-icon'
      width='30.000000'
      height='22.000000'
      viewBox='0 0 30 22'
      fill='none'
      xmlns='http://www.w3.org/2000/svg'
      xmlns:xlink='http://www.w3.org/1999/xlink'
    >
      <defs />
      <rect
        id='Rectangle 5775'
        rx='1.000000'
        width='30.000000'
        height='2.000000'
        fill='#FFFFFF'
        fill-opacity='1.000000'
      />
      <rect
        id='Rectangle 5776'
        y='10.000000'
        rx='1.000000'
        width='30.000000'
        height='2.000000'
        fill='#FFFFFF'
        fill-opacity='1.000000'
      />
      <rect
        id='Rectangle 5777'
        y='20.000000'
        rx='1.000000'
        width='30.000000'
        height='2.000000'
        fill='#FFFFFF'
        fill-opacity='1.000000'
      />
    </symbol>


<!-- Close icon -->
    <symbol
      id='close-icon'
      width='16.000000'
      height='16.000000'
      viewBox='0 0 16 16'
      fill='none'
      xmlns='http://www.w3.org/2000/svg'
      xmlns:xlink='http://www.w3.org/1999/xlink'
    >
      <defs>
        <clipPath id='clip439_4762'>
          <rect
            id='mingcute:close-fill'
            width='16.000000'
            height='16.000000'
            fill='white'
            fill-opacity='0'
          />
        </clipPath>
      </defs>
      <rect
        id='mingcute:close-fill'
        width='16.000000'
        height='16.000000'
        fill='#FFFFFF'
        fill-opacity='0'
      />
      <g clip-path='url(#clip439_4762)'>
        <path
          id='Vector'
          d='M8 9.41L11.53 12.95C11.72 13.13 11.97 13.24 12.24 13.24C12.5 13.24 12.76 13.13 12.95 12.95C13.13 12.76 13.24 12.5 13.24 12.24C13.24 11.97 13.13 11.72 12.95 11.53L9.41 8L12.94 4.46C13.04 4.37 13.11 4.26 13.16 4.14C13.21 4.01 13.24 3.88 13.24 3.75C13.24 3.62 13.21 3.49 13.16 3.37C13.11 3.25 13.04 3.14 12.94 3.05C12.85 2.95 12.74 2.88 12.62 2.83C12.5 2.78 12.37 2.75 12.24 2.75C12.11 2.75 11.98 2.78 11.85 2.83C11.73 2.88 11.62 2.95 11.53 3.05L8 6.58L4.46 3.05C4.37 2.95 4.26 2.87 4.14 2.82C4.01 2.77 3.88 2.74 3.75 2.74C3.62 2.74 3.48 2.76 3.36 2.81C3.24 2.86 3.13 2.94 3.03 3.03C2.94 3.13 2.87 3.24 2.81 3.36C2.76 3.48 2.74 3.62 2.74 3.75C2.74 3.88 2.77 4.01 2.82 4.13C2.87 4.26 2.95 4.37 3.05 4.46L6.58 8L3.05 11.53C2.95 11.62 2.87 11.73 2.82 11.86C2.77 11.98 2.74 12.11 2.74 12.24C2.74 12.37 2.77 12.51 2.82 12.63C2.87 12.75 2.94 12.86 3.03 12.96C3.13 13.05 3.24 13.13 3.36 13.18C3.49 13.23 3.62 13.25 3.75 13.25C3.88 13.25 4.01 13.22 4.14 13.17C4.26 13.12 4.37 13.04 4.46 12.94L8 9.41L8 9.41Z'
          fill='#FFFFFF'
          fill-opacity='1.000000'
          fill-rule='evenodd'
        />
      </g>
    </symbol>


<!-- Logo icon -->
    <symbol
      id='logo-icon'
      viewBox='0 0 183 41'
      fill='none'
      xmlns='http://www.w3.org/2000/svg'
      xmlns:xlink='http://www.w3.org/1999/xlink'
      class='w-[151px] h-[34px] tablet:w-[183px] tablet:h-[41px]'
    >
      <path
        id='Logo'
        d='M135.28 31.87L130.21 31.87L130.21 20.2C130.21 19.54 130.09 18.95 129.86 18.43C129.63 17.9 129.33 17.44 128.94 17.07C128.55 16.69 128.09 16.4 127.55 16.21C127.03 16 126.46 15.9 125.85 15.9L116.97 15.9L116.97 31.87L111.89 31.87L111.89 13.35C111.89 13 111.96 12.67 112.09 12.38C112.22 12.07 112.4 11.8 112.63 11.58C112.87 11.35 113.14 11.16 113.45 11.03C113.77 10.9 114.1 10.84 114.45 10.84L125.89 10.84C126.53 10.84 127.2 10.91 127.9 11.05C128.62 11.2 129.32 11.43 130.01 11.75C130.71 12.07 131.38 12.47 132 12.96C132.64 13.44 133.2 14.03 133.68 14.73C134.18 15.42 134.57 16.22 134.85 17.12C135.14 18.03 135.28 19.06 135.28 20.2L135.28 31.87Z'
        fill='#FFFFFF'
        fill-opacity='1.000000'
        fill-rule='nonzero'
      />
      <path
        id='Logo'
        d='M105.41 6.52L100.33 6.52L100.33 1.95L105.41 1.95L105.41 6.52ZM105.41 31.87L100.33 31.87L100.33 10.84L105.41 10.84L105.41 31.87Z'
        fill='#FFFFFF'
        fill-opacity='1.000000'
        fill-rule='nonzero'
      />
      <path
        id='Logo'
        d='M92.86 20.47L76.81 20.47L76.81 15.37L92.86 15.37L92.86 20.47ZM95.12 9.03L74.78 9.03L74.78 31.87L69.7 31.87L69.7 6.52C69.7 6.17 69.76 5.84 69.89 5.53C70.02 5.22 70.2 4.94 70.42 4.71C70.66 4.48 70.93 4.3 71.24 4.17C71.55 4.04 71.89 3.97 72.26 3.97L95.12 3.97L95.12 9.03Z'
        fill='#B9F6B4'
        fill-opacity='1.000000'
        fill-rule='nonzero'
      />
      <path
        id='Logo'
        d='M62.69 33.89C62.69 34.76 62.58 35.54 62.36 36.23C62.14 36.93 61.84 37.54 61.48 38.06C61.12 38.59 60.69 39.04 60.21 39.4C59.73 39.78 59.22 40.08 58.69 40.31C58.17 40.55 57.64 40.72 57.11 40.82C56.57 40.94 56.07 41 55.58 41L46.43 41L46.43 35.94L55.58 35.94C56.26 35.94 56.77 35.76 57.11 35.41C57.45 35.06 57.61 34.56 57.61 33.89L57.61 10.84L62.69 10.84L62.69 33.89ZM55.58 31.87L46.43 31.87C45.7 31.87 44.92 31.75 44.08 31.5C43.26 31.25 42.49 30.85 41.78 30.29C41.06 29.72 40.47 28.99 40 28.1C39.53 27.19 39.3 26.08 39.3 24.77L39.3 10.84L44.38 10.84L44.38 24.77C44.38 25.43 44.55 25.94 44.9 26.29C45.25 26.64 45.78 26.81 46.47 26.81L55.58 26.81L55.58 31.87Z'
        fill='#FFFFFF'
        fill-opacity='1.000000'
        fill-rule='nonzero'
      />
      <path
        id='Logo'
        d='M32.58 31.87L27.47 31.87L27.47 15.26L18.47 31.03C18.25 31.44 17.93 31.74 17.53 31.95C17.14 32.16 16.72 32.26 16.26 32.26C15.82 32.26 15.4 32.16 15.01 31.95C14.63 31.74 14.33 31.44 14.11 31.03L5.07 15.26L5.07 31.87L0 31.87L0 6.13C0 5.55 0.16 5.03 0.5 4.57C0.85 4.12 1.31 3.82 1.87 3.66C2.14 3.6 2.42 3.58 2.69 3.6C2.96 3.62 3.22 3.67 3.47 3.78C3.73 3.87 3.97 4 4.17 4.19C4.38 4.35 4.56 4.56 4.7 4.81L16.26 24.83L27.82 4.81C28.12 4.32 28.53 3.97 29.05 3.76C29.58 3.55 30.14 3.52 30.71 3.66C31.26 3.82 31.71 4.12 32.06 4.57C32.41 5.03 32.58 5.55 32.58 6.13L32.58 31.87Z'
        fill='#B9F6B4'
        fill-opacity='1.000000'
        fill-rule='nonzero'
      />
      <path
        id='Logo'
        d='M164.5 32.24C172.16 32.24 178.37 26.06 178.37 18.42C178.37 10.79 172.16 4.6 164.5 4.6C156.84 4.6 150.63 10.79 150.63 18.42C150.63 26.06 156.84 32.24 164.5 32.24ZM164.5 36.85C174.71 36.85 183 28.6 183 18.42C183 8.25 174.71 0 164.5 0C154.29 0 146 8.25 146 18.42C146 28.6 154.29 36.85 164.5 36.85Z'
        fill='#B9F6B4'
        fill-opacity='1.000000'
        fill-rule='evenodd'
      />
      <path
        id='Logo'
        d='M169.12 18.42C169.12 20.97 167.05 23.03 164.5 23.03C161.95 23.03 159.88 20.97 159.88 18.42C159.88 15.88 161.95 13.82 164.5 13.82C167.05 13.82 169.12 15.88 169.12 18.42Z'
        fill='#B9F6B4'
        fill-opacity='1.000000'
        fill-rule='nonzero'
      />
    </symbol>

    <symbol id='eye-off-icon' width="24" height="24" viewBox="0 0 24 24" fill="none" xmlns="http://www.w3.org/2000/svg">
      <path d="M3 3L21 21M10.584 10.587C10.2087 10.962 9.99778 11.4707 9.99759 12.0013C9.9974 12.5318 10.208 13.0407 10.583 13.416C10.958 13.7913 11.4667 14.0022 11.9973 14.0024C12.5278 14.0026 13.0367 13.792 13.412 13.417M9.363 5.365C10.2204 5.11972 11.1082 4.99684 12 5C16 5 19.333 7.333 22 12C21.222 13.361 20.388 14.524 19.497 15.488M17.357 17.349C15.726 18.449 13.942 19 12 19C8 19 4.667 16.667 2 12C3.369 9.605 4.913 7.825 6.632 6.659" stroke="white" stroke-width="1.5" stroke-linecap="round" stroke-linejoin="round"/>
    </symbol>

    <symbol id='eye-icon' width="24" height="24" viewBox="0 0 24 24" fill="none" xmlns="http://www.w3.org/2000/svg">
      <path d="M12 14C13.1046 14 14 13.1046 14 12C14 10.8954 13.1046 10 12 10C10.8954 10 10 10.8954 10 12C10 13.1046 10.8954 14 12 14Z" stroke="white" stroke-width="1.5" stroke-linecap="round" stroke-linejoin="round"/>
      <path d="M22 12C19.333 16.667 16 19 12 19C8 19 4.667 16.667 2 12C4.667 7.333 8 5 12 5C16 5 19.333 7.333 22 12Z" stroke="white" stroke-width="1.5" stroke-linecap="round" stroke-linejoin="round"/>
    </symbol>

    <symbol id='form-ok-icon' width="24" height="24" viewBox="0 0 24 24" xmlns="http://www.w3.org/2000/svg">
      <circle cx="12" cy="12" r="11.5" fill="url(#paint0_linear_698_6740)" stroke="white"/>
      <path d="M10.0002 14.7998L7.66687 12.4665C7.60585 12.4047 7.53318 12.3557 7.45308 12.3222C7.37297 12.2888 7.28702 12.2715 7.2002 12.2715C7.11338 12.2715 7.02743 12.2888 6.94732 12.3222C6.86722 12.3557 6.79455 12.4047 6.73353 12.4665C6.67177 12.5275 6.62274 12.6002 6.58927 12.6803C6.55581 12.7604 6.53857 12.8464 6.53857 12.9332C6.53857 13.02 6.55581 13.1059 6.58927 13.1861C6.62274 13.2662 6.67177 13.3388 6.73353 13.3998L9.52687 16.1932C9.78687 16.4532 10.2069 16.4532 10.4669 16.1932L17.5335 9.13318C17.5953 9.07216 17.6443 8.99949 17.6778 8.91939C17.7113 8.83928 17.7285 8.75333 17.7285 8.66651C17.7285 8.57969 17.7113 8.49374 17.6778 8.41363C17.6443 8.33353 17.5953 8.26086 17.5335 8.19984C17.4725 8.13808 17.3999 8.08905 17.3197 8.05558C17.2396 8.02212 17.1537 8.00488 17.0669 8.00488C16.9801 8.00488 16.8941 8.02212 16.814 8.05558C16.7339 8.08905 16.6612 8.13808 16.6002 8.19984L10.0002 14.7998Z" fill="white"/>
      <defs>
        <linearGradient id="paint0_linear_698_6740" x1="37.0962" y1="90.5" x2="-40.6967" y2="63.33" gradientUnits="userSpaceOnUse">
        <stop stop-color="#A3E99D"/>
        <stop offset="0.421875" stop-color="#093423" stop-opacity="0.484375"/>
        <stop offset="0.911458" stop-color="#05A67B"/>
        <stop offset="0.9999" stop-color="#9BFFB6" stop-opacity="0.8217"/>
        <stop offset="1" stop-color="#44FFDD" stop-opacity="0.7"/>
        </linearGradient>
      </defs>
    </symbol>

    <symbol id='form-error-icon' width="24" height="24" viewBox="0 0 24 24" xmlns="http://www.w3.org/2000/svg">
      <circle cx="12" cy="12" r="11.5" fill="url(#paint0_linear_941_2202)" fill-opacity="0.82" stroke="white"/>
      <path d="M12 14.752C11.7973 14.752 11.6373 14.688 11.52 14.56C11.4133 14.432 11.3493 14.2507 11.328 14.016L10.848 7.904C10.816 7.50933 10.9013 7.19467 11.104 6.96C11.3067 6.71467 11.6053 6.592 12 6.592C12.384 6.592 12.672 6.71467 12.864 6.96C13.0667 7.19467 13.152 7.50933 13.12 7.904L12.64 14.016C12.6293 14.2507 12.5653 14.432 12.448 14.56C12.3413 14.688 12.192 14.752 12 14.752ZM12 18.08C11.6373 18.08 11.344 17.968 11.12 17.744C10.9067 17.52 10.8 17.232 10.8 16.88C10.8 16.5387 10.9067 16.2613 11.12 16.048C11.344 15.824 11.6373 15.712 12 15.712C12.3733 15.712 12.6613 15.824 12.864 16.048C13.0773 16.2613 13.184 16.5387 13.184 16.88C13.184 17.232 13.0773 17.52 12.864 17.744C12.6613 17.968 12.3733 18.08 12 18.08Z" fill="white"/>
      <defs>
      <linearGradient id="paint0_linear_941_2202" x1="6.51" y1="-3.6" x2="-3.3" y2="22.77" gradientUnits="userSpaceOnUse">
      <stop stop-color="#F9957F"/>
      <stop offset="0.465" stop-color="#FF7363"/>
      <stop offset="0.875" stop-color="#FF4444"/>
      </linearGradient>
      </defs>
    </symbol>

    <symbol id='google-icon' width="24" height="24" viewBox="0 0 24 24" fill="none" xmlns="http://www.w3.org/2000/svg">
      <path d="M12.2446 9.81836V14.4656H18.8347C18.5453 15.9602 17.6769 17.2257 16.3745 18.0766L20.3485 21.0984C22.664 19.0039 23.9998 15.9275 23.9998 12.273C23.9998 11.4221 23.9219 10.6039 23.7771 9.81849L12.2446 9.81836Z" fill="#4285F4"/>
      <path d="M5.3824 14.2842L4.4861 14.9566L1.31348 17.3783C3.32834 21.2946 7.45794 24.0001 12.2446 24.0001C15.5507 24.0001 18.3225 22.931 20.3485 21.0984L16.3745 18.0765C15.2835 18.7965 13.892 19.2329 12.2446 19.2329C9.06091 19.2329 6.35595 17.1275 5.38741 14.2911L5.3824 14.2842Z" fill="#34A853"/>
      <path d="M1.31346 6.62158C0.478619 8.23606 0 10.0579 0 11.9997C0 13.9415 0.478619 15.7633 1.31346 17.3778C1.31346 17.3886 5.38779 14.2796 5.38779 14.2796C5.14289 13.5596 4.99813 12.796 4.99813 11.9996C4.99813 11.2031 5.14289 10.4395 5.38779 9.71951L1.31346 6.62158Z" fill="#FBBC05"/>
      <path d="M12.2449 4.77817C14.0482 4.77817 15.6512 5.38906 16.9314 6.56726L20.4378 3.13094C18.3117 1.18916 15.5511 0 12.2449 0C7.4582 0 3.32834 2.69454 1.31348 6.62181L5.38768 9.71999C6.35609 6.88361 9.06116 4.77817 12.2449 4.77817Z" fill="#EA4335"/>
    </symbol>

    <symbol id='apple-icon' width="24" height="28" viewBox="0 0 24 28" fill="none" xmlns="http://www.w3.org/2000/svg">
      <g clip-path="url(#clip0_838_645)">
      <mask id="mask0_838_645" style="mask-type:luminance" maskUnits="userSpaceOnUse" x="0" y="0" width="24" height="28">
      <path d="M24 0H0V28H24V0Z" fill="white"/>
      </mask>
      <g mask="url(#mask0_838_645)">
      <path d="M12.3563 6.46152C13.6875 6.46152 15.3563 5.60707 16.3501 4.46791C17.2499 3.43545 17.9062 1.9936 17.9062 0.551746C17.9062 0.356041 17.8875 0.160189 17.8499 0C16.3688 0.0533474 14.5875 0.943451 13.5187 2.1361C12.675 3.04389 11.9062 4.46792 11.9062 5.9276C11.9062 6.14114 11.9437 6.35467 11.9626 6.426C12.0563 6.44368 12.2062 6.46152 12.3563 6.46152ZM7.6688 28C9.48752 28 10.2938 26.843 12.5626 26.843C14.8688 26.843 15.375 27.9643 17.4 27.9643C19.3875 27.9643 20.7187 26.2199 21.975 24.5111C23.3813 22.5531 23.9626 20.6307 24 20.5417C23.8688 20.506 20.0626 19.0287 20.0626 14.8811C20.0626 11.2855 23.0626 9.6656 23.2312 9.54107C21.2437 6.83539 18.225 6.76421 17.4 6.76421C15.1688 6.76421 13.3501 8.04573 12.2062 8.04573C10.9688 8.04573 9.33744 6.83539 7.40624 6.83539C3.7312 6.83539 0 9.71895 0 15.166C0 18.5479 1.38752 22.1259 3.09376 24.4399C4.55632 26.398 5.8312 28 7.6688 28Z" fill="white"/>
      </g>
      </g>
      <defs>
      <clipPath id="clip0_838_645">
      <rect width="24" height="28" fill="white"/>
      </clipPath>
      </defs>
    </symbol>
<!-- Logo footer icon -->
    <symbol id='logo-footer-icon' class='w-[62px] h-[14px] tablet:w-[186px] tablet:h-[60px]' viewBox="0 0 186 60" fill="none" xmlns="http://www.w3.org/2000/svg" xmlns:xlink="http://www.w3.org/1999/xlink">
	<defs/>
	<path id="MyFin" d="M30.42 44.5L35.54 44.5L35.54 18.66Q35.54 18.18 35.39 17.76Q35.26 17.41 35.01 17.09Q34.73 16.73 34.37 16.49Q34.05 16.28 33.67 16.17Q33.14 16.04 32.65 16.11Q32.33 16.15 32.02 16.27Q31.66 16.41 31.37 16.64Q31.02 16.92 30.78 17.33L19.21 37.42L7.65 17.33Q7.46 16.99 7.19 16.75Q7.16 16.72 7.12 16.69Q6.96 16.56 6.78 16.45Q6.61 16.35 6.43 16.28Q6.27 16.22 6.11 16.18Q5.88 16.12 5.64 16.11Q5.54 16.1 5.45 16.1Q5.13 16.1 4.82 16.17Q4.36 16.3 4 16.56Q3.7 16.78 3.46 17.09Q3.23 17.39 3.11 17.73Q2.94 18.16 2.94 18.66L2.94 44.5L8.02 44.5L8.02 27.82L17.07 43.66Q17.29 44.06 17.61 44.33Q17.78 44.47 17.97 44.57Q18.23 44.71 18.51 44.79Q18.85 44.89 19.21 44.89Q19.6 44.89 19.96 44.78Q20.24 44.71 20.49 44.57Q20.74 44.44 20.95 44.26Q21.23 44.01 21.42 43.66L30.42 27.82L30.42 44.5ZM77.84 21.57L98.2 21.57L98.2 16.49L75.32 16.49Q74.8 16.49 74.34 16.67Q74.32 16.68 74.31 16.68Q73.97 16.82 73.7 17.04Q73.6 17.13 73.5 17.23Q73.41 17.32 73.33 17.41Q73.11 17.7 72.96 18.05Q72.91 18.17 72.87 18.29Q72.77 18.65 72.77 19.05L72.77 44.5L77.84 44.5L77.84 21.57ZM79.87 33.05L95.93 33.05L95.93 27.93L79.87 27.93L79.87 33.05Z" fill="#B9F6B4" fill-opacity="0.250000" fill-rule="evenodd"/>
	<path id="MyFin" d="M103.41 19.05L108.49 19.05L108.49 14.46L103.41 14.46L103.41 19.05ZM49.49 44.5L58.65 44.5L58.65 39.42L49.52 39.42Q48.51 39.42 47.98 38.91Q47.97 38.9 47.96 38.89Q47.93 38.86 47.9 38.82Q47.43 38.3 47.43 37.37L47.43 23.38L42.36 23.38L42.36 37.37Q42.36 39.34 43.06 40.7Q43.76 42.05 44.84 42.9Q45.79 43.66 46.88 44.04Q47.01 44.08 47.15 44.12Q48.39 44.5 49.49 44.5ZM65.42 48.88Q65.76 47.83 65.76 46.53L65.76 23.38L60.68 23.38L60.68 46.53Q60.68 47.5 60.19 48.03Q60.18 48.04 60.17 48.05Q60.15 48.07 60.13 48.09Q59.62 48.58 58.65 48.58L49.49 48.58L49.49 53.66L58.65 53.66Q59.37 53.66 60.17 53.49Q60.97 53.32 61.76 52.97Q62.55 52.62 63.27 52.06Q64 51.51 64.54 50.72Q65.09 49.92 65.42 48.88ZM103.41 44.5L108.49 44.5L108.49 23.38L103.41 23.38L103.41 44.5ZM133.27 44.5L138.35 44.5L138.35 32.78Q138.35 31.06 137.92 29.69Q137.49 28.32 136.76 27.28Q136.02 26.23 135.08 25.5Q134.13 24.77 133.08 24.29Q132.04 23.81 130.98 23.6Q129.91 23.38 128.95 23.38L117.51 23.38Q117.12 23.38 116.76 23.49Q116.63 23.53 116.51 23.58Q116.16 23.72 115.88 23.95Q115.78 24.03 115.69 24.11Q115.56 24.25 115.44 24.4Q115.26 24.63 115.15 24.91Q115.11 24.99 115.09 25.06Q114.95 25.46 114.95 25.9L114.95 44.5L120.03 44.5L120.03 28.46L128.92 28.46Q129.83 28.46 130.62 28.76Q131.21 28.99 131.68 29.35Q131.85 29.48 132 29.63Q132.09 29.71 132.16 29.8Q132.64 30.31 132.93 30.99Q133.27 31.78 133.27 32.78L133.27 44.5Z" fill="#FFFFFF" fill-opacity="0.250000" fill-rule="evenodd"/>
	<path id="Vector" d="M186 30.5C186 40.71 177.71 49 167.5 49C157.28 49 149 40.71 149 30.5C149 20.28 157.28 12 167.5 12C177.71 12 186 20.28 186 30.5ZM181.37 30.5C181.37 38.16 175.16 44.37 167.5 44.37C159.83 44.37 153.62 38.16 153.62 30.5C153.62 22.83 159.83 16.62 167.5 16.62C175.16 16.62 181.37 22.83 181.37 30.5ZM167.5 35.12C170.05 35.12 172.12 33.05 172.12 30.5C172.12 27.94 170.05 25.87 167.5 25.87C164.94 25.87 162.87 27.94 162.87 30.5C162.87 33.05 164.94 35.12 167.5 35.12Z" fill="#B9F6B4" fill-opacity="0.250000" fill-rule="evenodd"/>
</symbol>

<!-- Coins icon -->
<symbol id="coins-icon" class='w-[40px] h-[40px] tablet:w-[90px] tablet:h-[90px]' viewBox="0 0 90 90" fill="none" xmlns="http://www.w3.org/2000/svg">
  <g>
    <path d="M61.87 0C46.1 0 33.75 7.41 33.75 16.87L33.75 26.57C31.93 26.36 30.05 26.25 28.12 26.25C12.35 26.25 0 33.66 0 43.12L0 73.12C0 82.58 12.35 90 28.12 90C40.93 90 51.49 85.11 55 78.2C57.24 78.52 59.52 78.75 61.87 78.75C77.64 78.75 90 71.33 90 61.87L90 16.87C90 7.41 77.64 0 61.87 0ZM61.87 7.5C73.67 7.5 82.5 12.45 82.5 16.87C82.5 21.3 73.67 26.25 61.87 26.25C50.07 26.25 41.25 21.3 41.25 16.87C41.25 12.45 50.07 7.5 61.87 7.5ZM28.12 33.75C39.92 33.75 48.75 38.7 48.75 43.12C48.75 47.55 39.92 52.5 28.12 52.5C16.32 52.5 7.5 47.55 7.5 43.12C7.5 38.7 16.32 33.75 28.12 33.75ZM7.5 54.68C12.6 57.96 19.88 60 28.12 60C36.36 60 43.64 57.96 48.75 54.68L48.75 58.12C48.75 62.55 39.92 67.5 28.12 67.5C16.32 67.5 7.5 62.55 7.5 58.12L7.5 54.68ZM28.12 82.5C16.32 82.5 7.5 77.55 7.5 73.12L7.5 69.68C12.6 72.96 19.88 75 28.12 75C36.36 75 43.64 72.96 48.75 69.68L48.75 73.12C48.75 77.55 39.92 82.5 28.12 82.5ZM61.87 71.25C59.94 71.25 58.08 71.07 56.25 70.81L56.25 63.39C58.09 63.6 59.96 63.75 61.87 63.75C70.11 63.75 77.39 61.71 82.5 58.43L82.5 61.87C82.5 66.3 73.67 71.25 61.87 71.25ZM61.87 56.25C59.94 56.25 58.08 56.07 56.25 55.81L56.25 48.39C58.09 48.6 59.96 48.75 61.87 48.75C70.11 48.75 77.39 46.71 82.5 43.43L82.5 46.87C82.5 51.3 73.67 56.25 61.87 56.25ZM61.87 41.25C59.84 41.25 57.87 41.05 55.95 40.77C55.21 37.44 52.92 34.45 49.5 32.07C53.22 33.13 57.4 33.75 61.87 33.75C70.11 33.75 77.39 31.71 82.5 28.43L82.5 31.87C82.5 36.3 73.67 41.25 61.87 41.25L61.87 41.25Z" fill="#7AFAC7" fill-opacity="0.83"/>
  </g>
</symbol>


<!-- Clock icon -->
<symbol id="clock-icon" class='w-[40px] h-[40px] tablet:w-[90px] tablet:h-[90px]' viewBox="0 0 90 90" fill="none" xmlns="http://www.w3.org/2000/svg">
  <g>
    <path d="M45 90C20.18 90 0 69.81 0 45C0 20.18 20.18 0 45 0C69.81 0 90 20.18 90 45C90 69.81 69.81 90 45 90ZM45 7.5C24.32 7.5 7.5 24.32 7.5 45C7.5 65.67 24.32 82.5 45 82.5C65.67 82.5 82.5 65.67 82.5 45C82.5 24.32 65.67 7.5 45 7.5ZM54.37 61.23C56.17 60.2 56.78 57.9 55.74 56.11L48.75 43.99L48.75 22.5C48.75 20.43 47.07 18.75 45 18.75C42.92 18.75 41.25 20.43 41.25 22.5L41.25 45C41.25 45.66 41.42 46.3 41.75 46.87L49.25 59.86C49.95 61.06 51.2 61.74 52.5 61.74C53.14 61.74 53.78 61.57 54.37 61.23Z" fill="#7AFAC7" fill-opacity="0.83"/>
  </g>
</symbol>


<!-- Graph icon -->
<symbol id="graph-icon" class='w-[40px] h-[40px] tablet:w-[90px] tablet:h-[90px]' viewBox="0 0 90 90" fill="none" xmlns="http://www.w3.org/2000/svg">
  <path id="Vector" d="M86.25 82.5L11.25 82.5C9.17 82.5 7.5 80.82 7.5 78.75L7.5 3.75C7.5 1.67 5.82 0 3.75 0C1.67 0 0 1.67 0 3.75L0 78.75C0 84.96 5.03 90 11.25 90L86.25 90C88.32 90 90 88.32 90 86.25C90 84.17 88.32 82.5 86.25 82.5Z" fill="#7AFAC7" fill-opacity="0.83" fill-rule="nonzero"/>
  <path id="Vector" d="M56.25 75C58.32 75 60 73.32 60 71.25L60 45C60 42.92 58.32 41.25 56.25 41.25C54.17 41.25 52.5 42.92 52.5 45L52.5 71.25C52.5 73.32 54.17 75 56.25 75Z" fill="#7AFAC7" fill-opacity="0.83" fill-rule="nonzero"/>
  <path id="Vector" d="M26.25 75C28.32 75 30 73.32 30 71.25L30 45C30 42.92 28.32 41.25 26.25 41.25C24.17 41.25 22.5 42.92 22.5 45L22.5 71.25C22.5 73.32 24.17 75 26.25 75Z" fill="#7AFAC7" fill-opacity="0.83" fill-rule="nonzero"/>
  <path id="Vector" d="M71.25 75C73.32 75 75 73.32 75 71.25L75 26.25C75 24.17 73.32 22.5 71.25 22.5C69.17 22.5 67.5 24.17 67.5 26.25L67.5 71.25C67.5 73.32 69.17 75 71.25 75Z" fill="#7AFAC7" fill-opacity="0.83" fill-rule="nonzero"/>
  <path id="Vector" d="M41.25 75C43.32 75 45 73.32 45 71.25L45 26.25C45 24.17 43.32 22.5 41.25 22.5C39.17 22.5 37.5 24.17 37.5 26.25L37.5 71.25C37.5 73.32 39.17 75 41.25 75Z" fill="#7AFAC7" fill-opacity="0.83" fill-rule="nonzero"/>
</symbol>

<!-- Notes icon -->
<symbol id="notes-icon" class='w-[50px] h-[50px] tablet:w-[100px] tablet:h-[100px]' viewBox="0 0 100 100" fill="none" xmlns="http://www.w3.org/2000/svg">
    <path id="Vector" d="M81.25 25L79.16 25L79.16 10.41C79.16 4.67 74.49 0 68.75 0L18.75 0C8.41 0 0 8.41 0 18.75L0 56.25C0 66.58 8.41 75 18.75 75L20.83 75L20.83 81.25C20.83 91.58 29.24 100 39.58 100L81.25 100C91.58 100 100 91.58 100 81.25L100 43.75C100 33.41 91.58 25 81.25 25ZM75 25L32.39 25L73.29 6.12C74.35 7.25 75 8.75 75 10.41L75 25ZM18.75 70.83C10.7 70.83 4.16 64.29 4.16 56.25L4.16 18.75C4.16 10.7 10.7 4.16 18.75 4.16L67.59 4.16L29.3 21.83C24.15 24.21 20.83 29.4 20.83 35.08L20.83 70.83L18.75 70.83ZM95.83 81.25C95.83 89.29 89.29 95.83 81.25 95.83L39.58 95.83C31.54 95.83 25 89.29 25 81.25L25 35.08C25 32.92 25.67 30.86 26.85 29.15C26.93 29.16 27 29.16 27.08 29.16L81.25 29.16C89.29 29.16 95.83 35.7 95.83 43.75L95.83 81.25ZM83.33 50C83.33 51.15 82.39 52.08 81.25 52.08L64.58 52.08C63.43 52.08 62.5 51.15 62.5 50C62.5 48.85 63.43 47.91 64.58 47.91L81.25 47.91C82.39 47.91 83.33 48.85 83.33 50ZM47.91 41.66L43.75 41.66C40.3 41.66 37.5 44.47 37.5 47.91L37.5 52.08C37.5 55.52 40.3 58.33 43.75 58.33L47.91 58.33C51.36 58.33 54.16 55.52 54.16 52.08L54.16 47.91C54.16 44.47 51.36 41.66 47.91 41.66ZM50 52.08C50 53.22 49.06 54.16 47.91 54.16L43.75 54.16C42.6 54.16 41.66 53.22 41.66 52.08L41.66 47.91C41.66 46.77 42.6 45.83 43.75 45.83L47.91 45.83C49.06 45.83 50 46.77 50 47.91L50 52.08ZM83.33 75C83.33 76.15 82.39 77.08 81.25 77.08L64.58 77.08C63.43 77.08 62.5 76.15 62.5 75C62.5 73.85 63.43 72.91 64.58 72.91L81.25 72.91C82.39 72.91 83.33 73.85 83.33 75ZM47.91 66.66L43.75 66.66C40.3 66.66 37.5 69.47 37.5 72.91L37.5 77.08C37.5 80.52 40.3 83.33 43.75 83.33L47.91 83.33C51.36 83.33 54.16 80.52 54.16 77.08L54.16 72.91C54.16 69.47 51.36 66.66 47.91 66.66ZM50 77.08C50 78.22 49.06 79.16 47.91 79.16L43.75 79.16C42.6 79.16 41.66 78.22 41.66 77.08L41.66 72.91C41.66 71.77 42.6 70.83 43.75 70.83L47.91 70.83C49.06 70.83 50 71.77 50 72.91L50 77.08Z" fill="#FFFFFF" fill-opacity="1" fill-rule="nonzero"/>
</symbol>

<!-- Statistic icon -->
<symbol id='statistic-icon' class='w-[50px] h-[50px] tablet:w-[100px] tablet:h-[100px]' viewBox="0 0 100.051 99.9844" fill="none" xmlns="http://www.w3.org/2000/svg" xmlns:xlink="http://www.w3.org/1999/xlink">
	<defs/>
	<path id="Vector" d="M49.6 99.98C43.31 99.98 37.02 98.77 30.9 96.27C18.56 91.31 8.65 81.35 3.69 69.02C-1.94 55.1 -1.1 40.19 5.98 27.02C13.4 13.23 26.81 3.23 41.85 0.19C44.81 -0.4 47.9 0.35 50.27 2.31C52.73 4.31 54.15 7.31 54.15 10.48L54.15 45.81L89.56 45.81C92.73 45.81 95.69 47.23 97.73 49.69C99.69 52.06 100.44 55.15 99.85 58.1C96.81 73.15 86.77 86.56 73.02 93.98C65.6 97.98 57.69 99.98 49.65 99.98L49.6 99.98ZM43.85 4.15C43.48 4.15 43.1 4.15 42.69 4.27C28.81 7.06 16.48 16.31 9.65 28.98C3.15 41.02 2.4 54.69 7.56 67.48C12.1 78.77 21.19 87.85 32.48 92.4C45.27 97.56 58.94 96.81 71.02 90.31C83.73 83.48 92.98 71.15 95.77 57.27C96.1 55.52 95.65 53.73 94.52 52.31C93.31 50.81 91.52 49.98 89.6 49.98L52.06 49.98C50.9 49.98 49.98 49.06 49.98 47.9L49.98 10.44C49.98 8.52 49.15 6.73 47.65 5.52C46.56 4.6 45.23 4.15 43.85 4.15Z" fill="#FFFFFF" fill-opacity="1.000000" fill-rule="nonzero"/>
</symbol>

<!-- Budget icon -->
<symbol id='budget-icon' class='w-[50px] h-[50px] tablet:w-[100px] tablet:h-[100px]' viewBox="0 0 99.9958 100" fill="none" xmlns="http://www.w3.org/2000/svg" xmlns:xlink="http://www.w3.org/1999/xlink">
	<defs/>
	<path id="Vector" d="M99.99 85.41C99.99 93.45 93.45 100 85.41 100L14.58 100C6.54 100 0 93.45 0 85.41C0 79 4.17 73.53 9.94 71.59C10.86 72.82 11.83 74 12.86 75.14C7.93 75.96 4.17 80.25 4.17 85.41C4.17 91.16 8.84 95.83 14.58 95.83L85.41 95.83C91.15 95.83 95.82 91.16 95.82 85.41C95.82 80.25 92.05 75.96 87.13 75.14C88.15 74 89.13 72.82 90.05 71.59C95.82 73.53 99.99 79 99.99 85.41ZM43.74 62.5L47.91 62.5L47.91 70.83L52.08 70.83L52.08 62.5L56.24 62.5C61.98 62.5 66.66 57.82 66.66 52.08C66.66 46.37 62.57 41.57 56.93 40.67L43.71 38.55C40.11 37.96 37.49 34.89 37.49 31.25C37.49 27.8 40.3 25 43.74 25L56.24 25C59.69 25 62.49 27.8 62.49 31.25L62.49 33.33L66.66 33.33L66.66 31.25C66.66 25.5 61.98 20.83 56.24 20.83L52.08 20.83L52.08 12.5L47.91 12.5L47.91 20.83L43.74 20.83C38 20.83 33.33 25.5 33.33 31.25C33.33 36.95 37.41 41.75 43.05 42.66L56.27 44.78C59.88 45.36 62.49 48.43 62.49 52.08C62.49 55.52 59.69 58.33 56.24 58.33L43.74 58.33C40.3 58.33 37.49 55.52 37.49 52.08L37.49 50L33.33 50L33.33 52.08C33.33 57.82 38 62.5 43.74 62.5ZM8.33 41.66C8.33 18.69 27.02 0 49.99 0C72.97 0 91.66 18.69 91.66 41.66C91.66 64.64 72.97 83.33 49.99 83.33C27.02 83.33 8.33 64.64 8.33 41.66ZM12.49 41.66C12.49 62.34 29.32 79.16 49.99 79.16C70.67 79.16 87.49 62.34 87.49 41.66C87.49 20.98 70.67 4.16 49.99 4.16C29.32 4.16 12.49 20.98 12.49 41.66Z" fill="#FFFFFF" fill-opacity="1.000000" fill-rule="nonzero"/>
</symbol>

<!-- Pazzles icon -->
<symbol id='pazzles-icon' class='w-[50px] h-[50px] tablet:w-[100px] tablet:h-[100px]' viewBox="0 0 100 100" fill="none" xmlns="http://www.w3.org/2000/svg" xmlns:xlink="http://www.w3.org/1999/xlink">
	<defs/>
	<path id="Vector" d="M85.41 0L66.66 0C62.07 0 58.33 3.73 58.33 8.33L58.33 15.77C58.33 16.42 58.64 17.05 59.17 17.44C59.7 17.84 60.38 17.95 61.02 17.76C63.5 17 65.68 16.66 66.66 16.66C68.95 16.66 70.82 18.52 70.82 20.82C70.82 23.12 68.95 24.99 66.66 24.99C65.68 24.99 63.5 24.65 61.02 23.89C60.38 23.7 59.7 23.81 59.17 24.21C58.64 24.6 58.33 25.22 58.33 25.88L58.33 33.32C58.33 37.92 62.07 41.65 66.66 41.65L71.39 41.65C71.04 43.27 70.83 44.75 70.83 45.82C70.83 50.42 74.57 54.15 79.16 54.15C83.76 54.15 87.5 50.42 87.5 45.82C87.5 44.75 87.29 43.27 86.93 41.65L91.66 41.65C96.26 41.65 100 37.92 100 33.32L100 14.58C100 6.54 93.45 0 85.41 0ZM95.83 33.33C95.83 35.63 93.96 37.5 91.66 37.5L84.22 37.5C83.57 37.5 82.95 37.81 82.55 38.34C82.16 38.87 82.04 39.55 82.23 40.18C82.98 42.66 83.32 44.85 83.32 45.82C83.32 48.12 81.45 49.99 79.16 49.99C76.86 49.99 74.99 48.12 74.99 45.82C74.99 44.85 75.34 42.66 76.09 40.18C76.28 39.55 76.16 38.87 75.77 38.34C75.37 37.81 74.75 37.5 74.09 37.5L66.65 37.5C64.36 37.5 62.49 35.63 62.49 33.33L62.49 28.59C64.11 28.95 65.59 29.16 66.65 29.16C71.25 29.16 74.99 25.42 74.99 20.83C74.99 16.23 71.25 12.5 66.65 12.5C65.59 12.5 64.11 12.7 62.49 13.07L62.49 8.33C62.49 6.03 64.36 4.16 66.65 4.16L85.4 4.16C91.14 4.16 95.82 8.83 95.82 14.58L95.82 33.33L95.83 33.33ZM70.83 58.33L63.39 58.33C62.73 58.33 62.11 58.64 61.72 59.17C61.32 59.7 61.2 60.39 61.39 61.02C62.15 63.5 62.49 65.68 62.49 66.66C62.49 68.96 60.62 70.82 58.32 70.82C56.03 70.82 54.16 68.96 54.16 66.66C54.16 65.68 54.5 63.49 55.25 61.02C55.45 60.39 55.33 59.7 54.93 59.17C54.54 58.64 53.92 58.33 53.26 58.33L41.65 58.33L41.65 29.16C41.65 24.57 37.92 20.83 33.32 20.83L14.58 20.83C6.54 20.83 0 27.37 0 35.41L0 85.41C0 93.45 6.54 100 14.58 100L64.58 100C72.62 100 79.16 93.45 79.16 85.41L79.16 66.66C79.16 62.07 75.42 58.33 70.83 58.33ZM4.16 35.41C4.16 29.67 8.84 25 14.58 25L33.33 25C35.62 25 37.5 26.86 37.5 29.16L37.5 58.33L28.6 58.33C28.95 56.71 29.16 55.23 29.16 54.16C29.16 49.57 25.42 45.83 20.83 45.83C16.23 45.83 12.5 49.57 12.5 54.16C12.5 55.23 12.7 56.71 13.06 58.33L4.16 58.33L4.16 35.41ZM37.5 95.83L14.58 95.83C8.84 95.83 4.16 91.16 4.16 85.41L4.16 62.5L15.77 62.5C16.42 62.5 17.04 62.18 17.44 61.65C17.83 61.12 17.95 60.44 17.76 59.81C17.01 57.33 16.67 55.15 16.67 54.17C16.67 51.87 18.54 50 20.83 50C23.13 50 25 51.87 25 54.17C25 55.15 24.65 57.33 23.9 59.81C23.71 60.44 23.83 61.12 24.22 61.65C24.62 62.18 25.24 62.5 25.9 62.5L37.5 62.5L37.5 71.4C35.88 71.04 34.4 70.83 33.34 70.83C28.74 70.83 25 74.57 25 79.16C25 83.76 28.74 87.5 33.34 87.5C34.4 87.5 35.88 87.29 37.5 86.92L37.5 95.83L37.5 95.83ZM75 85.41C75 91.16 70.32 95.83 64.58 95.83L41.66 95.83L41.66 84.22C41.66 83.57 41.35 82.94 40.82 82.55C40.29 82.15 39.6 82.04 38.97 82.23C36.5 82.99 34.31 83.33 33.33 83.33C31.04 83.33 29.17 81.47 29.17 79.17C29.17 76.87 31.04 75 33.33 75C34.31 75 36.5 75.34 38.97 76.1C39.6 76.29 40.29 76.17 40.82 75.78C41.35 75.39 41.66 74.77 41.66 74.11L41.66 62.5L50.56 62.5C50.2 64.12 50 65.6 50 66.67C50 71.27 53.73 75 58.33 75C62.92 75 66.66 71.27 66.66 66.67C66.66 65.6 66.45 64.12 66.1 62.5L70.83 62.5C73.12 62.5 75 64.37 75 66.67L75 85.42L75 85.41Z" fill="#FFFFFF" fill-opacity="1.000000" fill-rule="nonzero"/>
</symbol>

<!-- Line icon -->
<symbol id='line-icon' width="453" height="183.016541" viewBox="0 0 423.004 183.017" fill="none" xmlns="http://www.w3.org/2000/svg" xmlns:xlink="http://www.w3.org/1999/xlink">
	<defs/>
	<path id="Line 2" d="M3 180L419.99 3" stroke="#FFFFFF" stroke-opacity="1.000000" stroke-width="6.000000" stroke-linecap="round" stroke-dasharray="36 36"/>
</symbol>

<!-- Line mobile icon -->
<symbol id='line-mobile-icon' width="74.946289" height="72.478104" viewBox="0 0 74.9463 72.4781" fill="none" xmlns="http://www.w3.org/2000/svg" xmlns:xlink="http://www.w3.org/1999/xlink">
	<defs/>
	<path id="Line 5" d="M73.44 1.5L1.5 70.97" stroke="#FFFFFF" stroke-opacity="1.000000" stroke-width="3.000000" stroke-linecap="round" stroke-dasharray="13 13"/>
</symbol>

<!-- Notebook icon -->
<symbol id="notebook-icon" viewBox="0 0 31 32" fill='white'  xmlns="http://www.w3.org/2000/svg" xmlns:xlink="http://www.w3.org/1999/xlink">
<path d="M21.708 12.292c0.093 0.093 0.167 0.203 0.217 0.325s0.076 0.252 0.076 0.383c0 0.132-0.026 0.262-0.076 0.383s-0.124 0.232-0.217 0.325l-6 6c-0.093 0.093-0.203 0.167-0.325 0.217s-0.252 0.076-0.383 0.076c-0.132 0-0.262-0.026-0.383-0.076s-0.232-0.124-0.325-0.217l-3-3c-0.093-0.093-0.167-0.203-0.217-0.325s-0.076-0.252-0.076-0.383c0-0.132 0.026-0.262 0.076-0.383s0.124-0.232 0.217-0.325c0.093-0.093 0.203-0.167 0.325-0.217s0.252-0.076 0.383-0.076 0.262 0.026 0.383 0.076c0.121 0.050 0.232 0.124 0.325 0.217l2.292 2.294 5.292-5.294c0.093-0.093 0.203-0.167 0.325-0.217s0.252-0.076 0.383-0.076c0.131 0 0.262 0.026 0.383 0.076s0.232 0.124 0.325 0.217z"></path>
<path d="M6 0h20c1.061 0 2.078 0.421 2.828 1.172s1.172 1.768 1.172 2.828v24c0 1.061-0.421 2.078-1.172 2.828s-1.768 1.172-2.828 1.172h-20c-1.061 0-2.078-0.421-2.828-1.172s-1.172-1.768-1.172-2.828v-2h2v2c0 0.53 0.211 1.039 0.586 1.414s0.884 0.586 1.414 0.586h20c0.53 0 1.039-0.211 1.414-0.586s0.586-0.884 0.586-1.414v-24c0-0.53-0.211-1.039-0.586-1.414s-0.884-0.586-1.414-0.586h-20c-0.53 0-1.039 0.211-1.414 0.586s-0.586 0.884-0.586 1.414v2h-2v-2c0-1.061 0.421-2.078 1.172-2.828s1.768-1.172 2.828-1.172z"></path>
<path d="M2 10v-1c0-0.265 0.105-0.52 0.293-0.707s0.442-0.293 0.707-0.293c0.265 0 0.52 0.105 0.707 0.293s0.293 0.442 0.293 0.707v1h1c0.265 0 0.52 0.105 0.707 0.293s0.293 0.442 0.293 0.707c0 0.265-0.105 0.52-0.293 0.707s-0.442 0.293-0.707 0.293h-4c-0.265 0-0.52-0.105-0.707-0.293s-0.293-0.442-0.293-0.707c0-0.265 0.105-0.52 0.293-0.707s0.442-0.293 0.707-0.293h1zM2 16v-1c0-0.265 0.105-0.52 0.293-0.707s0.442-0.293 0.707-0.293 0.52 0.105 0.707 0.293c0.188 0.187 0.293 0.442 0.293 0.707v1h1c0.265 0 0.52 0.105 0.707 0.293s0.293 0.442 0.293 0.707-0.105 0.52-0.293 0.707c-0.188 0.188-0.442 0.293-0.707 0.293h-4c-0.265 0-0.52-0.105-0.707-0.293s-0.293-0.442-0.293-0.707 0.105-0.52 0.293-0.707c0.188-0.188 0.442-0.293 0.707-0.293h1zM2 22v-1c0-0.265 0.105-0.52 0.293-0.707s0.442-0.293 0.707-0.293 0.52 0.105 0.707 0.293c0.188 0.187 0.293 0.442 0.293 0.707v1h1c0.265 0 0.52 0.105 0.707 0.293s0.293 0.442 0.293 0.707-0.105 0.52-0.293 0.707c-0.188 0.188-0.442 0.293-0.707 0.293h-4c-0.265 0-0.52-0.105-0.707-0.293s-0.293-0.442-0.293-0.707 0.105-0.52 0.293-0.707c0.188-0.188 0.442-0.293 0.707-0.293h1z"></path>
</symbol>

<!-- Settings icon -->
<symbol id="settings-icon" viewBox="0 0 32 32" fill='white'  xmlns="http://www.w3.org/2000/svg" xmlns:xlink="http://www.w3.org/1999/xlink">
<path d="M28.734 19.652l-0.070-0.694-0.021 0.001-0.024 0.004 0.115 0.689zM28.734 19.652l0.070 0.696 0.024-0.003 0.022-0.004-0.116-0.689zM23.090 27.31l0.443-0.541-0.007-0.004-0.436 0.545zM23.090 27.31l-0.443 0.541 0.007 0.006 0.436-0.546zM10.244 27.31l-0.443-0.539-0.010 0.008-0.011 0.010 0.464 0.521zM10.244 27.31l0.443 0.542 0.011-0.010 0.010-0.008-0.464-0.524zM4.6 13.684v-0.698h-0.034l-0.035 0.003 0.068 0.696zM4.6 13.684v0.699h0.035l0.035-0.004-0.070-0.694zM20.344 4.53c-0.021-0.253-0.050-0.506-0.088-0.757-0.032-0.222-0.099-0.438-0.198-0.64l-1.242 0.641c0.014 0.028 0.038 0.084 0.061 0.229 0.027 0.154 0.046 0.353 0.078 0.665l1.389-0.138zM20.618 6.21c-0.017-0.021-0.067-0.106-0.121-0.405-0.065-0.423-0.114-0.849-0.149-1.275l-1.391 0.138c0.056 0.56 0.102 1.024 0.166 1.384 0.063 0.352 0.161 0.711 0.385 1.006l1.111-0.848zM21.266 6.479c-0.122 0.016-0.246 0-0.36-0.047s-0.213-0.123-0.288-0.221l-1.112 0.847c0.224 0.294 0.523 0.524 0.864 0.665s0.715 0.19 1.082 0.141l-0.186-1.384zM22.646 5.483c-0.454 0.373-0.764 0.626-1.009 0.795-0.25 0.173-0.346 0.197-0.372 0.201l0.186 1.384c0.366-0.049 0.689-0.233 0.983-0.439 0.3-0.21 0.659-0.503 1.097-0.861l-0.886-1.081zM23.836 4.699c-0.224 0.071-0.412 0.184-0.591 0.312-0.173 0.123-0.37 0.285-0.599 0.472l0.886 1.081c0.242-0.198 0.398-0.325 0.524-0.415 0.063-0.050 0.132-0.091 0.207-0.12l-0.426-1.33zM25.307 4.771c-0.465-0.201-0.988-0.227-1.471-0.073l0.426 1.33c0.161-0.051 0.334-0.042 0.489 0.025l0.556-1.282zM26.413 5.671c-0.209-0.21-0.39-0.391-0.549-0.531-0.165-0.152-0.353-0.276-0.557-0.369l-0.556 1.282c0.029 0.013 0.082 0.042 0.194 0.14 0.116 0.101 0.258 0.243 0.481 0.465l0.988-0.988zM27.661 6.919l-1.247-1.247-0.988 0.988 1.247 1.247 0.988-0.988zM28.561 8.025c-0.093-0.204-0.218-0.392-0.37-0.557-0.14-0.159-0.321-0.339-0.529-0.549l-0.988 0.988c0.222 0.222 0.363 0.365 0.467 0.481 0.098 0.112 0.126 0.165 0.138 0.194l1.282-0.556zM28.633 9.496c0.155-0.483 0.129-1.006-0.073-1.471l-1.282 0.556c0.067 0.155 0.075 0.328 0.024 0.489l1.331 0.426zM27.849 10.686c0.187-0.229 0.349-0.426 0.472-0.599 0.126-0.179 0.24-0.367 0.312-0.591l-1.331-0.426c-0.029 0.075-0.069 0.144-0.119 0.207-0.133 0.179-0.271 0.353-0.415 0.524l1.081 0.886zM26.853 12.066c0.004-0.025 0.028-0.122 0.201-0.372 0.169-0.244 0.422-0.555 0.795-1.009l-1.081-0.886c-0.358 0.437-0.652 0.796-0.86 1.097-0.205 0.293-0.39 0.617-0.439 0.983l1.384 0.186zM27.122 12.715c-0.098-0.075-0.174-0.174-0.221-0.288s-0.063-0.238-0.047-0.36l-1.384-0.186c-0.049 0.366-0 0.739 0.141 1.081s0.371 0.639 0.665 0.864l0.847-1.111zM28.802 12.987c-0.585-0.059-0.982-0.098-1.275-0.151-0.299-0.054-0.384-0.105-0.405-0.122l-0.847 1.111c0.293 0.223 0.652 0.321 1.006 0.385 0.359 0.064 0.821 0.112 1.383 0.168l0.138-1.391zM30.199 13.275c-0.201-0.099-0.417-0.166-0.64-0.198-0.21-0.035-0.464-0.060-0.757-0.089l-0.14 1.39c0.313 0.032 0.513 0.052 0.666 0.078 0.079 0.009 0.156 0.030 0.229 0.061l0.641-1.242zM31.187 14.366c-0.187-0.471-0.537-0.859-0.988-1.091l-0.641 1.242c0.15 0.077 0.267 0.206 0.33 0.363l1.299-0.514zM31.333 15.784c0-0.295 0-0.55-0.014-0.763-0.009-0.224-0.054-0.445-0.133-0.655l-1.299 0.514c0.011 0.029 0.028 0.088 0.038 0.235 0.011 0.223 0.015 0.447 0.011 0.671l1.397-0.001zM31.333 17.549v-1.766h-1.397v1.766h1.397zM31.187 18.966c0.087-0.218 0.119-0.436 0.133-0.655 0.014-0.211 0.014-0.467 0.014-0.761h-1.397c0 0.313 0 0.514-0.011 0.669-0.001 0.080-0.013 0.159-0.038 0.235l1.299 0.513zM30.199 20.058c0.451-0.233 0.801-0.621 0.988-1.092l-1.299-0.513c-0.062 0.157-0.18 0.286-0.33 0.363l0.641 1.242zM28.802 20.346c0.293-0.029 0.549-0.056 0.757-0.091 0.216-0.035 0.43-0.089 0.638-0.196l-0.64-1.243c-0.073 0.032-0.15 0.053-0.229 0.061-0.154 0.027-0.353 0.046-0.665 0.078l0.138 1.39zM27.123 20.619c0.021-0.017 0.106-0.068 0.405-0.121 0.293-0.053 0.69-0.094 1.274-0.151l-0.138-1.39c-0.56 0.056-1.024 0.101-1.384 0.166-0.352 0.063-0.71 0.161-1.004 0.384l0.848 1.112zM26.853 21.267c-0.016-0.122 0-0.247 0.047-0.361s0.124-0.213 0.222-0.288l-0.848-1.112c-0.294 0.224-0.524 0.523-0.665 0.864s-0.19 0.715-0.141 1.082l1.384-0.186zM27.849 22.647c-0.276-0.327-0.541-0.663-0.795-1.009-0.173-0.249-0.197-0.347-0.201-0.372l-1.383 0.187c0.049 0.366 0.233 0.687 0.437 0.982 0.209 0.299 0.503 0.659 0.86 1.095l1.081-0.884zM28.633 23.837c-0.072-0.213-0.177-0.413-0.312-0.592-0.151-0.204-0.309-0.403-0.472-0.598l-1.081 0.884c0.198 0.243 0.325 0.398 0.415 0.525 0.050 0.062 0.090 0.131 0.119 0.205l1.331-0.425zM28.561 25.308c0.201-0.465 0.227-0.988 0.073-1.471l-1.331 0.425c0.052 0.161 0.043 0.335-0.024 0.49l1.282 0.556zM27.662 26.413c0.208-0.208 0.388-0.388 0.528-0.548 0.145-0.166 0.277-0.341 0.37-0.557l-1.282-0.556c-0.037 0.071-0.084 0.136-0.14 0.193-0.15 0.165-0.305 0.325-0.465 0.481l0.989 0.988zM26.413 27.662l1.249-1.249-0.989-0.988-1.247 1.249 0.988 0.988zM25.307 28.56c0.215-0.094 0.391-0.223 0.557-0.369 0.159-0.14 0.339-0.321 0.549-0.531l-0.988-0.986c-0.222 0.222-0.365 0.363-0.481 0.465-0.057 0.056-0.123 0.103-0.194 0.14l0.556 1.281zM23.836 28.634c0.483 0.154 1.006 0.128 1.471-0.074l-0.556-1.281c-0.155 0.067-0.328 0.075-0.489 0.024l-0.426 1.331zM22.646 27.849c0.229 0.187 0.426 0.349 0.599 0.472 0.179 0.127 0.367 0.242 0.591 0.313l0.426-1.331c-0.075-0.029-0.144-0.069-0.207-0.119-0.179-0.133-0.353-0.272-0.524-0.416l-0.886 1.081zM21.266 26.855c0.025 0.003 0.123 0.028 0.372 0.201 0.245 0.169 0.555 0.422 1.009 0.793l0.886-1.081c-0.437-0.356-0.796-0.651-1.097-0.861-0.293-0.204-0.617-0.388-0.983-0.437l-0.186 1.384zM20.618 27.123c0.075-0.098 0.174-0.174 0.288-0.221s0.238-0.063 0.36-0.047l0.186-1.384c-0.366-0.049-0.739-0.001-1.081 0.14s-0.64 0.371-0.864 0.664l1.111 0.848zM20.345 28.803c0.059-0.585 0.098-0.982 0.151-1.275 0.054-0.299 0.105-0.384 0.121-0.405l-1.111-0.848c-0.223 0.293-0.321 0.654-0.385 1.006-0.064 0.359-0.112 0.821-0.168 1.383l1.391 0.14zM20.058 30.2c0.108-0.209 0.161-0.423 0.197-0.64 0.036-0.21 0.061-0.464 0.091-0.757l-1.391-0.14c-0.019 0.223-0.044 0.445-0.077 0.666-0.009 0.079-0.030 0.156-0.061 0.229l1.242 0.641zM18.967 31.188c0.471-0.187 0.859-0.537 1.091-0.988l-1.242-0.641c-0.077 0.15-0.206 0.267-0.363 0.33l0.514 1.299zM17.549 31.335c0.295 0 0.55 0 0.763-0.014 0.218-0.014 0.437-0.046 0.655-0.133l-0.514-1.299c-0.076 0.024-0.155 0.037-0.235 0.038-0.154 0.011-0.356 0.011-0.67 0.011l0.001 1.397zM15.783 31.335h1.766l-0.001-1.397h-1.764v1.397zM14.365 31.188c0.219 0.087 0.437 0.119 0.657 0.133 0.211 0.014 0.467 0.014 0.761 0.014v-1.397c-0.313 0-0.514 0-0.669-0.011-0.080-0.001-0.159-0.013-0.235-0.038l-0.514 1.299zM13.274 30.2c0.232 0.45 0.62 0.801 1.091 0.988l0.514-1.299c-0.157-0.062-0.286-0.179-0.363-0.33l-1.242 0.641zM12.987 28.803c0.029 0.293 0.056 0.549 0.089 0.757 0.036 0.217 0.091 0.43 0.198 0.64l1.242-0.641c-0.032-0.073-0.053-0.15-0.061-0.229-0.033-0.221-0.059-0.443-0.078-0.665l-1.39 0.138zM12.714 27.123c0.017 0.021 0.067 0.106 0.122 0.405 0.053 0.293 0.092 0.692 0.151 1.275l1.39-0.138c-0.056-0.56-0.102-1.024-0.166-1.384-0.063-0.352-0.161-0.711-0.386-1.006l-1.111 0.848zM12.066 26.855c0.122-0.016 0.246-0 0.36 0.047s0.213 0.123 0.288 0.221l1.111-0.848c-0.224-0.294-0.522-0.522-0.864-0.663s-0.714-0.19-1.081-0.141l0.186 1.384zM10.686 27.851c0.454-0.373 0.764-0.626 1.009-0.795 0.25-0.173 0.346-0.198 0.372-0.201l-0.186-1.384c-0.366 0.049-0.689 0.233-0.983 0.439-0.3 0.208-0.659 0.503-1.097 0.861l0.886 1.081zM9.496 28.634c0.223-0.071 0.412-0.184 0.591-0.311 0.173-0.123 0.37-0.285 0.599-0.472l-0.886-1.081c-0.17 0.143-0.345 0.282-0.524 0.415-0.062 0.050-0.132 0.090-0.207 0.119l0.426 1.331zM8.025 28.563c0.465 0.201 0.988 0.226 1.471 0.071l-0.426-1.331c-0.161 0.051-0.334 0.043-0.489-0.024l-0.556 1.284zM6.918 27.662c0.21 0.21 0.39 0.391 0.549 0.531 0.165 0.144 0.342 0.277 0.557 0.37l0.556-1.284c-0.071-0.036-0.137-0.083-0.194-0.14-0.165-0.15-0.325-0.305-0.481-0.465l-0.988 0.988zM5.671 26.415l1.247 1.247 0.988-0.988-1.247-1.247-0.988 0.988zM4.771 25.308c0.094 0.215 0.225 0.391 0.37 0.557 0.14 0.159 0.321 0.339 0.529 0.549l0.988-0.988c-0.16-0.156-0.316-0.316-0.467-0.481-0.056-0.057-0.103-0.123-0.14-0.194l-1.281 0.556zM4.699 23.837c-0.155 0.483-0.129 1.006 0.073 1.471l1.281-0.556c-0.067-0.155-0.075-0.328-0.024-0.489l-1.33-0.426zM5.482 22.647c-0.187 0.229-0.349 0.426-0.472 0.599-0.134 0.179-0.239 0.379-0.311 0.591l1.33 0.426c0.029-0.075 0.070-0.144 0.12-0.207 0.089-0.126 0.217-0.282 0.415-0.524l-1.081-0.886zM6.478 21.267c-0.004 0.025-0.028 0.121-0.201 0.372-0.17 0.244-0.422 0.555-0.795 1.009l1.081 0.886c0.358-0.437 0.652-0.796 0.861-1.097 0.205-0.293 0.39-0.617 0.439-0.983l-1.384-0.186zM6.21 20.619c0.098 0.075 0.174 0.174 0.221 0.288s0.063 0.238 0.047 0.36l1.384 0.186c0.049-0.366 0-0.739-0.141-1.081s-0.371-0.64-0.665-0.864l-0.847 1.111zM4.53 20.348c0.585 0.057 0.982 0.096 1.275 0.149 0.299 0.054 0.384 0.105 0.405 0.121l0.847-1.112c-0.293-0.223-0.652-0.321-1.006-0.384-0.359-0.064-0.821-0.112-1.383-0.168l-0.138 1.393zM3.133 20.058c0.21 0.108 0.423 0.161 0.64 0.197 0.21 0.036 0.462 0.063 0.757 0.092l0.14-1.391c-0.223-0.019-0.445-0.045-0.666-0.078-0.079-0.009-0.156-0.030-0.229-0.061l-0.641 1.242zM2.145 18.966c0.186 0.472 0.537 0.86 0.988 1.092l0.641-1.242c-0.15-0.077-0.267-0.206-0.33-0.363l-1.299 0.513zM2 17.552c0 0.295 0 0.55 0.014 0.763 0.009 0.224 0.054 0.444 0.133 0.654l1.299-0.513c-0.024-0.076-0.037-0.155-0.038-0.235-0.010-0.223-0.014-0.447-0.011-0.671l-1.397 0.001zM2 15.787v1.766h1.397v-1.766h-1.397zM2.147 14.369c-0.079 0.211-0.123 0.432-0.133 0.657-0.014 0.211-0.014 0.467-0.014 0.761h1.397c0-0.313 0-0.514 0.011-0.669 0.001-0.080 0.013-0.159 0.038-0.235l-1.299-0.514zM3.134 13.278c-0.45 0.232-0.801 0.62-0.988 1.091l1.299 0.514c0.062-0.157 0.179-0.286 0.33-0.363l-0.641-1.242zM4.531 12.988c-0.293 0.029-0.549 0.057-0.757 0.091-0.222 0.032-0.438 0.099-0.64 0.198l0.641 1.242c0.028-0.014 0.084-0.038 0.229-0.061 0.154-0.027 0.353-0.046 0.665-0.078l-0.138-1.391zM6.212 12.717c-0.021 0.017-0.106 0.067-0.405 0.122-0.293 0.053-0.69 0.091-1.275 0.149l0.138 1.391c0.56-0.056 1.025-0.102 1.384-0.166 0.353-0.063 0.712-0.161 1.006-0.385l-0.848-1.111zM6.48 12.069c0.016 0.122 0 0.246-0.047 0.36s-0.123 0.213-0.221 0.288l0.848 1.111c0.294-0.224 0.523-0.522 0.664-0.864s0.19-0.716 0.141-1.082l-1.384 0.187zM5.484 10.688c0.373 0.455 0.626 0.766 0.796 1.010 0.173 0.25 0.196 0.346 0.2 0.372l1.384-0.187c-0.049-0.366-0.233-0.687-0.439-0.982-0.208-0.3-0.503-0.659-0.861-1.097l-1.081 0.884zM4.7 9.497c0.070 0.223 0.184 0.414 0.311 0.592 0.123 0.172 0.285 0.37 0.472 0.598l1.081-0.884c-0.143-0.171-0.282-0.346-0.415-0.525-0.050-0.062-0.091-0.131-0.12-0.205l-1.33 0.425zM4.773 8.028c-0.201 0.465-0.227 0.987-0.073 1.47l1.33-0.425c-0.051-0.161-0.042-0.334 0.025-0.489l-1.282-0.556zM5.672 6.921c-0.21 0.208-0.391 0.388-0.531 0.549-0.152 0.165-0.276 0.353-0.369 0.557l1.282 0.556c0.037-0.071 0.084-0.137 0.14-0.194 0.15-0.165 0.305-0.326 0.465-0.481l-0.988-0.988zM6.92 5.673l-1.247 1.249 0.988 0.988 1.247-1.249-0.988-0.988zM8.026 4.774c-0.204 0.093-0.392 0.217-0.557 0.369-0.159 0.14-0.341 0.32-0.549 0.529l0.988 0.988c0.222-0.221 0.365-0.363 0.481-0.465 0.112-0.098 0.165-0.126 0.194-0.14l-0.556-1.281zM9.497 4.7c-0.483-0.154-1.006-0.128-1.471 0.074l0.556 1.281c0.155-0.067 0.328-0.075 0.489-0.024l0.426-1.331zM10.687 5.485c-0.229-0.187-0.426-0.349-0.599-0.472-0.179-0.135-0.379-0.24-0.591-0.313l-0.426 1.331c0.075 0.029 0.144 0.069 0.207 0.119 0.126 0.091 0.282 0.218 0.525 0.416l0.884-1.081zM12.067 6.481c-0.025-0.004-0.122-0.028-0.372-0.201-0.345-0.254-0.682-0.518-1.009-0.795l-0.884 1.081c0.436 0.358 0.796 0.652 1.095 0.861 0.293 0.204 0.617 0.388 0.983 0.439l0.186-1.384zM12.716 6.212c-0.075 0.098-0.174 0.175-0.288 0.222s-0.238 0.064-0.36 0.047l-0.186 1.384c0.367 0.050 0.74-0 1.081-0.142s0.64-0.371 0.864-0.665l-1.112-0.848zM12.988 4.533c-0.059 0.584-0.098 0.982-0.151 1.274-0.054 0.299-0.105 0.384-0.122 0.405l1.112 0.848c0.223-0.293 0.321-0.652 0.384-1.006 0.064-0.359 0.112-0.821 0.168-1.383l-1.391-0.138zM13.276 3.136c-0.108 0.21-0.162 0.423-0.198 0.64-0.035 0.21-0.060 0.462-0.089 0.757l1.39 0.14c0.019-0.223 0.045-0.445 0.078-0.666 0.009-0.079 0.029-0.156 0.061-0.229l-1.242-0.641zM14.368 2.148c-0.472 0.187-0.86 0.537-1.092 0.988l1.242 0.641c0.077-0.15 0.206-0.267 0.363-0.33l-0.513-1.299zM15.785 2.001c-0.295 0-0.55 0-0.763 0.014-0.224 0.009-0.444 0.054-0.654 0.133l0.513 1.299c0.076-0.024 0.155-0.037 0.235-0.038 0.154-0.011 0.356-0.011 0.67-0.011l-0.001-1.397zM17.55 2.001h-1.766v1.397h1.766v-1.397zM18.968 2.148c-0.21-0.079-0.432-0.123-0.657-0.133-0.211-0.014-0.467-0.014-0.761-0.014v1.397c0.313 0 0.514 0 0.669 0.011 0.080 0.001 0.159 0.014 0.235 0.038l0.514-1.299zM20.059 3.136c-0.233-0.451-0.621-0.801-1.092-0.988l-0.513 1.299c0.157 0.062 0.286 0.179 0.363 0.33l1.242-0.641zM21.557 16.668c0 1.297-0.515 2.54-1.432 3.457s-2.161 1.432-3.457 1.432v1.397c1.667 0 3.266-0.662 4.445-1.841s1.841-2.778 1.841-4.445h-1.397zM16.667 11.779c1.297 0 2.54 0.515 3.457 1.432s1.432 2.161 1.432 3.457h1.397c0-1.667-0.662-3.266-1.841-4.445s-2.778-1.841-4.445-1.841v1.397zM11.778 16.668c0-1.297 0.515-2.54 1.432-3.457s2.16-1.432 3.457-1.432v-1.397c-1.667 0-3.266 0.662-4.445 1.841s-1.841 2.778-1.841 4.445h1.397zM16.667 21.557c-1.297 0-2.54-0.515-3.457-1.432s-1.432-2.161-1.432-3.457h-1.397c0 1.667 0.662 3.266 1.841 4.445s2.778 1.841 4.445 1.841v-1.397z"></path>
</symbol>

<!-- Wallet icon -->
<symbol id="wallet-icon" viewBox="0 0 32 32" stroke='white' xmlns="http://www.w3.org/2000/svg" xmlns:xlink="http://www.w3.org/1999/xlink">
<path stroke-linejoin="round" stroke-linecap="round" stroke-miterlimit="4" stroke-width="1.3333" d="M29.333 20.505v4.489c0 0.395-0.072 0.786-0.211 1.151s-0.344 0.696-0.601 0.975-0.563 0.501-0.9 0.652c-0.336 0.151-0.697 0.229-1.061 0.229h-21.121c-0.364 0-0.725-0.078-1.061-0.229s-0.642-0.373-0.9-0.652-0.462-0.611-0.601-0.975c-0.139-0.365-0.211-0.756-0.211-1.151v-17.987c-0-0.395 0.072-0.786 0.211-1.151s0.344-0.696 0.601-0.975c0.258-0.279 0.563-0.501 0.9-0.652s0.697-0.229 1.061-0.229h21.121c0.364 0 0.725 0.078 1.061 0.229s0.642 0.373 0.9 0.652c0.257 0.279 0.462 0.611 0.601 0.975s0.211 0.756 0.211 1.15v4.645"></path>
<path stroke-linejoin="round" stroke-linecap="round" stroke-miterlimit="4" stroke-width="1.3333" d="M29.927 20h-6.358c-0.947 0-1.855-0.421-2.524-1.171s-1.045-1.767-1.045-2.828c-0-0.525 0.092-1.045 0.272-1.531s0.442-0.926 0.774-1.298 0.725-0.666 1.158-0.867c0.433-0.201 0.897-0.305 1.366-0.305h6.358c0.408 0 0.739 0.371 0.739 0.829v6.344c0 0.457-0.331 0.828-0.739 0.828z"></path>
<path stroke-linejoin="round" stroke-linecap="round" stroke-miterlimit="4" stroke-width="0.8889" d="M24.306 17.918c0.996 0 1.803-0.807 1.803-1.803s-0.807-1.803-1.803-1.803c-0.996 0-1.803 0.807-1.803 1.803s0.807 1.803 1.803 1.803z"></path>
</symbol>

<!-- Stonks icon -->
<symbol id="stonks-icon" viewBox="0 0 32 32" fill='white'  xmlns="http://www.w3.org/2000/svg" xmlns:xlink="http://www.w3.org/1999/xlink">
<path d="M3.667 2.667c0-0.265-0.105-0.52-0.293-0.707s-0.442-0.293-0.707-0.293c-0.265 0-0.52 0.105-0.707 0.293s-0.293 0.442-0.293 0.707v13.409c0 3.079 0 5.491 0.253 7.373 0.259 1.925 0.8 3.445 1.992 4.639 1.193 1.193 2.713 1.733 4.64 1.992 1.881 0.253 4.293 0.253 7.372 0.253h13.409c0.265 0 0.52-0.105 0.707-0.293s0.293-0.442 0.293-0.707-0.105-0.52-0.293-0.707c-0.187-0.188-0.442-0.293-0.707-0.293h-13.333c-3.171 0-5.448-0.003-7.181-0.235-1.705-0.229-2.733-0.667-3.493-1.425-0.759-0.76-1.195-1.787-1.424-3.492-0.232-1.733-0.235-4.011-0.235-7.181v-13.333z"></path>
<path d="M26.117 9.955c0.084-0.103 0.148-0.221 0.186-0.348s0.051-0.261 0.037-0.393-0.054-0.26-0.118-0.377c-0.064-0.116-0.151-0.219-0.255-0.301s-0.224-0.144-0.352-0.179c-0.128-0.036-0.262-0.046-0.393-0.029s-0.259 0.059-0.374 0.125-0.216 0.155-0.297 0.26l-4.157 5.235c-0.327 0.412-0.541 0.68-0.719 0.875-0.173 0.191-0.253 0.244-0.291 0.264-0.139 0.074-0.293 0.114-0.45 0.117s-0.313-0.031-0.454-0.099c-0.037-0.017-0.12-0.067-0.303-0.249-0.184-0.187-0.411-0.447-0.755-0.844l-0.023-0.024c-0.316-0.365-0.587-0.677-0.827-0.917-0.245-0.262-0.534-0.48-0.853-0.644-0.425-0.204-0.892-0.305-1.364-0.295s-0.934 0.131-1.35 0.354c-0.313 0.177-0.592 0.407-0.827 0.68-0.227 0.251-0.484 0.573-0.785 0.953l-4.177 5.261c-0.087 0.102-0.153 0.221-0.194 0.349s-0.055 0.263-0.042 0.397c0.013 0.134 0.053 0.264 0.117 0.382s0.152 0.222 0.257 0.306c0.105 0.084 0.226 0.145 0.356 0.181s0.265 0.045 0.398 0.027c0.133-0.018 0.262-0.062 0.377-0.131s0.216-0.16 0.296-0.268l4.159-5.235c0.327-0.412 0.541-0.68 0.717-0.875 0.173-0.191 0.253-0.244 0.291-0.264 0.139-0.074 0.293-0.114 0.45-0.117s0.313 0.031 0.454 0.099c0.039 0.017 0.121 0.067 0.303 0.249 0.185 0.187 0.411 0.447 0.756 0.844l0.021 0.024c0.317 0.365 0.587 0.677 0.827 0.917 0.247 0.249 0.519 0.483 0.853 0.644 0.425 0.204 0.892 0.305 1.364 0.295s0.934-0.131 1.35-0.354c0.312-0.178 0.592-0.408 0.827-0.68 0.227-0.251 0.484-0.573 0.787-0.953l4.177-5.261z"></path>
</symbol>

<symbol id='back-to-icon' width="16" height="16" viewBox="0 0 16 16" fill="none" xmlns="http://www.w3.org/2000/svg">
      <path d="M12.6669 7.33344H5.22028L8.47361 4.08011C8.73361 3.82011 8.73361 3.39344 8.47361 3.13344C8.41193 3.07164 8.33867 3.0226 8.25803 2.98915C8.17738 2.9557 8.09092 2.93848 8.00361 2.93848C7.9163 2.93848 7.82984 2.9557 7.74919 2.98915C7.66854 3.0226 7.59528 3.07164 7.53361 3.13344L3.14028 7.52677C3.07847 7.58845 3.02944 7.66171 2.99599 7.74236C2.96253 7.823 2.94531 7.90946 2.94531 7.99677C2.94531 8.08408 2.96253 8.17054 2.99599 8.25119C3.02944 8.33184 3.07847 8.4051 3.14028 8.46677L7.53361 12.8601C7.59533 12.9218 7.6686 12.9708 7.74925 13.0042C7.82989 13.0376 7.91632 13.0548 8.00361 13.0548C8.0909 13.0548 8.17733 13.0376 8.25797 13.0042C8.33861 12.9708 8.41189 12.9218 8.47361 12.8601C8.53533 12.7984 8.58429 12.7251 8.61769 12.6445C8.6511 12.5638 8.66829 12.4774 8.66829 12.3901C8.66829 12.3028 8.6511 12.2164 8.61769 12.1357C8.58429 12.0551 8.53533 11.9818 8.47361 11.9201L5.22028 8.66677H12.6669C13.0336 8.66677 13.3336 8.36677 13.3336 8.00011C13.3336 7.63344 13.0336 7.33344 12.6669 7.33344Z" fill="#9C9C9C"/>
    </symbol>
<!-- Magnifying glass icon -->
<symbol id="magnifying-glass-icon" fill='white' xmlns="http://www.w3.org/2000/svg" xmlns:xlink="http://www.w3.org/1999/xlink" viewBox="0 0 32 32">
<path d="M13.069 25.89c2.838 0 5.455-0.909 7.596-2.424l8.055 7.979c0.374 0.37 0.867 0.556 1.393 0.556 1.105 0 1.886-0.842 1.886-1.919 0-0.505-0.17-0.993-0.544-1.347l-8.004-7.945c1.682-2.188 2.685-4.899 2.685-7.844 0-7.12-5.88-12.945-13.068-12.945-7.172 0-13.069 5.807-13.069 12.945 0 7.12 5.88 12.945 13.069 12.945zM13.069 23.095c-5.608 0-10.248-4.596-10.248-10.15s4.639-10.15 10.248-10.15c5.608 0 10.248 4.595 10.248 10.15s-4.639 10.15-10.248 10.15z"></path>
</symbol>

<!-- Bell icon -->
<symbol id="bell-icon" stroke='white' xmlns="http://www.w3.org/2000/svg" xmlns:xlink="http://www.w3.org/1999/xlink" viewBox="0 0 30 32">
<path stroke-linejoin="round" stroke-linecap="round" stroke-miterlimit="4" stroke-width="2.2857" d="M19.428 25.143v1.143c0 1.212-0.482 2.375-1.339 3.232s-2.020 1.339-3.232 1.339c-1.212 0-2.375-0.482-3.232-1.339s-1.339-2.020-1.339-3.232v-1.143M27.12 22.816c-1.834-2.245-3.129-3.388-3.129-9.577 0-5.668-2.894-7.687-5.276-8.668-0.316-0.13-0.614-0.429-0.711-0.754-0.418-1.422-1.589-2.675-3.146-2.675s-2.729 1.254-3.143 2.676c-0.096 0.329-0.394 0.622-0.711 0.752-2.385 0.982-5.276 2.994-5.276 8.668-0.004 6.189-1.299 7.332-3.133 9.577-0.76 0.93-0.094 2.326 1.235 2.326h22.063c1.322 0 1.984-1.401 1.228-2.326z"></path>
</symbol>

<!-- Arrow icon -->
<symbol id="arrow-icon" stroke='white' fill='white' xmlns="http://www.w3.org/2000/svg" xmlns:xlink="http://www.w3.org/1999/xlink" viewBox="0 0 32 32">
<path d="M16.942 20.942c-0.25 0.25-0.589 0.39-0.943 0.39s-0.693-0.14-0.943-0.39l-7.543-7.543c-0.127-0.123-0.229-0.27-0.299-0.433s-0.107-0.338-0.108-0.515c-0.002-0.177 0.032-0.353 0.099-0.516s0.166-0.313 0.291-0.438c0.125-0.125 0.274-0.224 0.438-0.291s0.339-0.101 0.516-0.099c0.177 0.002 0.352 0.038 0.515 0.108s0.31 0.171 0.433 0.299l6.6 6.6 6.6-6.6c0.252-0.243 0.588-0.377 0.938-0.374s0.684 0.143 0.931 0.39 0.387 0.582 0.39 0.931c0.003 0.35-0.131 0.686-0.374 0.938l-7.543 7.543z"></path>
</symbol>

<!-- Car icon -->
<symbol id="car-icon" fill='white' xmlns="http://www.w3.org/2000/svg" xmlns:xlink="http://www.w3.org/1999/xlink" viewBox="0 0 32 32">
<path d="M11.875 22h8.25c0.138 0 0.25-0.113 0.25-0.25v-2.625c0-0.137-0.113-0.25-0.25-0.25h-1.25c-0.137 0-0.25 0.113-0.25 0.25v1.125h-5.25v-1.125c0-0.137-0.113-0.25-0.25-0.25h-1.25c-0.137 0-0.25 0.113-0.25 0.25v2.625c0 0.137 0.113 0.25 0.25 0.25zM22.5 18.156c0 0.332 0.132 0.649 0.366 0.884s0.552 0.366 0.884 0.366 0.649-0.132 0.884-0.366c0.234-0.235 0.366-0.552 0.366-0.884s-0.132-0.649-0.366-0.884c-0.235-0.234-0.552-0.366-0.884-0.366s-0.649 0.132-0.884 0.366c-0.235 0.234-0.366 0.552-0.366 0.884zM29.969 12.919l-0.741-1.294c-0.033-0.057-0.088-0.099-0.152-0.116s-0.132-0.008-0.189 0.025l-1.584 0.925-2.447-6.756c-0.129-0.403-0.383-0.755-0.725-1.004s-0.755-0.384-1.178-0.383h-13.541c-1.084 0-2.047 0.7-2.381 1.734l-2.331 6.412-1.587-0.925c-0.057-0.033-0.125-0.042-0.189-0.025s-0.118 0.059-0.152 0.116l-0.741 1.291c-0.069 0.119-0.028 0.269 0.091 0.338l1.888 1.1-0.453 1.25c-0.038 0.1-0.056 0.206-0.056 0.313v10.881c0 0.491 0.369 0.887 0.822 0.887h2.112c0.384 0 0.719-0.291 0.8-0.697l0.241-1.178h17.050l0.241 1.178c0.084 0.406 0.416 0.697 0.8 0.697h2.113c0.453 0 0.822-0.397 0.822-0.887v-10.881c0-0.106-0.019-0.213-0.056-0.313l-0.453-1.25 1.884-1.1c0.057-0.033 0.098-0.086 0.116-0.15s0.010-0.131-0.022-0.188zM26.25 16.156v7.406h-20.5v-7.406l0.487-1.344h19.525l0.487 1.344zM9.147 6.816l0.016-0.041 0.012-0.041c0.034-0.103 0.128-0.172 0.238-0.172h13.363l2.356 6.5h-18.256l2.272-6.247zM7 18.156c0 0.332 0.132 0.649 0.366 0.884s0.552 0.366 0.884 0.366 0.649-0.132 0.884-0.366c0.234-0.235 0.366-0.552 0.366-0.884s-0.132-0.649-0.366-0.884c-0.234-0.234-0.552-0.366-0.884-0.366s-0.649 0.132-0.884 0.366c-0.234 0.234-0.366 0.552-0.366 0.884z"></path>
</symbol>

<!-- Apple icon -->
<symbol id="apple2-icon" fill='white' viewBox="0 0 18 18" xmlns="http://www.w3.org/2000/svg" xmlns:xlink="http://www.w3.org/1999/xlink">
<path d="M6.29769 8.42625C6.44399 8.39701 6.57269 8.31085 6.65546 8.18672C6.73823 8.0626 6.76831 7.91067 6.73907 7.76437C6.70983 7.61807 6.62367 7.48938 6.49954 7.40661C6.37542 7.32383 6.22349 7.29376 6.07719 7.323C5.39994 7.458 4.88844 7.932 4.61619 8.56725C4.34619 9.19575 4.30644 9.98175 4.51719 10.8232C4.53365 10.8964 4.56456 10.9655 4.60811 11.0265C4.65166 11.0875 4.70696 11.1392 4.77077 11.1786C4.83458 11.2179 4.90561 11.2441 4.97969 11.2556C5.05377 11.2671 5.1294 11.2637 5.20213 11.2455C5.27487 11.2274 5.34324 11.1949 5.40324 11.1499C5.46323 11.105 5.51364 11.0485 5.55149 10.9838C5.58935 10.9191 5.61388 10.8475 5.62366 10.7731C5.63344 10.6988 5.62827 10.6233 5.60844 10.551C5.44344 9.8925 5.49744 9.366 5.64969 9.0105C5.79969 8.661 6.03819 8.47875 6.29769 8.42625ZM4.10319 2.56425C4.07119 3.09673 4.14916 3.63009 4.33226 4.13112C4.51536 4.63215 4.79965 5.09012 5.16744 5.4765C4.45296 5.68135 3.81329 6.08915 3.32604 6.65043C2.83878 7.2117 2.52489 7.90232 2.42244 8.6385C2.17558 10.4049 2.538 12.2027 3.44994 13.7355L3.71244 14.178C3.72239 14.1943 3.73316 14.21 3.74469 14.2252L4.80669 15.6547C5.03163 15.9577 5.3199 16.208 5.65144 16.3882C5.98297 16.5684 6.3498 16.6742 6.72638 16.6982C7.10296 16.7222 7.48025 16.6638 7.83196 16.5271C8.18368 16.3904 8.50138 16.1787 8.76294 15.9067C8.79353 15.8749 8.83021 15.8496 8.87081 15.8324C8.91141 15.8151 8.95507 15.8062 8.99919 15.8062C9.04332 15.8062 9.08698 15.8151 9.12758 15.8324C9.16817 15.8496 9.20486 15.8749 9.23544 15.9067C9.49701 16.1787 9.8147 16.3904 10.1664 16.5271C10.5181 16.6638 10.8954 16.7222 11.272 16.6982C11.6486 16.6742 12.0154 16.5684 12.347 16.3882C12.6785 16.208 12.9668 15.9577 13.1917 15.6547L14.2537 14.2245C14.265 14.2093 14.2755 14.1935 14.2852 14.1772L14.5484 13.7347C15.461 12.2024 15.8242 10.4049 15.5782 8.6385C15.5056 8.11801 15.3269 7.61796 15.0532 7.16932C14.7795 6.72068 14.4167 6.33299 13.9871 6.03025C13.5575 5.72751 13.0704 5.51617 12.5558 5.40931C12.0413 5.30245 11.5103 5.30234 10.9957 5.409L9.56994 5.7045H9.56769C9.59019 5.1195 9.68169 4.4895 9.86094 3.951C10.0784 3.3 10.3799 2.9085 10.7159 2.769C10.8537 2.71151 10.963 2.60166 11.0197 2.46361C11.0765 2.32556 11.0761 2.17062 11.0186 2.03287C10.9611 1.89513 10.8512 1.78586 10.7132 1.7291C10.5751 1.67235 10.4202 1.67276 10.2824 1.73025C9.49344 2.0595 9.04494 2.84025 8.79369 3.59475L8.75919 3.70125C8.57449 3.34436 8.33595 3.01804 8.05194 2.73375C7.66298 2.34434 7.19573 2.04201 6.68113 1.84677C6.16653 1.65154 5.61632 1.56785 5.06694 1.60125C4.81623 1.61568 4.57953 1.72163 4.40175 1.899C4.22396 2.07636 4.11746 2.31282 4.10244 2.5635M5.22219 2.71875C5.59855 2.70789 5.97315 2.77414 6.32294 2.91344C6.67274 3.05274 6.99034 3.26214 7.25619 3.52875C7.52281 3.79461 7.7322 4.1122 7.8715 4.462C8.0108 4.81179 8.07706 5.18639 8.06619 5.56275C7.93017 5.56644 7.79406 5.56017 7.65894 5.544L7.19619 5.448C6.75636 5.31678 6.35625 5.0778 6.03219 4.75275C5.76558 4.48689 5.55619 4.16929 5.41689 3.8195C5.27759 3.4697 5.21133 3.0951 5.22219 2.71875ZM6.77469 6.51L6.92619 6.5415C7.10619 6.5925 7.28919 6.63075 7.47369 6.6555L8.20119 6.8055C8.7281 6.91465 9.27179 6.91465 9.79869 6.8055L11.2252 6.51C11.5891 6.43459 11.9645 6.43467 12.3284 6.51024C12.6922 6.58582 13.0366 6.73528 13.3404 6.94937C13.6441 7.16345 13.9006 7.43761 14.0941 7.75486C14.2876 8.07211 14.4139 8.42571 14.4652 8.79375C14.6758 10.307 14.3644 11.8469 13.5824 13.1595L13.3342 13.5772L12.2894 14.9842C12.1619 15.156 11.9985 15.2979 11.8106 15.4C11.6227 15.5022 11.4147 15.5621 11.2012 15.5757C10.9878 15.5892 10.7739 15.5561 10.5746 15.4786C10.3752 15.401 10.1952 15.281 10.0469 15.1267C9.91145 14.9857 9.74887 14.8735 9.56896 14.7969C9.38904 14.7203 9.1955 14.6808 8.99994 14.6808C8.80439 14.6808 8.61085 14.7203 8.43093 14.7969C8.25102 14.8735 8.08844 14.9857 7.95294 15.1267C7.80473 15.281 7.62468 15.401 7.42532 15.4786C7.22597 15.5561 7.01211 15.5892 6.79864 15.5757C6.58517 15.5621 6.37723 15.5022 6.18929 15.4C6.00135 15.2979 5.83794 15.156 5.71044 14.9842L4.66569 13.5772L4.41744 13.1595C3.63571 11.8468 3.32461 10.3069 3.53544 8.79375C3.58675 8.42579 3.71302 8.07227 3.90646 7.75507C4.09989 7.43788 4.35637 7.16376 4.66001 6.94969C4.96366 6.73561 5.30801 6.58613 5.67175 6.5105C6.03549 6.43487 6.41088 6.4347 6.77469 6.51Z" />
</symbol>

<!-- House icon -->
  <symbol id="house-icon" fill='white' xmlns="http://www.w3.org/2000/svg" xmlns:xlink="http://www.w3.org/1999/xlink" viewBox="0 0 32 32">
<path d="M30 26h-2v-11.556c0-0.277-0.057-0.551-0.169-0.804s-0.274-0.481-0.478-0.668l-10-9.435c-0.005-0.004-0.009-0.009-0.014-0.014-0.368-0.335-0.848-0.52-1.346-0.52s-0.977 0.186-1.346 0.52l-0.014 0.014-9.989 9.435c-0.204 0.187-0.366 0.415-0.478 0.668s-0.169 0.527-0.169 0.804v11.556h-2c-0.265 0-0.52 0.105-0.707 0.293s-0.293 0.442-0.293 0.707 0.105 0.52 0.293 0.707c0.188 0.188 0.442 0.293 0.707 0.293h28c0.265 0 0.52-0.105 0.707-0.293s0.293-0.442 0.293-0.707-0.105-0.52-0.293-0.707c-0.187-0.187-0.442-0.293-0.707-0.293zM6 14.444l0.014-0.012 9.986-9.431 10.001 9.441v11.559h-6.001v-6c0-0.53-0.211-1.039-0.586-1.414s-0.884-0.586-1.414-0.586h-4c-0.53 0-1.039 0.211-1.414 0.586s-0.586 0.884-0.586 1.414v6h-6v-11.556zM18 26h-4v-6h4v6z"></path>
</symbol>

<!-- Present icon -->
<symbol id="present-icon" fill='white' xmlns="http://www.w3.org/2000/svg" xmlns:xlink="http://www.w3.org/1999/xlink" viewBox="0 0 32 32">
<path d="M27 9.25h-5.157c0.265-0.166 0.516-0.353 0.75-0.56 0.354-0.315 0.638-0.7 0.837-1.13s0.306-0.897 0.316-1.37c0.015-0.521-0.076-1.040-0.268-1.524s-0.481-0.925-0.849-1.293c-0.368-0.369-0.808-0.659-1.292-0.852s-1.003-0.285-1.524-0.271c-0.473 0.010-0.94 0.117-1.37 0.316s-0.815 0.483-1.13 0.837c-0.579 0.683-1.024 1.47-1.313 2.317-0.288-0.847-0.732-1.633-1.31-2.316-0.315-0.354-0.7-0.639-1.131-0.838s-0.898-0.306-1.372-0.316c-0.521-0.015-1.040 0.077-1.525 0.269s-0.925 0.482-1.293 0.851c-0.369 0.369-0.658 0.809-0.851 1.294s-0.284 1.004-0.269 1.525c0.010 0.474 0.117 0.94 0.316 1.37s0.483 0.815 0.837 1.13c0.234 0.207 0.485 0.394 0.75 0.56h-5.152c-0.23 0-0.458 0.045-0.67 0.133s-0.405 0.217-0.568 0.38c-0.163 0.163-0.291 0.356-0.379 0.568s-0.133 0.44-0.133 0.67v4c0 0.464 0.184 0.909 0.513 1.237s0.773 0.513 1.237 0.513h0.25v8.25c0 0.464 0.184 0.909 0.513 1.238s0.773 0.513 1.237 0.513h18c0.464 0 0.909-0.184 1.238-0.513s0.513-0.773 0.513-1.238v-8.25h0.25c0.464 0 0.909-0.184 1.238-0.513s0.513-0.773 0.513-1.237v-4c0-0.464-0.184-0.909-0.513-1.237s-0.773-0.513-1.238-0.513zM16.971 7.875c0.281-1.515 0.786-2.719 1.461-3.481 0.181-0.199 0.4-0.359 0.645-0.47s0.51-0.17 0.779-0.174h0.069c0.311 0 0.619 0.062 0.905 0.184s0.546 0.298 0.762 0.522c0.217 0.223 0.386 0.487 0.499 0.777s0.166 0.599 0.157 0.91c-0.004 0.269-0.064 0.535-0.175 0.78s-0.272 0.465-0.472 0.645c-1.34 1.183-3.612 1.536-4.81 1.639 0.031-0.361 0.082-0.821 0.179-1.331zM10.431 4.431c0.436-0.435 1.027-0.68 1.643-0.681h0.069c0.269 0.004 0.535 0.064 0.78 0.175s0.465 0.272 0.645 0.472c1.182 1.34 1.536 3.612 1.639 4.81-0.361-0.031-0.821-0.085-1.326-0.179-1.515-0.279-2.719-0.786-3.481-1.463-0.2-0.18-0.361-0.399-0.473-0.644s-0.171-0.51-0.176-0.78c-0.009-0.317 0.047-0.632 0.164-0.926s0.293-0.561 0.517-0.785zM4.75 15v-4c0-0.066 0.026-0.13 0.073-0.177s0.11-0.073 0.177-0.073h10.25v4.5h-10.25c-0.066 0-0.13-0.026-0.177-0.073s-0.073-0.11-0.073-0.177zM6.75 25v-8.25h8.5v8.5h-8.25c-0.066 0-0.13-0.026-0.177-0.073s-0.073-0.11-0.073-0.177zM25.25 25c0 0.066-0.026 0.13-0.073 0.177s-0.11 0.073-0.177 0.073h-8.25v-8.5h8.5v8.25zM27.25 15c0 0.066-0.026 0.13-0.073 0.177s-0.11 0.073-0.177 0.073h-10.25v-4.5h10.25c0.066 0 0.13 0.026 0.177 0.073s0.073 0.11 0.073 0.177v4z"></path>
</symbol>

<!-- Pets icon -->
<symbol id="pets-icon" fill='white' xmlns="http://www.w3.org/2000/svg" xmlns:xlink="http://www.w3.org/1999/xlink" viewBox="0 0 32 32">
<path d="M26.5 10c-0.692 0-1.369 0.205-1.945 0.59s-1.024 0.931-1.289 1.571-0.334 1.343-0.199 2.022c0.135 0.679 0.468 1.303 0.958 1.792s1.113 0.823 1.792 0.958 1.383 0.066 2.022-0.199c0.639-0.265 1.186-0.713 1.571-1.289s0.59-1.252 0.59-1.944c0-0.928-0.369-1.819-1.025-2.475s-1.547-1.025-2.475-1.025zM26.5 15c-0.297 0-0.587-0.088-0.833-0.253s-0.439-0.399-0.553-0.673c-0.113-0.274-0.143-0.576-0.085-0.867s0.201-0.558 0.41-0.768 0.477-0.353 0.768-0.411c0.291-0.058 0.593-0.028 0.867 0.085s0.508 0.306 0.673 0.552 0.253 0.537 0.253 0.833c0 0.398-0.158 0.779-0.439 1.061s-0.663 0.439-1.061 0.439zM9 13.5c0-0.692-0.205-1.369-0.59-1.944s-0.931-1.024-1.571-1.289c-0.64-0.265-1.343-0.334-2.022-0.199s-1.303 0.468-1.792 0.958c-0.489 0.489-0.823 1.113-0.958 1.792s-0.066 1.383 0.199 2.022c0.265 0.64 0.713 1.186 1.289 1.571s1.252 0.59 1.944 0.59c0.928 0 1.819-0.369 2.475-1.025s1.025-1.547 1.025-2.475zM5.5 15c-0.297 0-0.587-0.088-0.833-0.253s-0.439-0.399-0.552-0.673c-0.114-0.274-0.143-0.576-0.085-0.867s0.201-0.558 0.411-0.768c0.21-0.21 0.477-0.353 0.768-0.411s0.593-0.028 0.867 0.085c0.274 0.114 0.508 0.306 0.673 0.552s0.253 0.537 0.253 0.833c0 0.398-0.158 0.779-0.439 1.061s-0.663 0.439-1.061 0.439zM11.5 11c0.692 0 1.369-0.205 1.944-0.59s1.024-0.931 1.289-1.571c0.265-0.64 0.334-1.343 0.199-2.022s-0.468-1.303-0.958-1.792c-0.489-0.489-1.113-0.823-1.792-0.958s-1.383-0.066-2.022 0.199c-0.64 0.265-1.186 0.713-1.571 1.289s-0.59 1.252-0.59 1.944c0 0.928 0.369 1.818 1.025 2.475s1.547 1.025 2.475 1.025zM11.5 6c0.297 0 0.587 0.088 0.833 0.253s0.439 0.399 0.552 0.673c0.114 0.274 0.143 0.576 0.085 0.867s-0.201 0.558-0.411 0.768c-0.21 0.21-0.477 0.353-0.768 0.411s-0.593 0.028-0.867-0.085c-0.274-0.114-0.508-0.306-0.673-0.552s-0.253-0.537-0.253-0.833c0-0.398 0.158-0.779 0.439-1.061s0.663-0.439 1.061-0.439zM20.5 11c0.692 0 1.369-0.205 1.944-0.59s1.024-0.931 1.289-1.571 0.334-1.343 0.199-2.022c-0.135-0.679-0.468-1.303-0.958-1.792s-1.113-0.823-1.792-0.958-1.383-0.066-2.022 0.199c-0.639 0.265-1.186 0.713-1.571 1.289s-0.59 1.252-0.59 1.944c0 0.928 0.369 1.818 1.025 2.475s1.547 1.025 2.475 1.025zM20.5 6c0.297 0 0.587 0.088 0.833 0.253s0.439 0.399 0.553 0.673c0.113 0.274 0.143 0.576 0.085 0.867s-0.201 0.558-0.41 0.768-0.477 0.353-0.768 0.411c-0.291 0.058-0.593 0.028-0.867-0.085s-0.508-0.306-0.673-0.552-0.253-0.537-0.253-0.833c0-0.398 0.158-0.779 0.439-1.061s0.663-0.439 1.061-0.439zM23.39 18.607c-0.508-0.28-0.956-0.658-1.317-1.111s-0.631-0.974-0.791-1.531c-0.332-1.143-1.027-2.148-1.979-2.863s-2.111-1.101-3.302-1.101c-1.191 0-2.349 0.386-3.302 1.101s-1.647 1.72-1.979 2.863c-0.321 1.122-1.074 2.070-2.094 2.637-0.978 0.529-1.752 1.369-2.199 2.388s-0.542 2.157-0.269 3.235 0.897 2.035 1.774 2.719c0.877 0.684 1.957 1.055 3.069 1.056 0.666 0.002 1.326-0.131 1.94-0.391 1.956-0.807 4.152-0.807 6.109 0 1.185 0.515 2.523 0.552 3.735 0.102s2.201-1.351 2.763-2.515c0.561-1.164 0.651-2.5 0.249-3.728s-1.264-2.253-2.405-2.859v-0.001zM21 26c-0.406 0-0.808-0.082-1.181-0.241-2.449-1.012-5.199-1.012-7.649 0-0.712 0.306-1.514 0.326-2.24 0.053s-1.318-0.815-1.652-1.514c-0.335-0.699-0.386-1.5-0.143-2.236s0.761-1.349 1.446-1.711c0.737-0.407 1.386-0.955 1.91-1.613s0.914-1.413 1.147-2.221c0.211-0.728 0.653-1.368 1.259-1.823s1.344-0.701 2.102-0.701c0.758 0 1.496 0.246 2.102 0.701s1.048 1.095 1.259 1.823c0.233 0.81 0.625 1.566 1.151 2.225s1.177 1.207 1.916 1.614c0.59 0.316 1.057 0.821 1.327 1.433s0.328 1.297 0.164 1.946-0.54 1.224-1.069 1.634c-0.529 0.41-1.179 0.632-1.849 0.63z"></path>
</symbol>

<!-- Connection icon -->
<symbol id="connection-icon" fill='white' xmlns="http://www.w3.org/2000/svg" xmlns:xlink="http://www.w3.org/1999/xlink" viewBox="0 0 32 32">
<path d="M27.699 20.038l-5.905-2.646c-0.268-0.115-0.559-0.161-0.849-0.134s-0.568 0.125-0.811 0.287c-0.025 0.016-0.048 0.033-0.070 0.052l-3.086 2.625c-0.032 0.017-0.068 0.027-0.104 0.028s-0.073-0.006-0.106-0.021c-1.984-0.957-4.039-3-5-4.956-0.016-0.033-0.024-0.069-0.024-0.105s0.008-0.072 0.024-0.105l2.634-3.125c0.019-0.023 0.036-0.047 0.053-0.072 0.159-0.243 0.255-0.522 0.28-0.812s-0.024-0.581-0.14-0.847l-2.627-5.895c-0.149-0.348-0.407-0.638-0.735-0.827s-0.709-0.266-1.085-0.22c-1.633 0.215-3.133 1.017-4.218 2.257s-1.682 2.832-1.678 4.48c0 9.788 7.963 17.75 17.75 17.75 1.647 0.003 3.24-0.594 4.479-1.679s2.042-2.584 2.257-4.218c0.046-0.374-0.031-0.753-0.217-1.080s-0.474-0.585-0.82-0.736zM22 26.25c-8.96 0-16.25-7.29-16.25-16.25-0.004-1.283 0.459-2.523 1.302-3.489s2.010-1.592 3.281-1.761h0.029c0.050 0.001 0.099 0.017 0.14 0.046s0.072 0.070 0.090 0.117l2.637 5.889c0.015 0.033 0.023 0.068 0.023 0.104s-0.008 0.072-0.023 0.104l-2.639 3.133c-0.020 0.022-0.038 0.046-0.054 0.071-0.165 0.252-0.262 0.543-0.282 0.843s0.038 0.601 0.169 0.873c1.109 2.27 3.396 4.54 5.691 5.649 0.273 0.13 0.575 0.186 0.877 0.164s0.593-0.122 0.844-0.29c0.024-0.016 0.047-0.034 0.070-0.052l3.085-2.625c0.030-0.017 0.064-0.026 0.099-0.028s0.069 0.003 0.101 0.016l5.906 2.646c0.048 0.021 0.089 0.056 0.116 0.101s0.039 0.097 0.035 0.149c-0.168 1.272-0.793 2.439-1.759 3.284s-2.206 1.308-3.489 1.305z"></path>
</symbol>

<!-- Shopping icon -->
<symbol id="shopping-icon" fill='white' xmlns="http://www.w3.org/2000/svg" xmlns:xlink="http://www.w3.org/1999/xlink" viewBox="0 0 32 32">
<path d="M10 10v-4c0-0.702 0.185-1.392 0.536-2s0.856-1.113 1.464-1.464c0.608-0.351 1.298-0.536 2-0.536s1.392 0.185 2 0.536c0.608-0.351 1.298-0.536 2-0.536s1.392 0.185 2 0.536c0.608 0.351 1.113 0.856 1.464 1.464s0.536 1.298 0.536 2v4h1c0.796 0 1.559 0.316 2.121 0.879s0.879 1.326 0.879 2.121v13c0 1.061-0.422 2.078-1.172 2.828s-1.768 1.172-2.828 1.172h-12c-1.061 0-2.078-0.421-2.828-1.172s-1.172-1.768-1.172-2.828v-13c0-0.796 0.316-1.559 0.879-2.121s1.326-0.879 2.121-0.879h1zM12 6v4h4v-4c0-0.53-0.211-1.039-0.586-1.414s-0.884-0.586-1.414-0.586c-0.53 0-1.039 0.211-1.414 0.586s-0.586 0.884-0.586 1.414zM22 28c0.53 0 1.039-0.211 1.414-0.586s0.586-0.884 0.586-1.414v-13c0-0.265-0.105-0.52-0.293-0.707s-0.442-0.293-0.707-0.293h-3v14c0 0.53 0.211 1.039 0.586 1.414s0.884 0.586 1.414 0.586zM18 12h-9c-0.265 0-0.52 0.105-0.707 0.293s-0.293 0.442-0.293 0.707v13c0 0.53 0.211 1.039 0.586 1.414s0.884 0.586 1.414 0.586h8.536c-0.352-0.608-0.537-1.298-0.536-2v-14zM18 6v4h2v-4c0-0.305-0.070-0.607-0.204-0.881s-0.33-0.514-0.571-0.701c-0.241-0.187-0.522-0.316-0.822-0.378s-0.608-0.054-0.904 0.022c0.32 0.574 0.5 1.236 0.5 1.938z"></path>
</symbol>

<!-- Restaurant icon -->
<symbol id="restaurant-icon" fill='white' xmlns="http://www.w3.org/2000/svg" xmlns:xlink="http://www.w3.org/1999/xlink" viewBox="0 0 32 32">
<path d="M2 28h28v2h-28v-2zM24.5 11h-16.5c-0.53 0.001-1.039 0.211-1.414 0.586s-0.586 0.883-0.586 1.414v8c0.002 1.325 0.529 2.596 1.466 3.534s2.208 1.465 3.534 1.466h8c1.325-0.002 2.596-0.529 3.534-1.466s1.465-2.208 1.466-3.534v-1h0.5c1.194 0 2.338-0.474 3.182-1.318s1.318-1.988 1.318-3.182c0-1.193-0.474-2.338-1.318-3.182s-1.988-1.318-3.182-1.318zM22 21c-0.001 0.795-0.317 1.558-0.88 2.12s-1.325 0.879-2.12 0.88h-8c-0.795-0.001-1.558-0.317-2.12-0.88s-0.879-1.325-0.88-2.12v-8h14v8zM24.5 18h-0.5v-5h0.5c0.663 0 1.299 0.263 1.768 0.732s0.732 1.105 0.732 1.768c0 0.663-0.263 1.299-0.732 1.768s-1.105 0.732-1.768 0.732zM19 9h-2v-0.146c0.001-0.372-0.101-0.736-0.297-1.053s-0.475-0.571-0.808-0.736l-2.685-1.341c-0.666-0.33-1.226-0.841-1.616-1.473s-0.596-1.362-0.594-2.105v-1.146h2v1.146c-0.001 0.372 0.102 0.736 0.297 1.053s0.476 0.571 0.809 0.736l2.683 1.341c0.666 0.33 1.226 0.841 1.617 1.473s0.597 1.362 0.594 2.105v0.146z"></path>
</symbol>

<!-- Sport icon -->
<symbol id="sport-icon" fill='white' xmlns="http://www.w3.org/2000/svg" xmlns:xlink="http://www.w3.org/1999/xlink" viewBox="0 0 32 32">
<path d="M16 3.2c-3.395 0-6.651 1.349-9.051 3.749s-3.749 5.656-3.749 9.051c0 3.395 1.349 6.65 3.749 9.051s5.656 3.749 9.051 3.749 6.651-1.349 9.051-3.749c2.401-2.401 3.749-5.656 3.749-9.051s-1.348-6.65-3.749-9.051c-2.4-2.4-5.656-3.749-9.051-3.749zM13.338 5.118c1.75-0.428 3.578-0.428 5.328 0l-2.666 1.554-2.662-1.554zM11.347 5.81l3.856 2.248v2.72l-4.43 3.123-2.496-0.907-1.002-4.019c1.094-1.357 2.488-2.439 4.072-3.165zM6.082 10.794l0.629 2.528-1.862 1.654c0.136-1.499 0.565-2.912 1.234-4.182zM4.856 17.107l2.923-2.592 2.474 0.898 1.672 5.264-1.147 1.717h-3.974c-1.092-1.566-1.763-3.386-1.949-5.286zM8.155 23.994h2.486l0.816 2.246c-1.226-0.545-2.345-1.306-3.302-2.246zM13.397 26.896l-1.304-3.594 1.136-1.701h5.547l1.138 1.701-1.304 3.592c-1.713 0.409-3.499 0.411-5.213 0.002zM20.55 26.235l0.816-2.243h2.478c-0.955 0.938-2.071 1.698-3.294 2.243zM25.197 22.392h-3.965l-1.152-1.72 1.64-5.259 2.507-0.902 2.918 2.595c-0.186 1.9-0.857 3.72-1.949 5.286zM27.154 14.971l-1.856-1.65 0.629-2.515c0.663 1.264 1.091 2.672 1.227 4.165zM24.731 8.984l-1 4.005-2.534 0.912-4.395-3.123v-2.72l3.854-2.25c1.587 0.728 2.983 1.815 4.077 3.176zM11.837 15.112l4.163-2.941 4.137 2.939-1.523 4.89h-5.227l-1.55-4.888z"></path>
</symbol>

<!-- Taxi icon -->
<symbol id="taxi-icon" fill='white' xmlns="http://www.w3.org/2000/svg" xmlns:xlink="http://www.w3.org/1999/xlink" viewBox="0 0 32 32">
<path d="M13 4l-0.656 2h-2.844c-1.32 0-2.496 0.86-2.875 2.125l-1.375 4.594-1.938-0.656-0.624 1.874 1.968 0.657-0.625 2.125c-0.024 0.092-0.034 0.186-0.031 0.281v8c0 0.55 0.45 1 1 1h3l0.344-1h15.312l0.344 1h3c0.55 0 1-0.45 1-1v-0.844c0.004-0.050 0.004-0.105 0-0.156v-7c0.003-0.095-0.007-0.189-0.031-0.281l-0.625-2.125 1.968-0.656-0.625-1.876-1.937 0.657-1.375-4.594c-0.187-0.616-0.568-1.155-1.086-1.538s-1.145-0.589-1.789-0.587h-2.844l-0.656-2h-6zM9.5 8h13c0.445 0 0.84 0.293 0.969 0.719l1.281 4.281h-17.5l1.281-4.281c0.13-0.43 0.524-0.719 0.969-0.719zM6.656 15h18.688l0.656 2.188v5.812h-20v-5.813l0.656-2.187zM8.5 16c-0.398 0-0.779 0.158-1.061 0.439s-0.439 0.663-0.439 1.061c0 0.398 0.158 0.779 0.439 1.061s0.663 0.439 1.061 0.439 0.779-0.158 1.061-0.439c0.281-0.281 0.439-0.663 0.439-1.061s-0.158-0.779-0.439-1.061-0.663-0.439-1.061-0.439zM23.5 16c-0.398 0-0.779 0.158-1.061 0.439s-0.439 0.663-0.439 1.061c0 0.398 0.158 0.779 0.439 1.061s0.663 0.439 1.061 0.439 0.779-0.158 1.061-0.439c0.281-0.281 0.439-0.663 0.439-1.061s-0.158-0.779-0.439-1.061c-0.281-0.281-0.663-0.439-1.061-0.439zM12 19l-1.25 3h2.156l0.438-1h5.312l0.438 1h2.156l-1.25-3h-8z"></path>
</symbol>

<!-- Health icon -->
<symbol id="health-icon" fill='white' xmlns="http://www.w3.org/2000/svg" xmlns:xlink="http://www.w3.org/1999/xlink" viewBox="0 0 32 32">
<path d="M16 7.432l-0.731 0.683c0.094 0.1 0.207 0.18 0.332 0.235s0.261 0.083 0.398 0.083c0.137 0 0.273-0.028 0.398-0.083s0.239-0.134 0.332-0.235l-0.731-0.683zM12.579 25.061c-1.933-1.568-4.189-3.625-5.955-5.877-1.785-2.276-2.957-4.613-2.957-6.76h-2c0 2.823 1.507 5.603 3.383 7.995 1.896 2.417 4.28 4.581 6.269 6.196l1.26-1.553zM3.667 12.424c0-3.873 1.691-6.267 3.781-7.087 2.087-0.817 5.005-0.233 7.821 2.777l1.461-1.365c-3.184-3.405-6.932-4.48-10.012-3.275-3.076 1.205-5.052 4.515-5.052 8.949h2zM20.68 26.613c1.991-1.615 4.375-3.779 6.271-6.196 1.876-2.392 3.383-5.172 3.383-7.996h-2c0 2.149-1.173 4.485-2.957 6.761-1.765 2.252-4.021 4.309-5.955 5.877l1.259 1.553zM30.333 12.421c0-4.433-1.976-7.743-5.053-8.947-3.080-1.207-6.827-0.133-10.011 3.273l1.461 1.367c2.816-3.011 5.735-3.596 7.821-2.779 2.091 0.819 3.781 3.213 3.781 7.085h2zM11.319 26.615c1.693 1.376 2.871 2.385 4.681 2.385v-2c-0.964 0-1.564-0.432-3.421-1.939l-1.26 1.553zM19.421 25.060c-1.857 1.507-2.457 1.94-3.421 1.94v2c1.811 0 2.988-1.009 4.681-2.385l-1.26-1.555z"></path>
<path stroke-linejoin="miter" stroke-linecap="round" stroke-miterlimit="4" stroke-width="3.5556" d="M24.667 12h-2.667M22 12h-2.667M22 12v-2.667M22 12v2.667"></path>
</symbol>

<!-- Transport icon -->
<symbol id="transport-icon" fill='white' xmlns="http://www.w3.org/2000/svg" xmlns:xlink="http://www.w3.org/1999/xlink" viewBox="0 0 32 32">
<path d="M27.2 7.2c0-1.485-0.59-2.91-1.64-3.96s-2.474-1.64-3.96-1.64h-11.2c-1.485 0-2.91 0.59-3.96 1.64s-1.64 2.475-1.64 3.96v11.128c-0 1.196 0.382 2.361 1.092 3.325s1.709 1.674 2.852 2.027c2.348 0.737 4.795 1.114 7.256 1.12 2.461-0.006 4.908-0.384 7.256-1.122 1.143-0.354 2.142-1.064 2.852-2.027s1.093-2.127 1.092-3.324v-11.128zM6.4 18.328v-11.128c0-1.061 0.421-2.078 1.172-2.828s1.768-1.172 2.828-1.172h11.2c1.061 0 2.078 0.421 2.828 1.172s1.172 1.768 1.172 2.828v11.128c0 0.854-0.273 1.686-0.78 2.374s-1.22 1.195-2.036 1.448c-2.196 0.69-4.483 1.044-6.784 1.050-2.301-0.006-4.588-0.36-6.784-1.050-0.816-0.253-1.53-0.76-2.036-1.448s-0.78-1.52-0.78-2.374z"></path>
<path d="M10.4 20.8c0.636 0 1.247-0.253 1.697-0.703s0.703-1.061 0.703-1.697c0-0.637-0.253-1.247-0.703-1.697s-1.061-0.703-1.697-0.703c-0.636 0-1.247 0.253-1.697 0.703s-0.703 1.061-0.703 1.697c0 0.636 0.253 1.247 0.703 1.697s1.061 0.703 1.697 0.703zM10.4 17.6c0.212 0 0.416 0.084 0.566 0.234s0.234 0.354 0.234 0.566c0 0.212-0.084 0.416-0.234 0.566s-0.354 0.234-0.566 0.234c-0.212 0-0.416-0.084-0.566-0.234s-0.234-0.354-0.234-0.566c0-0.212 0.084-0.416 0.234-0.566s0.354-0.234 0.566-0.234zM21.6 20.8c0.636 0 1.247-0.253 1.697-0.703s0.703-1.061 0.703-1.697c0-0.637-0.253-1.247-0.703-1.697s-1.061-0.703-1.697-0.703c-0.636 0-1.247 0.253-1.697 0.703s-0.703 1.061-0.703 1.697c0 0.636 0.253 1.247 0.703 1.697s1.061 0.703 1.697 0.703zM21.6 17.6c0.212 0 0.416 0.084 0.566 0.234s0.234 0.354 0.234 0.566c0 0.212-0.084 0.416-0.234 0.566s-0.354 0.234-0.566 0.234c-0.212 0-0.416-0.084-0.566-0.234s-0.234-0.354-0.234-0.566c0-0.212 0.084-0.416 0.234-0.566s0.354-0.234 0.566-0.234z"></path>
<path d="M24.851 29.882c0.078 0.193 0.229 0.348 0.42 0.432s0.407 0.090 0.602 0.016c0.195-0.073 0.354-0.22 0.443-0.408s0.1-0.404 0.032-0.602l-2.4-6.4c-0.080-0.191-0.23-0.344-0.42-0.426s-0.404-0.088-0.598-0.015c-0.194 0.073-0.352 0.217-0.441 0.404s-0.103 0.401-0.038 0.597l2.4 6.402zM8.851 22.92c0.034-0.102 0.088-0.196 0.159-0.277s0.158-0.146 0.255-0.193c0.097-0.046 0.202-0.073 0.31-0.078s0.215 0.012 0.316 0.050 0.193 0.095 0.271 0.169c0.078 0.074 0.14 0.163 0.183 0.262s0.065 0.205 0.066 0.313c0.001 0.108-0.020 0.214-0.062 0.313l-2.4 6.4c-0.080 0.191-0.23 0.344-0.42 0.426s-0.404 0.088-0.598 0.015c-0.194-0.073-0.352-0.217-0.441-0.404s-0.103-0.401-0.038-0.597l2.4-6.4z"></path>
<path d="M24 8c0-0.849-0.337-1.663-0.937-2.263s-1.414-0.937-2.263-0.937h-9.6c-0.849 0-1.663 0.337-2.263 0.937s-0.937 1.414-0.937 2.263v4.104c0 0.693 0.225 1.368 0.642 1.922s1.002 0.958 1.668 1.151c1.894 0.55 3.792 0.822 5.69 0.822s3.795-0.274 5.69-0.822c0.666-0.193 1.252-0.597 1.668-1.151s0.642-1.229 0.642-1.922v-4.104zM9.6 12.104v-4.104c0-0.424 0.169-0.831 0.469-1.131s0.707-0.469 1.131-0.469h9.6c0.424 0 0.831 0.169 1.131 0.469s0.469 0.707 0.469 1.131v4.104c-0 0.347-0.113 0.684-0.321 0.961s-0.501 0.479-0.834 0.575c-1.704 0.5-3.469 0.756-5.245 0.76-1.746 0-3.494-0.253-5.245-0.758-0.333-0.096-0.626-0.299-0.834-0.576s-0.321-0.615-0.321-0.962z"></path>
<path d="M8.4 28c-0.212 0-0.416-0.084-0.566-0.234s-0.234-0.353-0.234-0.566c0-0.212 0.084-0.416 0.234-0.566s0.353-0.234 0.566-0.234h16c0.212 0 0.416 0.084 0.566 0.234s0.234 0.354 0.234 0.566c0 0.212-0.084 0.416-0.234 0.566s-0.354 0.234-0.566 0.234h-16z"></path>
</symbol>

<!-- Entertainment icon -->
<symbol id="entertainment-icon" fill='white' xmlns="http://www.w3.org/2000/svg" xmlns:xlink="http://www.w3.org/1999/xlink" viewBox="0 0 32 32">
<path d="M28.517 9.457c-0.095-0.090-0.211-0.154-0.338-0.186s-0.26-0.029-0.386 0.007l-0.176 0.050c-0.163-0.712-0.473-1.382-0.91-1.968s-0.991-1.073-1.627-1.432c-0.636-0.359-1.34-0.581-2.067-0.653s-1.461 0.010-2.155 0.238c-0.395-0.964-1.068-1.79-1.933-2.37s-1.884-0.891-2.926-0.891c-1.042 0-2.061 0.31-2.926 0.891s-1.538 1.406-1.933 2.37c-0.694-0.228-1.428-0.309-2.155-0.238s-1.431 0.294-2.067 0.653c-0.636 0.359-1.19 0.847-1.627 1.432s-0.747 1.256-0.91 1.968l-0.176-0.050c-0.126-0.036-0.259-0.038-0.385-0.007s-0.243 0.095-0.338 0.185c-0.095 0.090-0.164 0.204-0.201 0.329s-0.041 0.258-0.011 0.385l3.819 16.23c0.090 0.384 0.308 0.726 0.617 0.971s0.692 0.378 1.087 0.378h14.415c0.395 0 0.777-0.133 1.087-0.378s0.527-0.587 0.617-0.971l3.819-16.23c0.030-0.127 0.026-0.26-0.011-0.385s-0.107-0.238-0.201-0.329zM9.5 6.75c0.61-0.001 1.212 0.148 1.75 0.436 0.102 0.054 0.215 0.084 0.331 0.088s0.23-0.020 0.336-0.069c0.105-0.048 0.197-0.12 0.27-0.211s0.123-0.196 0.148-0.309c0.186-0.832 0.649-1.576 1.315-2.11s1.493-0.824 2.345-0.824c0.853 0 1.68 0.291 2.345 0.824s1.129 1.277 1.315 2.11c0.025 0.113 0.076 0.218 0.148 0.308s0.165 0.162 0.27 0.21c0.105 0.048 0.22 0.072 0.335 0.069s0.229-0.033 0.331-0.087c0.542-0.289 1.147-0.439 1.761-0.436 0.863-0 1.7 0.297 2.369 0.843s1.13 1.305 1.304 2.15l-5.134 1.466-4.39-1.75c-0.417-0.167-0.883-0.167-1.3 0l-4.39 1.75-5.134-1.466c0.174-0.845 0.635-1.605 1.304-2.15s1.506-0.843 2.369-0.843zM20.18 12.48l-1.836 13.77h-4.687l-1.836-13.77 4.088-1.635c0.059-0.024 0.126-0.024 0.185 0l4.087 1.635zM8.555 26.058l-3.533-14.985 5.299 1.514 1.822 13.664h-3.351c-0.056 0-0.111-0.019-0.155-0.054s-0.075-0.084-0.088-0.139h0.006zM23.457 26.058c-0.013 0.056-0.045 0.106-0.091 0.141s-0.102 0.053-0.159 0.052h-3.351l1.823-13.664 5.299-1.514-3.52 14.985z"></path>
</symbol>

<!-- Plus icon -->
<symbol id="plus-icon" fill="none" xmlns="http://www.w3.org/2000/svg" xmlns:xlink="http://www.w3.org/1999/xlink" viewBox="0 0 24 24">
<path d="M18 12H12M12 12H6M12 12V6M12 12V18"/>
</symbol>

<!-- Filters icon -->
<symbol id="filters-icon" fill="none" xmlns="http://www.w3.org/2000/svg" xmlns:xlink="http://www.w3.org/1999/xlink" viewBox="0 0 24 24">
<path d="M5 12V4M19 20V17M5 20V16M19 13V4M12 7V4M12 20V11"/>
<path d="M5 16C6.10457 16 7 15.1046 7 14C7 12.8954 6.10457 12 5 12C3.89543 12 3 12.8954 3 14C3 15.1046 3.89543 16 5 16Z"/>
<path d="M12 11C13.1046 11 14 10.1046 14 9C14 7.89543 13.1046 7 12 7C10.8954 7 10 7.89543 10 9C10 10.1046 10.8954 11 12 11Z"/>
<path d="M19 17C20.1046 17 21 16.1046 21 15C21 13.8954 20.1046 13 19 13C17.8954 13 17 13.8954 17 15C17 16.1046 17.8954 17 19 17Z"/>
</symbol>
</svg>
