<svg style='display: none;'>

<!-- Menu icon -->
    <symbol
      id='menu-icon'
      width='30.000000'
      height='22.000000'
      viewBox='0 0 30 22'
      fill='none'
      xmlns='http://www.w3.org/2000/svg'
      xmlns:xlink='http://www.w3.org/1999/xlink'
    >
      <defs />
      <rect
        id='Rectangle 5775'
        rx='1.000000'
        width='30.000000'
        height='2.000000'
        fill='#FFFFFF'
        fill-opacity='1.000000'
      />
      <rect
        id='Rectangle 5776'
        y='10.000000'
        rx='1.000000'
        width='30.000000'
        height='2.000000'
        fill='#FFFFFF'
        fill-opacity='1.000000'
      />
      <rect
        id='Rectangle 5777'
        y='20.000000'
        rx='1.000000'
        width='30.000000'
        height='2.000000'
        fill='#FFFFFF'
        fill-opacity='1.000000'
      />
    </symbol>


<!-- Close icon -->
    <symbol
      id='close-icon'
      width='16.000000'
      height='16.000000'
      viewBox='0 0 16 16'
      fill='none'
      xmlns='http://www.w3.org/2000/svg'
      xmlns:xlink='http://www.w3.org/1999/xlink'
    >
      <defs>
        <clipPath id='clip439_4762'>
          <rect
            id='mingcute:close-fill'
            width='16.000000'
            height='16.000000'
            fill='white'
            fill-opacity='0'
          />
        </clipPath>
      </defs>
      <rect
        id='mingcute:close-fill'
        width='16.000000'
        height='16.000000'
        fill='#FFFFFF'
        fill-opacity='0'
      />
      <g clip-path='url(#clip439_4762)'>
        <path
          id='Vector'
          d='M8 9.41L11.53 12.95C11.72 13.13 11.97 13.24 12.24 13.24C12.5 13.24 12.76 13.13 12.95 12.95C13.13 12.76 13.24 12.5 13.24 12.24C13.24 11.97 13.13 11.72 12.95 11.53L9.41 8L12.94 4.46C13.04 4.37 13.11 4.26 13.16 4.14C13.21 4.01 13.24 3.88 13.24 3.75C13.24 3.62 13.21 3.49 13.16 3.37C13.11 3.25 13.04 3.14 12.94 3.05C12.85 2.95 12.74 2.88 12.62 2.83C12.5 2.78 12.37 2.75 12.24 2.75C12.11 2.75 11.98 2.78 11.85 2.83C11.73 2.88 11.62 2.95 11.53 3.05L8 6.58L4.46 3.05C4.37 2.95 4.26 2.87 4.14 2.82C4.01 2.77 3.88 2.74 3.75 2.74C3.62 2.74 3.48 2.76 3.36 2.81C3.24 2.86 3.13 2.94 3.03 3.03C2.94 3.13 2.87 3.24 2.81 3.36C2.76 3.48 2.74 3.62 2.74 3.75C2.74 3.88 2.77 4.01 2.82 4.13C2.87 4.26 2.95 4.37 3.05 4.46L6.58 8L3.05 11.53C2.95 11.62 2.87 11.73 2.82 11.86C2.77 11.98 2.74 12.11 2.74 12.24C2.74 12.37 2.77 12.51 2.82 12.63C2.87 12.75 2.94 12.86 3.03 12.96C3.13 13.05 3.24 13.13 3.36 13.18C3.49 13.23 3.62 13.25 3.75 13.25C3.88 13.25 4.01 13.22 4.14 13.17C4.26 13.12 4.37 13.04 4.46 12.94L8 9.41L8 9.41Z'
          fill='#FFFFFF'
          fill-opacity='1.000000'
          fill-rule='evenodd'
        />
      </g>
    </symbol>


<!-- Logo icon -->
    <symbol
      id='logo-icon'
      viewBox='0 0 183 41'
      fill='none'
      xmlns='http://www.w3.org/2000/svg'
      xmlns:xlink='http://www.w3.org/1999/xlink'
      class='w-[151px] h-[34px] tablet:w-[183px] tablet:h-[41px]'
    >
      <path
        id='Logo'
        d='M135.28 31.87L130.21 31.87L130.21 20.2C130.21 19.54 130.09 18.95 129.86 18.43C129.63 17.9 129.33 17.44 128.94 17.07C128.55 16.69 128.09 16.4 127.55 16.21C127.03 16 126.46 15.9 125.85 15.9L116.97 15.9L116.97 31.87L111.89 31.87L111.89 13.35C111.89 13 111.96 12.67 112.09 12.38C112.22 12.07 112.4 11.8 112.63 11.58C112.87 11.35 113.14 11.16 113.45 11.03C113.77 10.9 114.1 10.84 114.45 10.84L125.89 10.84C126.53 10.84 127.2 10.91 127.9 11.05C128.62 11.2 129.32 11.43 130.01 11.75C130.71 12.07 131.38 12.47 132 12.96C132.64 13.44 133.2 14.03 133.68 14.73C134.18 15.42 134.57 16.22 134.85 17.12C135.14 18.03 135.28 19.06 135.28 20.2L135.28 31.87Z'
        fill='#FFFFFF'
        fill-opacity='1.000000'
        fill-rule='nonzero'
      />
      <path
        id='Logo'
        d='M105.41 6.52L100.33 6.52L100.33 1.95L105.41 1.95L105.41 6.52ZM105.41 31.87L100.33 31.87L100.33 10.84L105.41 10.84L105.41 31.87Z'
        fill='#FFFFFF'
        fill-opacity='1.000000'
        fill-rule='nonzero'
      />
      <path
        id='Logo'
        d='M92.86 20.47L76.81 20.47L76.81 15.37L92.86 15.37L92.86 20.47ZM95.12 9.03L74.78 9.03L74.78 31.87L69.7 31.87L69.7 6.52C69.7 6.17 69.76 5.84 69.89 5.53C70.02 5.22 70.2 4.94 70.42 4.71C70.66 4.48 70.93 4.3 71.24 4.17C71.55 4.04 71.89 3.97 72.26 3.97L95.12 3.97L95.12 9.03Z'
        fill='#B9F6B4'
        fill-opacity='1.000000'
        fill-rule='nonzero'
      />
      <path
        id='Logo'
        d='M62.69 33.89C62.69 34.76 62.58 35.54 62.36 36.23C62.14 36.93 61.84 37.54 61.48 38.06C61.12 38.59 60.69 39.04 60.21 39.4C59.73 39.78 59.22 40.08 58.69 40.31C58.17 40.55 57.64 40.72 57.11 40.82C56.57 40.94 56.07 41 55.58 41L46.43 41L46.43 35.94L55.58 35.94C56.26 35.94 56.77 35.76 57.11 35.41C57.45 35.06 57.61 34.56 57.61 33.89L57.61 10.84L62.69 10.84L62.69 33.89ZM55.58 31.87L46.43 31.87C45.7 31.87 44.92 31.75 44.08 31.5C43.26 31.25 42.49 30.85 41.78 30.29C41.06 29.72 40.47 28.99 40 28.1C39.53 27.19 39.3 26.08 39.3 24.77L39.3 10.84L44.38 10.84L44.38 24.77C44.38 25.43 44.55 25.94 44.9 26.29C45.25 26.64 45.78 26.81 46.47 26.81L55.58 26.81L55.58 31.87Z'
        fill='#FFFFFF'
        fill-opacity='1.000000'
        fill-rule='nonzero'
      />
      <path
        id='Logo'
        d='M32.58 31.87L27.47 31.87L27.47 15.26L18.47 31.03C18.25 31.44 17.93 31.74 17.53 31.95C17.14 32.16 16.72 32.26 16.26 32.26C15.82 32.26 15.4 32.16 15.01 31.95C14.63 31.74 14.33 31.44 14.11 31.03L5.07 15.26L5.07 31.87L0 31.87L0 6.13C0 5.55 0.16 5.03 0.5 4.57C0.85 4.12 1.31 3.82 1.87 3.66C2.14 3.6 2.42 3.58 2.69 3.6C2.96 3.62 3.22 3.67 3.47 3.78C3.73 3.87 3.97 4 4.17 4.19C4.38 4.35 4.56 4.56 4.7 4.81L16.26 24.83L27.82 4.81C28.12 4.32 28.53 3.97 29.05 3.76C29.58 3.55 30.14 3.52 30.71 3.66C31.26 3.82 31.71 4.12 32.06 4.57C32.41 5.03 32.58 5.55 32.58 6.13L32.58 31.87Z'
        fill='#B9F6B4'
        fill-opacity='1.000000'
        fill-rule='nonzero'
      />
      <path
        id='Logo'
        d='M164.5 32.24C172.16 32.24 178.37 26.06 178.37 18.42C178.37 10.79 172.16 4.6 164.5 4.6C156.84 4.6 150.63 10.79 150.63 18.42C150.63 26.06 156.84 32.24 164.5 32.24ZM164.5 36.85C174.71 36.85 183 28.6 183 18.42C183 8.25 174.71 0 164.5 0C154.29 0 146 8.25 146 18.42C146 28.6 154.29 36.85 164.5 36.85Z'
        fill='#B9F6B4'
        fill-opacity='1.000000'
        fill-rule='evenodd'
      />
      <path
        id='Logo'
        d='M169.12 18.42C169.12 20.97 167.05 23.03 164.5 23.03C161.95 23.03 159.88 20.97 159.88 18.42C159.88 15.88 161.95 13.82 164.5 13.82C167.05 13.82 169.12 15.88 169.12 18.42Z'
        fill='#B9F6B4'
        fill-opacity='1.000000'
        fill-rule='nonzero'
      />
    </symbol>


<!-- Coins icon -->
<symbol id="coins-icon" class='w-[40px] h-[40px] tablet:w-[90px] tablet:h-[90px]' viewBox="0 0 90 90" fill="none" xmlns="http://www.w3.org/2000/svg">
  <g>
    <path d="M61.87 0C46.1 0 33.75 7.41 33.75 16.87L33.75 26.57C31.93 26.36 30.05 26.25 28.12 26.25C12.35 26.25 0 33.66 0 43.12L0 73.12C0 82.58 12.35 90 28.12 90C40.93 90 51.49 85.11 55 78.2C57.24 78.52 59.52 78.75 61.87 78.75C77.64 78.75 90 71.33 90 61.87L90 16.87C90 7.41 77.64 0 61.87 0ZM61.87 7.5C73.67 7.5 82.5 12.45 82.5 16.87C82.5 21.3 73.67 26.25 61.87 26.25C50.07 26.25 41.25 21.3 41.25 16.87C41.25 12.45 50.07 7.5 61.87 7.5ZM28.12 33.75C39.92 33.75 48.75 38.7 48.75 43.12C48.75 47.55 39.92 52.5 28.12 52.5C16.32 52.5 7.5 47.55 7.5 43.12C7.5 38.7 16.32 33.75 28.12 33.75ZM7.5 54.68C12.6 57.96 19.88 60 28.12 60C36.36 60 43.64 57.96 48.75 54.68L48.75 58.12C48.75 62.55 39.92 67.5 28.12 67.5C16.32 67.5 7.5 62.55 7.5 58.12L7.5 54.68ZM28.12 82.5C16.32 82.5 7.5 77.55 7.5 73.12L7.5 69.68C12.6 72.96 19.88 75 28.12 75C36.36 75 43.64 72.96 48.75 69.68L48.75 73.12C48.75 77.55 39.92 82.5 28.12 82.5ZM61.87 71.25C59.94 71.25 58.08 71.07 56.25 70.81L56.25 63.39C58.09 63.6 59.96 63.75 61.87 63.75C70.11 63.75 77.39 61.71 82.5 58.43L82.5 61.87C82.5 66.3 73.67 71.25 61.87 71.25ZM61.87 56.25C59.94 56.25 58.08 56.07 56.25 55.81L56.25 48.39C58.09 48.6 59.96 48.75 61.87 48.75C70.11 48.75 77.39 46.71 82.5 43.43L82.5 46.87C82.5 51.3 73.67 56.25 61.87 56.25ZM61.87 41.25C59.84 41.25 57.87 41.05 55.95 40.77C55.21 37.44 52.92 34.45 49.5 32.07C53.22 33.13 57.4 33.75 61.87 33.75C70.11 33.75 77.39 31.71 82.5 28.43L82.5 31.87C82.5 36.3 73.67 41.25 61.87 41.25L61.87 41.25Z" fill="#7AFAC7" fill-opacity="0.83"/>
  </g>
</symbol>


<!-- Clock icon -->
<symbol id="clock-icon" class='w-[40px] h-[40px] tablet:w-[90px] tablet:h-[90px]' viewBox="0 0 90 90" fill="none" xmlns="http://www.w3.org/2000/svg">
  <g>
    <path d="M45 90C20.18 90 0 69.81 0 45C0 20.18 20.18 0 45 0C69.81 0 90 20.18 90 45C90 69.81 69.81 90 45 90ZM45 7.5C24.32 7.5 7.5 24.32 7.5 45C7.5 65.67 24.32 82.5 45 82.5C65.67 82.5 82.5 65.67 82.5 45C82.5 24.32 65.67 7.5 45 7.5ZM54.37 61.23C56.17 60.2 56.78 57.9 55.74 56.11L48.75 43.99L48.75 22.5C48.75 20.43 47.07 18.75 45 18.75C42.92 18.75 41.25 20.43 41.25 22.5L41.25 45C41.25 45.66 41.42 46.3 41.75 46.87L49.25 59.86C49.95 61.06 51.2 61.74 52.5 61.74C53.14 61.74 53.78 61.57 54.37 61.23Z" fill="#7AFAC7" fill-opacity="0.83"/>
  </g>
</symbol>


<!-- Graph icon -->
<symbol id="graph-icon" class='w-[40px] h-[40px] tablet:w-[90px] tablet:h-[90px]' viewBox="0 0 90 90" fill="none" xmlns="http://www.w3.org/2000/svg">
  <path id="Vector" d="M86.25 82.5L11.25 82.5C9.17 82.5 7.5 80.82 7.5 78.75L7.5 3.75C7.5 1.67 5.82 0 3.75 0C1.67 0 0 1.67 0 3.75L0 78.75C0 84.96 5.03 90 11.25 90L86.25 90C88.32 90 90 88.32 90 86.25C90 84.17 88.32 82.5 86.25 82.5Z" fill="#7AFAC7" fill-opacity="0.83" fill-rule="nonzero"/>
  <path id="Vector" d="M56.25 75C58.32 75 60 73.32 60 71.25L60 45C60 42.92 58.32 41.25 56.25 41.25C54.17 41.25 52.5 42.92 52.5 45L52.5 71.25C52.5 73.32 54.17 75 56.25 75Z" fill="#7AFAC7" fill-opacity="0.83" fill-rule="nonzero"/>
  <path id="Vector" d="M26.25 75C28.32 75 30 73.32 30 71.25L30 45C30 42.92 28.32 41.25 26.25 41.25C24.17 41.25 22.5 42.92 22.5 45L22.5 71.25C22.5 73.32 24.17 75 26.25 75Z" fill="#7AFAC7" fill-opacity="0.83" fill-rule="nonzero"/>
  <path id="Vector" d="M71.25 75C73.32 75 75 73.32 75 71.25L75 26.25C75 24.17 73.32 22.5 71.25 22.5C69.17 22.5 67.5 24.17 67.5 26.25L67.5 71.25C67.5 73.32 69.17 75 71.25 75Z" fill="#7AFAC7" fill-opacity="0.83" fill-rule="nonzero"/>
  <path id="Vector" d="M41.25 75C43.32 75 45 73.32 45 71.25L45 26.25C45 24.17 43.32 22.5 41.25 22.5C39.17 22.5 37.5 24.17 37.5 26.25L37.5 71.25C37.5 73.32 39.17 75 41.25 75Z" fill="#7AFAC7" fill-opacity="0.83" fill-rule="nonzero"/>
</symbol>

<!-- Notes icon -->
<symbol id="notes-icon" class='w-[50px] h-[50px] tablet:w-[100px] tablet:h-[100px]' viewBox="0 0 100 100" fill="none" xmlns="http://www.w3.org/2000/svg">
    <path id="Vector" d="M81.25 25L79.16 25L79.16 10.41C79.16 4.67 74.49 0 68.75 0L18.75 0C8.41 0 0 8.41 0 18.75L0 56.25C0 66.58 8.41 75 18.75 75L20.83 75L20.83 81.25C20.83 91.58 29.24 100 39.58 100L81.25 100C91.58 100 100 91.58 100 81.25L100 43.75C100 33.41 91.58 25 81.25 25ZM75 25L32.39 25L73.29 6.12C74.35 7.25 75 8.75 75 10.41L75 25ZM18.75 70.83C10.7 70.83 4.16 64.29 4.16 56.25L4.16 18.75C4.16 10.7 10.7 4.16 18.75 4.16L67.59 4.16L29.3 21.83C24.15 24.21 20.83 29.4 20.83 35.08L20.83 70.83L18.75 70.83ZM95.83 81.25C95.83 89.29 89.29 95.83 81.25 95.83L39.58 95.83C31.54 95.83 25 89.29 25 81.25L25 35.08C25 32.92 25.67 30.86 26.85 29.15C26.93 29.16 27 29.16 27.08 29.16L81.25 29.16C89.29 29.16 95.83 35.7 95.83 43.75L95.83 81.25ZM83.33 50C83.33 51.15 82.39 52.08 81.25 52.08L64.58 52.08C63.43 52.08 62.5 51.15 62.5 50C62.5 48.85 63.43 47.91 64.58 47.91L81.25 47.91C82.39 47.91 83.33 48.85 83.33 50ZM47.91 41.66L43.75 41.66C40.3 41.66 37.5 44.47 37.5 47.91L37.5 52.08C37.5 55.52 40.3 58.33 43.75 58.33L47.91 58.33C51.36 58.33 54.16 55.52 54.16 52.08L54.16 47.91C54.16 44.47 51.36 41.66 47.91 41.66ZM50 52.08C50 53.22 49.06 54.16 47.91 54.16L43.75 54.16C42.6 54.16 41.66 53.22 41.66 52.08L41.66 47.91C41.66 46.77 42.6 45.83 43.75 45.83L47.91 45.83C49.06 45.83 50 46.77 50 47.91L50 52.08ZM83.33 75C83.33 76.15 82.39 77.08 81.25 77.08L64.58 77.08C63.43 77.08 62.5 76.15 62.5 75C62.5 73.85 63.43 72.91 64.58 72.91L81.25 72.91C82.39 72.91 83.33 73.85 83.33 75ZM47.91 66.66L43.75 66.66C40.3 66.66 37.5 69.47 37.5 72.91L37.5 77.08C37.5 80.52 40.3 83.33 43.75 83.33L47.91 83.33C51.36 83.33 54.16 80.52 54.16 77.08L54.16 72.91C54.16 69.47 51.36 66.66 47.91 66.66ZM50 77.08C50 78.22 49.06 79.16 47.91 79.16L43.75 79.16C42.6 79.16 41.66 78.22 41.66 77.08L41.66 72.91C41.66 71.77 42.6 70.83 43.75 70.83L47.91 70.83C49.06 70.83 50 71.77 50 72.91L50 77.08Z" fill="#FFFFFF" fill-opacity="1" fill-rule="nonzero"/>
</symbol>

<!-- Statistic icon -->
<symbol id='statistic-icon' class='w-[50px] h-[50px] tablet:w-[100px] tablet:h-[100px]' viewBox="0 0 100.051 99.9844" fill="none" xmlns="http://www.w3.org/2000/svg" xmlns:xlink="http://www.w3.org/1999/xlink">
	<defs/>
	<path id="Vector" d="M49.6 99.98C43.31 99.98 37.02 98.77 30.9 96.27C18.56 91.31 8.65 81.35 3.69 69.02C-1.94 55.1 -1.1 40.19 5.98 27.02C13.4 13.23 26.81 3.23 41.85 0.19C44.81 -0.4 47.9 0.35 50.27 2.31C52.73 4.31 54.15 7.31 54.15 10.48L54.15 45.81L89.56 45.81C92.73 45.81 95.69 47.23 97.73 49.69C99.69 52.06 100.44 55.15 99.85 58.1C96.81 73.15 86.77 86.56 73.02 93.98C65.6 97.98 57.69 99.98 49.65 99.98L49.6 99.98ZM43.85 4.15C43.48 4.15 43.1 4.15 42.69 4.27C28.81 7.06 16.48 16.31 9.65 28.98C3.15 41.02 2.4 54.69 7.56 67.48C12.1 78.77 21.19 87.85 32.48 92.4C45.27 97.56 58.94 96.81 71.02 90.31C83.73 83.48 92.98 71.15 95.77 57.27C96.1 55.52 95.65 53.73 94.52 52.31C93.31 50.81 91.52 49.98 89.6 49.98L52.06 49.98C50.9 49.98 49.98 49.06 49.98 47.9L49.98 10.44C49.98 8.52 49.15 6.73 47.65 5.52C46.56 4.6 45.23 4.15 43.85 4.15Z" fill="#FFFFFF" fill-opacity="1.000000" fill-rule="nonzero"/>
</symbol>

<!-- Budget icon -->
<symbol id='budget-icon' class='w-[50px] h-[50px] tablet:w-[100px] tablet:h-[100px]' viewBox="0 0 99.9958 100" fill="none" xmlns="http://www.w3.org/2000/svg" xmlns:xlink="http://www.w3.org/1999/xlink">
	<defs/>
	<path id="Vector" d="M99.99 85.41C99.99 93.45 93.45 100 85.41 100L14.58 100C6.54 100 0 93.45 0 85.41C0 79 4.17 73.53 9.94 71.59C10.86 72.82 11.83 74 12.86 75.14C7.93 75.96 4.17 80.25 4.17 85.41C4.17 91.16 8.84 95.83 14.58 95.83L85.41 95.83C91.15 95.83 95.82 91.16 95.82 85.41C95.82 80.25 92.05 75.96 87.13 75.14C88.15 74 89.13 72.82 90.05 71.59C95.82 73.53 99.99 79 99.99 85.41ZM43.74 62.5L47.91 62.5L47.91 70.83L52.08 70.83L52.08 62.5L56.24 62.5C61.98 62.5 66.66 57.82 66.66 52.08C66.66 46.37 62.57 41.57 56.93 40.67L43.71 38.55C40.11 37.96 37.49 34.89 37.49 31.25C37.49 27.8 40.3 25 43.74 25L56.24 25C59.69 25 62.49 27.8 62.49 31.25L62.49 33.33L66.66 33.33L66.66 31.25C66.66 25.5 61.98 20.83 56.24 20.83L52.08 20.83L52.08 12.5L47.91 12.5L47.91 20.83L43.74 20.83C38 20.83 33.33 25.5 33.33 31.25C33.33 36.95 37.41 41.75 43.05 42.66L56.27 44.78C59.88 45.36 62.49 48.43 62.49 52.08C62.49 55.52 59.69 58.33 56.24 58.33L43.74 58.33C40.3 58.33 37.49 55.52 37.49 52.08L37.49 50L33.33 50L33.33 52.08C33.33 57.82 38 62.5 43.74 62.5ZM8.33 41.66C8.33 18.69 27.02 0 49.99 0C72.97 0 91.66 18.69 91.66 41.66C91.66 64.64 72.97 83.33 49.99 83.33C27.02 83.33 8.33 64.64 8.33 41.66ZM12.49 41.66C12.49 62.34 29.32 79.16 49.99 79.16C70.67 79.16 87.49 62.34 87.49 41.66C87.49 20.98 70.67 4.16 49.99 4.16C29.32 4.16 12.49 20.98 12.49 41.66Z" fill="#FFFFFF" fill-opacity="1.000000" fill-rule="nonzero"/>
</symbol>

<!-- Pazzles icon -->
<symbol id='pazzles-icon' class='w-[50px] h-[50px] tablet:w-[100px] tablet:h-[100px]' viewBox="0 0 100 100" fill="none" xmlns="http://www.w3.org/2000/svg" xmlns:xlink="http://www.w3.org/1999/xlink">
	<defs/>
	<path id="Vector" d="M85.41 0L66.66 0C62.07 0 58.33 3.73 58.33 8.33L58.33 15.77C58.33 16.42 58.64 17.05 59.17 17.44C59.7 17.84 60.38 17.95 61.02 17.76C63.5 17 65.68 16.66 66.66 16.66C68.95 16.66 70.82 18.52 70.82 20.82C70.82 23.12 68.95 24.99 66.66 24.99C65.68 24.99 63.5 24.65 61.02 23.89C60.38 23.7 59.7 23.81 59.17 24.21C58.64 24.6 58.33 25.22 58.33 25.88L58.33 33.32C58.33 37.92 62.07 41.65 66.66 41.65L71.39 41.65C71.04 43.27 70.83 44.75 70.83 45.82C70.83 50.42 74.57 54.15 79.16 54.15C83.76 54.15 87.5 50.42 87.5 45.82C87.5 44.75 87.29 43.27 86.93 41.65L91.66 41.65C96.26 41.65 100 37.92 100 33.32L100 14.58C100 6.54 93.45 0 85.41 0ZM95.83 33.33C95.83 35.63 93.96 37.5 91.66 37.5L84.22 37.5C83.57 37.5 82.95 37.81 82.55 38.34C82.16 38.87 82.04 39.55 82.23 40.18C82.98 42.66 83.32 44.85 83.32 45.82C83.32 48.12 81.45 49.99 79.16 49.99C76.86 49.99 74.99 48.12 74.99 45.82C74.99 44.85 75.34 42.66 76.09 40.18C76.28 39.55 76.16 38.87 75.77 38.34C75.37 37.81 74.75 37.5 74.09 37.5L66.65 37.5C64.36 37.5 62.49 35.63 62.49 33.33L62.49 28.59C64.11 28.95 65.59 29.16 66.65 29.16C71.25 29.16 74.99 25.42 74.99 20.83C74.99 16.23 71.25 12.5 66.65 12.5C65.59 12.5 64.11 12.7 62.49 13.07L62.49 8.33C62.49 6.03 64.36 4.16 66.65 4.16L85.4 4.16C91.14 4.16 95.82 8.83 95.82 14.58L95.82 33.33L95.83 33.33ZM70.83 58.33L63.39 58.33C62.73 58.33 62.11 58.64 61.72 59.17C61.32 59.7 61.2 60.39 61.39 61.02C62.15 63.5 62.49 65.68 62.49 66.66C62.49 68.96 60.62 70.82 58.32 70.82C56.03 70.82 54.16 68.96 54.16 66.66C54.16 65.68 54.5 63.49 55.25 61.02C55.45 60.39 55.33 59.7 54.93 59.17C54.54 58.64 53.92 58.33 53.26 58.33L41.65 58.33L41.65 29.16C41.65 24.57 37.92 20.83 33.32 20.83L14.58 20.83C6.54 20.83 0 27.37 0 35.41L0 85.41C0 93.45 6.54 100 14.58 100L64.58 100C72.62 100 79.16 93.45 79.16 85.41L79.16 66.66C79.16 62.07 75.42 58.33 70.83 58.33ZM4.16 35.41C4.16 29.67 8.84 25 14.58 25L33.33 25C35.62 25 37.5 26.86 37.5 29.16L37.5 58.33L28.6 58.33C28.95 56.71 29.16 55.23 29.16 54.16C29.16 49.57 25.42 45.83 20.83 45.83C16.23 45.83 12.5 49.57 12.5 54.16C12.5 55.23 12.7 56.71 13.06 58.33L4.16 58.33L4.16 35.41ZM37.5 95.83L14.58 95.83C8.84 95.83 4.16 91.16 4.16 85.41L4.16 62.5L15.77 62.5C16.42 62.5 17.04 62.18 17.44 61.65C17.83 61.12 17.95 60.44 17.76 59.81C17.01 57.33 16.67 55.15 16.67 54.17C16.67 51.87 18.54 50 20.83 50C23.13 50 25 51.87 25 54.17C25 55.15 24.65 57.33 23.9 59.81C23.71 60.44 23.83 61.12 24.22 61.65C24.62 62.18 25.24 62.5 25.9 62.5L37.5 62.5L37.5 71.4C35.88 71.04 34.4 70.83 33.34 70.83C28.74 70.83 25 74.57 25 79.16C25 83.76 28.74 87.5 33.34 87.5C34.4 87.5 35.88 87.29 37.5 86.92L37.5 95.83L37.5 95.83ZM75 85.41C75 91.16 70.32 95.83 64.58 95.83L41.66 95.83L41.66 84.22C41.66 83.57 41.35 82.94 40.82 82.55C40.29 82.15 39.6 82.04 38.97 82.23C36.5 82.99 34.31 83.33 33.33 83.33C31.04 83.33 29.17 81.47 29.17 79.17C29.17 76.87 31.04 75 33.33 75C34.31 75 36.5 75.34 38.97 76.1C39.6 76.29 40.29 76.17 40.82 75.78C41.35 75.39 41.66 74.77 41.66 74.11L41.66 62.5L50.56 62.5C50.2 64.12 50 65.6 50 66.67C50 71.27 53.73 75 58.33 75C62.92 75 66.66 71.27 66.66 66.67C66.66 65.6 66.45 64.12 66.1 62.5L70.83 62.5C73.12 62.5 75 64.37 75 66.67L75 85.42L75 85.41Z" fill="#FFFFFF" fill-opacity="1.000000" fill-rule="nonzero"/>
</symbol>

<!-- Line icon -->
<symbol id='line-icon' width="453" height="183.016541" viewBox="0 0 423.004 183.017" fill="none" xmlns="http://www.w3.org/2000/svg" xmlns:xlink="http://www.w3.org/1999/xlink">
	<defs/>
	<path id="Line 2" d="M3 180L419.99 3" stroke="#FFFFFF" stroke-opacity="1.000000" stroke-width="6.000000" stroke-linecap="round" stroke-dasharray="36 36"/>
</symbol>

<!-- Line mobile icon -->
<symbol id='line-mobile-icon' width="74.946289" height="72.478104" viewBox="0 0 74.9463 72.4781" fill="none" xmlns="http://www.w3.org/2000/svg" xmlns:xlink="http://www.w3.org/1999/xlink">
	<defs/>
	<path id="Line 5" d="M73.44 1.5L1.5 70.97" stroke="#FFFFFF" stroke-opacity="1.000000" stroke-width="3.000000" stroke-linecap="round" stroke-dasharray="13 13"/>
</symbol>

</svg>