<svg style='display: none;'>

<!-- Menu icon -->
    <symbol
      id='menu-icon'
      width='30.000000'
      height='22.000000'
      viewBox='0 0 30 22'
      fill='none'
      xmlns='http://www.w3.org/2000/svg'
      xmlns:xlink='http://www.w3.org/1999/xlink'
    >
      <defs />
      <rect
        id='Rectangle 5775'
        rx='1.000000'
        width='30.000000'
        height='2.000000'
        fill='#FFFFFF'
        fill-opacity='1.000000'
      />
      <rect
        id='Rectangle 5776'
        y='10.000000'
        rx='1.000000'
        width='30.000000'
        height='2.000000'
        fill='#FFFFFF'
        fill-opacity='1.000000'
      />
      <rect
        id='Rectangle 5777'
        y='20.000000'
        rx='1.000000'
        width='30.000000'
        height='2.000000'
        fill='#FFFFFF'
        fill-opacity='1.000000'
      />
    </symbol>


<!-- Close icon -->
    <symbol
      id='close-icon'
      width='16.000000'
      height='16.000000'
      viewBox='0 0 16 16'
      fill='none'
      xmlns='http://www.w3.org/2000/svg'
      xmlns:xlink='http://www.w3.org/1999/xlink'
    >
      <defs>
        <clipPath id='clip439_4762'>
          <rect
            id='mingcute:close-fill'
            width='16.000000'
            height='16.000000'
            fill='white'
            fill-opacity='0'
          />
        </clipPath>
      </defs>
      <rect
        id='mingcute:close-fill'
        width='16.000000'
        height='16.000000'
        fill='#FFFFFF'
        fill-opacity='0'
      />
      <g clip-path='url(#clip439_4762)'>
        <path
          id='Vector'
          d='M8 9.41L11.53 12.95C11.72 13.13 11.97 13.24 12.24 13.24C12.5 13.24 12.76 13.13 12.95 12.95C13.13 12.76 13.24 12.5 13.24 12.24C13.24 11.97 13.13 11.72 12.95 11.53L9.41 8L12.94 4.46C13.04 4.37 13.11 4.26 13.16 4.14C13.21 4.01 13.24 3.88 13.24 3.75C13.24 3.62 13.21 3.49 13.16 3.37C13.11 3.25 13.04 3.14 12.94 3.05C12.85 2.95 12.74 2.88 12.62 2.83C12.5 2.78 12.37 2.75 12.24 2.75C12.11 2.75 11.98 2.78 11.85 2.83C11.73 2.88 11.62 2.95 11.53 3.05L8 6.58L4.46 3.05C4.37 2.95 4.26 2.87 4.14 2.82C4.01 2.77 3.88 2.74 3.75 2.74C3.62 2.74 3.48 2.76 3.36 2.81C3.24 2.86 3.13 2.94 3.03 3.03C2.94 3.13 2.87 3.24 2.81 3.36C2.76 3.48 2.74 3.62 2.74 3.75C2.74 3.88 2.77 4.01 2.82 4.13C2.87 4.26 2.95 4.37 3.05 4.46L6.58 8L3.05 11.53C2.95 11.62 2.87 11.73 2.82 11.86C2.77 11.98 2.74 12.11 2.74 12.24C2.74 12.37 2.77 12.51 2.82 12.63C2.87 12.75 2.94 12.86 3.03 12.96C3.13 13.05 3.24 13.13 3.36 13.18C3.49 13.23 3.62 13.25 3.75 13.25C3.88 13.25 4.01 13.22 4.14 13.17C4.26 13.12 4.37 13.04 4.46 12.94L8 9.41L8 9.41Z'
          fill='#FFFFFF'
          fill-opacity='1.000000'
          fill-rule='evenodd'
        />
      </g>
    </symbol>


<!-- Logo icon -->
    <symbol
      id='logo-icon'
      viewBox='0 0 183 41'
      fill='none'
      xmlns='http://www.w3.org/2000/svg'
      xmlns:xlink='http://www.w3.org/1999/xlink'
      class='w-[151px] h-[34px] tablet:w-[183px] tablet:h-[41px]'
    >
      <path
        id='Logo'
        d='M135.28 31.87L130.21 31.87L130.21 20.2C130.21 19.54 130.09 18.95 129.86 18.43C129.63 17.9 129.33 17.44 128.94 17.07C128.55 16.69 128.09 16.4 127.55 16.21C127.03 16 126.46 15.9 125.85 15.9L116.97 15.9L116.97 31.87L111.89 31.87L111.89 13.35C111.89 13 111.96 12.67 112.09 12.38C112.22 12.07 112.4 11.8 112.63 11.58C112.87 11.35 113.14 11.16 113.45 11.03C113.77 10.9 114.1 10.84 114.45 10.84L125.89 10.84C126.53 10.84 127.2 10.91 127.9 11.05C128.62 11.2 129.32 11.43 130.01 11.75C130.71 12.07 131.38 12.47 132 12.96C132.64 13.44 133.2 14.03 133.68 14.73C134.18 15.42 134.57 16.22 134.85 17.12C135.14 18.03 135.28 19.06 135.28 20.2L135.28 31.87Z'
        fill='#FFFFFF'
        fill-opacity='1.000000'
        fill-rule='nonzero'
      />
      <path
        id='Logo'
        d='M105.41 6.52L100.33 6.52L100.33 1.95L105.41 1.95L105.41 6.52ZM105.41 31.87L100.33 31.87L100.33 10.84L105.41 10.84L105.41 31.87Z'
        fill='#FFFFFF'
        fill-opacity='1.000000'
        fill-rule='nonzero'
      />
      <path
        id='Logo'
        d='M92.86 20.47L76.81 20.47L76.81 15.37L92.86 15.37L92.86 20.47ZM95.12 9.03L74.78 9.03L74.78 31.87L69.7 31.87L69.7 6.52C69.7 6.17 69.76 5.84 69.89 5.53C70.02 5.22 70.2 4.94 70.42 4.71C70.66 4.48 70.93 4.3 71.24 4.17C71.55 4.04 71.89 3.97 72.26 3.97L95.12 3.97L95.12 9.03Z'
        fill='#B9F6B4'
        fill-opacity='1.000000'
        fill-rule='nonzero'
      />
      <path
        id='Logo'
        d='M62.69 33.89C62.69 34.76 62.58 35.54 62.36 36.23C62.14 36.93 61.84 37.54 61.48 38.06C61.12 38.59 60.69 39.04 60.21 39.4C59.73 39.78 59.22 40.08 58.69 40.31C58.17 40.55 57.64 40.72 57.11 40.82C56.57 40.94 56.07 41 55.58 41L46.43 41L46.43 35.94L55.58 35.94C56.26 35.94 56.77 35.76 57.11 35.41C57.45 35.06 57.61 34.56 57.61 33.89L57.61 10.84L62.69 10.84L62.69 33.89ZM55.58 31.87L46.43 31.87C45.7 31.87 44.92 31.75 44.08 31.5C43.26 31.25 42.49 30.85 41.78 30.29C41.06 29.72 40.47 28.99 40 28.1C39.53 27.19 39.3 26.08 39.3 24.77L39.3 10.84L44.38 10.84L44.38 24.77C44.38 25.43 44.55 25.94 44.9 26.29C45.25 26.64 45.78 26.81 46.47 26.81L55.58 26.81L55.58 31.87Z'
        fill='#FFFFFF'
        fill-opacity='1.000000'
        fill-rule='nonzero'
      />
      <path
        id='Logo'
        d='M32.58 31.87L27.47 31.87L27.47 15.26L18.47 31.03C18.25 31.44 17.93 31.74 17.53 31.95C17.14 32.16 16.72 32.26 16.26 32.26C15.82 32.26 15.4 32.16 15.01 31.95C14.63 31.74 14.33 31.44 14.11 31.03L5.07 15.26L5.07 31.87L0 31.87L0 6.13C0 5.55 0.16 5.03 0.5 4.57C0.85 4.12 1.31 3.82 1.87 3.66C2.14 3.6 2.42 3.58 2.69 3.6C2.96 3.62 3.22 3.67 3.47 3.78C3.73 3.87 3.97 4 4.17 4.19C4.38 4.35 4.56 4.56 4.7 4.81L16.26 24.83L27.82 4.81C28.12 4.32 28.53 3.97 29.05 3.76C29.58 3.55 30.14 3.52 30.71 3.66C31.26 3.82 31.71 4.12 32.06 4.57C32.41 5.03 32.58 5.55 32.58 6.13L32.58 31.87Z'
        fill='#B9F6B4'
        fill-opacity='1.000000'
        fill-rule='nonzero'
      />
      <path
        id='Logo'
        d='M164.5 32.24C172.16 32.24 178.37 26.06 178.37 18.42C178.37 10.79 172.16 4.6 164.5 4.6C156.84 4.6 150.63 10.79 150.63 18.42C150.63 26.06 156.84 32.24 164.5 32.24ZM164.5 36.85C174.71 36.85 183 28.6 183 18.42C183 8.25 174.71 0 164.5 0C154.29 0 146 8.25 146 18.42C146 28.6 154.29 36.85 164.5 36.85Z'
        fill='#B9F6B4'
        fill-opacity='1.000000'
        fill-rule='evenodd'
      />
      <path
        id='Logo'
        d='M169.12 18.42C169.12 20.97 167.05 23.03 164.5 23.03C161.95 23.03 159.88 20.97 159.88 18.42C159.88 15.88 161.95 13.82 164.5 13.82C167.05 13.82 169.12 15.88 169.12 18.42Z'
        fill='#B9F6B4'
        fill-opacity='1.000000'
        fill-rule='nonzero'
      />
    </symbol>


<!-- Coins icon -->
<symbol id="coins-icon" class='w-[40px] h-[40px] tablet:w-[90px] tablet:h-[90px]' viewBox="0 0 90 90" fill="none" xmlns="http://www.w3.org/2000/svg">
  <g>
    <path d="M61.87 0C46.1 0 33.75 7.41 33.75 16.87L33.75 26.57C31.93 26.36 30.05 26.25 28.12 26.25C12.35 26.25 0 33.66 0 43.12L0 73.12C0 82.58 12.35 90 28.12 90C40.93 90 51.49 85.11 55 78.2C57.24 78.52 59.52 78.75 61.87 78.75C77.64 78.75 90 71.33 90 61.87L90 16.87C90 7.41 77.64 0 61.87 0ZM61.87 7.5C73.67 7.5 82.5 12.45 82.5 16.87C82.5 21.3 73.67 26.25 61.87 26.25C50.07 26.25 41.25 21.3 41.25 16.87C41.25 12.45 50.07 7.5 61.87 7.5ZM28.12 33.75C39.92 33.75 48.75 38.7 48.75 43.12C48.75 47.55 39.92 52.5 28.12 52.5C16.32 52.5 7.5 47.55 7.5 43.12C7.5 38.7 16.32 33.75 28.12 33.75ZM7.5 54.68C12.6 57.96 19.88 60 28.12 60C36.36 60 43.64 57.96 48.75 54.68L48.75 58.12C48.75 62.55 39.92 67.5 28.12 67.5C16.32 67.5 7.5 62.55 7.5 58.12L7.5 54.68ZM28.12 82.5C16.32 82.5 7.5 77.55 7.5 73.12L7.5 69.68C12.6 72.96 19.88 75 28.12 75C36.36 75 43.64 72.96 48.75 69.68L48.75 73.12C48.75 77.55 39.92 82.5 28.12 82.5ZM61.87 71.25C59.94 71.25 58.08 71.07 56.25 70.81L56.25 63.39C58.09 63.6 59.96 63.75 61.87 63.75C70.11 63.75 77.39 61.71 82.5 58.43L82.5 61.87C82.5 66.3 73.67 71.25 61.87 71.25ZM61.87 56.25C59.94 56.25 58.08 56.07 56.25 55.81L56.25 48.39C58.09 48.6 59.96 48.75 61.87 48.75C70.11 48.75 77.39 46.71 82.5 43.43L82.5 46.87C82.5 51.3 73.67 56.25 61.87 56.25ZM61.87 41.25C59.84 41.25 57.87 41.05 55.95 40.77C55.21 37.44 52.92 34.45 49.5 32.07C53.22 33.13 57.4 33.75 61.87 33.75C70.11 33.75 77.39 31.71 82.5 28.43L82.5 31.87C82.5 36.3 73.67 41.25 61.87 41.25L61.87 41.25Z" fill="#7AFAC7" fill-opacity="0.83"/>
  </g>
</symbol>


<!-- Clock icon -->
<symbol id="clock-icon" class='w-[40px] h-[40px] tablet:w-[90px] tablet:h-[90px]' viewBox="0 0 90 90" fill="none" xmlns="http://www.w3.org/2000/svg">
  <g>
    <path d="M45 90C20.18 90 0 69.81 0 45C0 20.18 20.18 0 45 0C69.81 0 90 20.18 90 45C90 69.81 69.81 90 45 90ZM45 7.5C24.32 7.5 7.5 24.32 7.5 45C7.5 65.67 24.32 82.5 45 82.5C65.67 82.5 82.5 65.67 82.5 45C82.5 24.32 65.67 7.5 45 7.5ZM54.37 61.23C56.17 60.2 56.78 57.9 55.74 56.11L48.75 43.99L48.75 22.5C48.75 20.43 47.07 18.75 45 18.75C42.92 18.75 41.25 20.43 41.25 22.5L41.25 45C41.25 45.66 41.42 46.3 41.75 46.87L49.25 59.86C49.95 61.06 51.2 61.74 52.5 61.74C53.14 61.74 53.78 61.57 54.37 61.23Z" fill="#7AFAC7" fill-opacity="0.83"/>
  </g>
</symbol>


<!-- Graph icon -->
<symbol id="graph-icon" class='w-[40px] h-[40px] tablet:w-[90px] tablet:h-[90px]' viewBox="0 0 90 90" fill="none" xmlns="http://www.w3.org/2000/svg">
  <path id="Vector" d="M86.25 82.5L11.25 82.5C9.17 82.5 7.5 80.82 7.5 78.75L7.5 3.75C7.5 1.67 5.82 0 3.75 0C1.67 0 0 1.67 0 3.75L0 78.75C0 84.96 5.03 90 11.25 90L86.25 90C88.32 90 90 88.32 90 86.25C90 84.17 88.32 82.5 86.25 82.5Z" fill="#7AFAC7" fill-opacity="0.83" fill-rule="nonzero"/>
  <path id="Vector" d="M56.25 75C58.32 75 60 73.32 60 71.25L60 45C60 42.92 58.32 41.25 56.25 41.25C54.17 41.25 52.5 42.92 52.5 45L52.5 71.25C52.5 73.32 54.17 75 56.25 75Z" fill="#7AFAC7" fill-opacity="0.83" fill-rule="nonzero"/>
  <path id="Vector" d="M26.25 75C28.32 75 30 73.32 30 71.25L30 45C30 42.92 28.32 41.25 26.25 41.25C24.17 41.25 22.5 42.92 22.5 45L22.5 71.25C22.5 73.32 24.17 75 26.25 75Z" fill="#7AFAC7" fill-opacity="0.83" fill-rule="nonzero"/>
  <path id="Vector" d="M71.25 75C73.32 75 75 73.32 75 71.25L75 26.25C75 24.17 73.32 22.5 71.25 22.5C69.17 22.5 67.5 24.17 67.5 26.25L67.5 71.25C67.5 73.32 69.17 75 71.25 75Z" fill="#7AFAC7" fill-opacity="0.83" fill-rule="nonzero"/>
  <path id="Vector" d="M41.25 75C43.32 75 45 73.32 45 71.25L45 26.25C45 24.17 43.32 22.5 41.25 22.5C39.17 22.5 37.5 24.17 37.5 26.25L37.5 71.25C37.5 73.32 39.17 75 41.25 75Z" fill="#7AFAC7" fill-opacity="0.83" fill-rule="nonzero"/>
</symbol>

</svg>